<svg xmlns="http://www.w3.org/2000/svg" viewBox="0 0 384 384" width="16" height="16"><defs><style> path {
            fill: #1F2448;
        }
        @media (prefers-color-scheme: dark) {
            path {
                fill: #ebf0f7;
            }
        }</style></defs><title>DraCor-Symbol-Square-White</title><g><g><path fill-rule="evenodd" d="M377.72,143A192.18,192.18,0,0,0,192,0H0V384H192A192.25,192.25,0,0,0,377.72,143ZM157.67,226.33a48.52,48.52,0,0,0,68.66,0c.69-.69,1.35-1.39,2-2.11A48.3,48.3,0,0,0,238,207.45H352.37a165.21,165.21,0,0,1-2.5,16.77A159.33,159.33,0,0,1,345.49,241C324.71,306,263.76,353.1,192,353.1H30.9V207.45H69.31A123.75,123.75,0,0,0,305.66,241H263.48a86.5,86.5,0,1,1,0-98h42.18A123.7,123.7,0,0,0,69.31,176.55H30.9V30.9H192c71.76,0,132.71,47.15,153.49,112.11a159.33,159.33,0,0,1,4.38,16.77,165.21,165.21,0,0,1,2.5,16.77H238a48.3,48.3,0,0,0-9.72-16.77c-.64-.72-1.3-1.42-2-2.11a48.55,48.55,0,0,0-68.66,68.66Z"/></g></g></svg>