<?xml version="1.0" standalone="no"?>
<!DOCTYPE svg PUBLIC "-//W3C//DTD SVG 20010904//EN"
 "http://www.w3.org/TR/2001/REC-SVG-20010904/DTD/svg10.dtd">
<svg version="1.0" xmlns="http://www.w3.org/2000/svg"
 width="700.000000pt" height="700.000000pt" viewBox="0 0 700.000000 700.000000"
 preserveAspectRatio="xMidYMid meet">
<metadata>
Created by potrace 1.11, written by Peter Selinger 2001-2013
</metadata>
<g transform="translate(0.000000,700.000000) scale(0.100000,-0.100000)"
fill="#000000" stroke="none">
<path d="M0 3500 l0 -3501 1898 4 c1043 1 1908 6 1922 9 14 4 54 9 90 13 36 3
72 8 80 10 8 2 33 6 55 10 169 24 300 56 576 141 139 43 458 188 639 291 103
58 312 203 429 297 129 103 375 341 473 456 248 294 452 634 593 990 79 199
166 505 189 665 4 23 9 52 11 65 24 118 37 296 40 505 2 239 -6 388 -30 540
-2 11 -6 45 -10 75 -4 30 -9 58 -11 61 -2 4 -6 24 -10 45 -21 138 -107 430
-184 625 -236 594 -678 1163 -1183 1522 -45 32 -90 64 -100 72 -9 8 -21 15
-26 15 -4 0 -16 9 -26 20 -10 11 -22 20 -26 20 -4 0 -43 22 -87 49 -393 244
-928 427 -1397 477 -27 3 -63 8 -80 11 -16 4 -884 8 -1927 10 l-1898 4 0
-3501z m3765 2926 c17 -3 59 -8 95 -11 36 -4 72 -8 80 -10 8 -3 33 -7 55 -10
22 -4 90 -17 150 -31 61 -14 119 -27 130 -29 11 -3 70 -21 130 -41 440 -145
827 -382 1150 -701 111 -110 133 -134 215 -233 271 -326 491 -766 585 -1170 2
-8 13 -61 24 -117 21 -104 26 -133 37 -234 l6 -57 -1042 2 -1042 1 -20 50
c-68 173 -220 343 -390 439 -73 41 -219 90 -298 101 -587 81 -1085 -414 -1006
-1000 68 -498 560 -845 1053 -741 280 59 526 258 633 512 l29 69 1041 3 1042
2 -7 -64 c-3 -36 -8 -75 -10 -88 -17 -103 -29 -165 -47 -238 -11 -47 -21 -92
-23 -100 -19 -84 -119 -353 -178 -480 -35 -76 -159 -301 -177 -323 -6 -7 -31
-43 -57 -82 -93 -141 -196 -265 -338 -409 -124 -124 -169 -164 -315 -275 -321
-244 -688 -419 -1080 -515 -58 -14 -123 -28 -145 -31 -22 -4 -47 -8 -55 -10
-8 -2 -37 -7 -65 -10 -27 -4 -57 -8 -65 -10 -61 -16 -392 -19 -1750 -20
l-1545 0 -1 1328 0 1327 348 0 c270 0 350 -3 353 -12 2 -7 6 -31 9 -53 10 -71
17 -109 28 -150 5 -22 12 -49 14 -59 10 -52 69 -226 109 -322 117 -279 297
-540 518 -750 101 -95 101 -95 192 -165 305 -234 725 -406 1085 -444 36 -4 79
-9 95 -11 54 -6 328 -6 390 1 53 6 102 13 220 32 241 38 591 182 825 339 63
42 117 80 120 83 3 4 14 14 26 22 59 40 198 170 284 265 145 159 320 430 379
587 l10 25 -383 0 -383 -1 -44 -60 c-24 -34 -89 -106 -145 -161 -423 -423
-1040 -569 -1611 -380 -103 33 -287 123 -371 180 -313 214 -530 506 -637 859
-14 46 -28 95 -30 107 -10 48 -24 135 -30 178 -6 54 -7 294 -1 330 3 14 7 43
10 65 17 136 69 310 136 453 97 205 296 449 475 580 39 29 76 56 83 62 22 19
221 121 285 146 70 28 259 80 327 90 225 33 433 24 633 -27 346 -87 668 -298
871 -569 l48 -65 384 -1 c211 0 384 2 384 4 0 3 -25 54 -55 114 -283 558 -776
972 -1365 1148 -104 31 -213 56 -280 66 -19 2 -44 6 -55 9 -117 24 -494 24
-627 0 -31 -5 -53 -9 -113 -20 -499 -88 -1002 -391 -1330 -800 -241 -302 -421
-705 -470 -1055 -12 -86 26 -78 -363 -76 l-347 1 -1 1320 c0 726 1 1323 2
1326 4 8 3157 3 3199 -5z"/>
</g>
</svg>
