<?xml version="1.0" encoding="utf-8"?>
<svg version="1.1" id="Ebene_1" xmlns:svg="http://www.w3.org/2000/svg" xmlns="http://www.w3.org/2000/svg" xmlns:xlink="http://www.w3.org/1999/xlink" x="0px" y="0px" viewBox="0 0 810 500" style="enable-background:new 0 0 810 500;" xml:space="preserve">
  <style type="text/css"> .st0{fill:#990000;} .st1{fill:#339966;} .st2{fill:#006699;}</style>
  <path class="st0" d="M0,500h30V0H0V500z M60,500h90V0H60V500z M180,0v500h90V0H180z"/><path class="st1" d="M720,500h30V0h-30V500z M780,0v500h30V0H780z M300,500h30V0h-30V500z M360,0v500h30V0H360z"/><path class="st2" d="M420,500h90V0h-90V500z M540,500h30V0h-30V500z M600,0v500h90V0H600z"/>
</svg>
