<svg xmlns="http://www.w3.org/2000/svg" viewBox="0 0 235.93 314.58"><defs><style>.cls-1{fill:#1f2448;}.cls-2{fill:#08f;}.cls-3{fill:#fff;}</style></defs><g id="Ebene_2" data-name="Ebene 2"><g id="Ebene_1-2" data-name="Ebene 1"><path class="cls-1" d="M235.93,78.64V275.26a39.3,39.3,0,0,1-39.32,39.32H39.32A39.31,39.31,0,0,1,0,275.26V39.32A39.31,39.31,0,0,1,39.32,0h118V39.32a39.3,39.3,0,0,0,39.32,39.32Z"/><path class="cls-2" d="M235.93,78.64H196.61a39.3,39.3,0,0,1-39.32-39.32V0Z"/><rect class="cls-3" x="15.48" y="224.33" width="204.98" height="74.77" rx="23.84"/><path class="cls-2" d="M69.65,284.34a1.51,1.51,0,0,1-1.6-1.6v-41.6a1.53,1.53,0,0,1,1.6-1.6H88.78a21.45,21.45,0,0,1,8.77,1.54,10.69,10.69,0,0,1,5,4.35,13,13,0,0,1,1.64,6.66,9.24,9.24,0,0,1-.87,4.13,10,10,0,0,1-2.08,2.91,10.14,10.14,0,0,1-2.37,1.73,11.06,11.06,0,0,1,4.39,3.8,10.52,10.52,0,0,1,1.89,6.24,13.41,13.41,0,0,1-1.83,7.11A12.12,12.12,0,0,1,98,282.68a20.32,20.32,0,0,1-8.71,1.66Zm8.83-26.75h9A6,6,0,0,0,92,256.12a5.17,5.17,0,0,0,1.44-3.78A5,5,0,0,0,92,248.63a6.14,6.14,0,0,0-4.45-1.41h-9Zm0,19.07h9.66a5.85,5.85,0,0,0,4.61-1.72,5.93,5.93,0,0,0,1.54-4,5.87,5.87,0,0,0-1.57-4.12,5.94,5.94,0,0,0-4.58-1.7H78.48Z"/><path class="cls-2" d="M114.19,284.34a1.54,1.54,0,0,1-1.15-.44,1.58,1.58,0,0,1-.45-1.16v-41.6A1.57,1.57,0,0,1,113,240a1.55,1.55,0,0,1,1.15-.45h7.55a1.58,1.58,0,0,1,1.12.45,1.52,1.52,0,0,1,.48,1.15v41.6a1.52,1.52,0,0,1-.48,1.16,1.57,1.57,0,0,1-1.12.44Z"/><path class="cls-2" d="M134.28,284.34a1.51,1.51,0,0,1-1.59-1.6v-41.6a1.53,1.53,0,0,1,1.59-1.6h19.14a21.45,21.45,0,0,1,8.77,1.54,10.69,10.69,0,0,1,5,4.35,13,13,0,0,1,1.64,6.66,9.24,9.24,0,0,1-.87,4.13,10.23,10.23,0,0,1-4.45,4.64,11.06,11.06,0,0,1,4.39,3.8,10.52,10.52,0,0,1,1.89,6.24A13.41,13.41,0,0,1,168,278a12.12,12.12,0,0,1-5.34,4.67,20.32,20.32,0,0,1-8.71,1.66Zm8.84-26.75h9a6,6,0,0,0,4.45-1.47,5.17,5.17,0,0,0,1.44-3.78,5,5,0,0,0-1.44-3.71,6.14,6.14,0,0,0-4.45-1.41h-9Zm0,19.07h9.66a5.86,5.86,0,0,0,4.61-1.72,5.93,5.93,0,0,0,1.54-4,5.87,5.87,0,0,0-1.57-4.12,5.94,5.94,0,0,0-4.58-1.7h-9.66Z"/><path id="path14" class="cls-3" d="M67.11,72.89v1.6c4.63,0,5.38,0,5.38,3v36.06c0,3-.73,3-5.38,3v1.6H89.88c8.47,0,14-6,14-12.06S98.41,95,91.33,94.55c6.35-1.25,10.79-5.49,10.79-10.53,0-5.5-5.43-11.14-14-11.14Zm9.67,21.18v-17c0-2.26.13-2.6,2.76-2.6H88A9.24,9.24,0,0,1,97.38,84c0,5.05-4,10.11-11.12,10.11Zm2.76,22.51c-2.62,0-2.75-.33-2.75-2.6V95.15H89c6.77,0,10.07,6.07,10.07,10.95a10.55,10.55,0,0,1-10.92,10.48"/><path id="path16" class="cls-3" d="M116.45,89c0-2.85.34-3.18,5.14-3.18v-1.6c-2.25.06-5.71.2-7.43.2s-5.18-.13-7.44-.2v1.6c4.59,0,4.91.33,4.91,3.18v24.44c0,2.84-.31,3.18-4.91,3.18v1.6c2.26-.06,5.71-.19,7.44-.19s5.17.13,7.43.19v-1.6c-4.8,0-5.14-.32-5.14-3.18"/><path id="path18" class="cls-3" d="M125.4,84.15v1.6c4.39,0,4.71.4,4.71,3.12v24.57c0,2.72-.32,3.12-4.71,3.12v1.6h20c7.36,0,12-4.5,12-9.13,0-4.3-4.25-7.94-10-8.67,4.71-1,8.49-4,8.49-7.81,0-4.16-4.64-8.4-11.87-8.4Zm9,15.54V88.61c0-2.64.33-2.84,2.68-2.84h6.43a6.7,6.7,0,0,1,7.11,6.73c0,2.38-1.74,7.19-8.72,7.19Zm0,1.34h10c5.64,0,7.45,5.11,7.45,7.94,0,3-2.19,7.6-8.24,7.6h-6.52c-2.32,0-2.64-.2-2.64-2.89"/><path id="path20" class="cls-3" d="M97.87,123.82H59.54L58.42,138.5h1.19c.86-11,1.8-12.92,12.09-12.92h3.67c1.27.2,1.27,1,1.27,2.54v36.12c0,2.4-.2,3.13-5.8,3.13H69V169c3.18-.06,6.5-.13,9.76-.13s6.57.07,9.75.13v-1.61H86.62c-5.51,0-5.7-.73-5.7-3.13V128.12c0-1.47,0-2.27,1.19-2.54h3.64c10.16,0,11.15,1.92,12,12.92H99"/><path id="path22" class="cls-3" d="M130.91,172.3h-1.2c-1.45,9.84-2.31,15.19-14,15.19h-9.21c-2.65,0-2.78-.34-2.78-2.62V166.32H110c6.26,0,6.86,2.29,6.86,7.89h1.07V157h-1.07c0,5.5-.6,7.76-6.86,7.76h-6.26V148.26c0-2.24.13-2.58,2.78-2.58h9.07c10.27,0,11.47,4.09,12.4,12.86h1.19l-1.59-14.68H94v1.82c4.7,0,5.46,0,5.46,3v35.81c0,3-.75,3-5.46,3v1.6h34.54"/><path id="path24" class="cls-3" d="M149.06,143.86l9.82-14.2c1-1.39,3-4.26,8.43-4.33v-1.6c-1.52.12-4,.12-5.63.12-2.19,0-4.91,0-6.57-.12v1.6c2.13.2,2.65,1.53,2.65,2.6a3.24,3.24,0,0,1-.79,2l-8.76,12.71-9.82-14.38c-.47-.72-.53-.93-.53-1.13,0-.6.72-1.73,2.92-1.79v-1.6c-2.12.12-5.37.12-7.56.12-1.71,0-5,0-6.64-.12v1.6c3.65,0,4.84.14,6.31,2.2l12.8,18.8L134.15,163.2a9.89,9.89,0,0,1-8.43,4.2V169c1.51-.13,4-.13,5.63-.13,1.79,0,4.91,0,6.56.13v-1.6a2.56,2.56,0,0,1-2.64-2.6,2.81,2.81,0,0,1,.65-1.8l10.62-15.5,11.55,17c.52.74.52.94.52,1.14,0,.52-.6,1.66-2.92,1.8V169c2.13-.13,5.37-.13,7.56-.13,1.72,0,5,0,6.65.13v-1.6c-4.25,0-4.92-.33-6.24-2.2"/></g></g></svg>