<?xml version="1.0" encoding="utf-8"?>
<!-- Generator: Adobe Illustrator 25.0.1, SVG Export Plug-In . SVG Version: 6.00 Build 0)  -->
<svg version="1.1" id="Layer_1" xmlns="http://www.w3.org/2000/svg" xmlns:xlink="http://www.w3.org/1999/xlink" x="0px" y="0px"
	 viewBox="0 0 215.1 64" style="enable-background:new 0 0 215.1 64;" xml:space="preserve">
<g>
	<path d="M31.9,0c9,0,16.6,3.1,22.9,9.4c3,3,5.3,6.4,6.9,10.3c1.6,3.9,2.3,8,2.3,12.3c0,4.4-0.8,8.5-2.3,12.3s-3.8,7.2-6.8,10.1
		c-3.1,3.1-6.7,5.4-10.6,7.1c-4,1.6-8.1,2.5-12.3,2.5s-8.3-0.8-12.1-2.4c-3.9-1.6-7.3-4-10.4-7S4,48,2.4,44.2S0,36.3,0,32
		c0-4.2,0.8-8.3,2.4-12.2s4-7.4,7.1-10.5C15.6,3.1,23.1,0,31.9,0z M32.1,5.8c-7.3,0-13.5,2.6-18.5,7.7C11.1,16,9.2,18.8,7.8,22
		s-2,6.5-2,10c0,3.4,0.7,6.7,2,9.9c1.4,3.2,3.3,6,5.8,8.5s5.4,4.4,8.5,5.7c3.2,1.3,6.5,2,9.9,2s6.8-0.7,10-2s6.1-3.3,8.7-5.8
		c5-4.9,7.5-11,7.5-18.3c0-3.5-0.6-6.9-1.9-10.1c-1.3-3.2-3.2-6-5.7-8.5C45.5,8.3,39.3,5.8,32.1,5.8z M31.7,26.7l-4.3,2.2
		c-0.5-1-1-1.6-1.7-2s-1.3-0.6-1.9-0.6c-2.9,0-4.3,1.9-4.3,5.7c0,1.7,0.4,3.1,1.1,4.1s1.8,1.5,3.2,1.5c1.9,0,3.2-0.9,3.9-2.7l3.9,2
		c-0.8,1.6-2,2.8-3.5,3.7s-3.1,1.3-4.9,1.3c-2.9,0-5.2-0.9-6.9-2.6c-1.8-1.8-2.6-4.2-2.6-7.3c0-3,0.9-5.5,2.7-7.3
		c1.8-1.8,4-2.7,6.7-2.7C27.1,22.1,29.9,23.6,31.7,26.7z M50.1,26.7l-4.2,2.2c-0.5-1-1-1.6-1.7-2s-1.3-0.6-1.9-0.6
		c-2.9,0-4.3,1.9-4.3,5.7c0,1.7,0.4,3.1,1.1,4.1c0.7,1,1.8,1.5,3.2,1.5c1.9,0,3.2-0.9,3.9-2.7l4,2c-0.9,1.6-2.1,2.8-3.5,3.7
		c-1.5,0.9-3.1,1.3-4.9,1.3c-2.9,0-5.2-0.9-6.9-2.6c-1.7-1.8-2.6-4.2-2.6-7.3c0-3,0.9-5.5,2.7-7.3s4-2.7,6.7-2.7
		C45.6,22.1,48.4,23.6,50.1,26.7z"/>
</g>
<g>
	<path d="M107.5,0c9,0,16.6,3.1,22.7,9.3c6.2,6.2,9.3,13.8,9.3,22.7c0,9-3,16.5-9.1,22.5c-6.5,6.4-14.1,9.5-22.9,9.5
		c-8.6,0-16.2-3.1-22.5-9.4c-6.3-6.3-9.4-13.8-9.4-22.6S78.7,15.7,85,9.3C91.1,3.1,98.6,0,107.5,0z M107.6,5.8
		c-7.3,0-13.4,2.6-18.5,7.7C83.9,18.8,81.3,25,81.3,32c0,7.1,2.6,13.2,7.8,18.4c5.2,5.2,11.4,7.8,18.5,7.8s13.3-2.6,18.6-7.8
		c5-4.8,7.5-11,7.5-18.3s-2.6-13.5-7.7-18.6C121,8.3,114.8,5.8,107.6,5.8z M116.2,24.1v13.1h-3.7v15.5h-9.9V37.1h-3.7v-13
		c0-0.6,0.2-1.1,0.6-1.5s0.9-0.6,1.5-0.6h13.1c0.5,0,1,0.2,1.4,0.6C116,23,116.2,23.5,116.2,24.1z M103.1,15.8c0-3,1.5-4.5,4.5-4.5
		s4.5,1.5,4.5,4.5s-1.5,4.5-4.5,4.5S103.1,18.8,103.1,15.8z"/>
</g>
<path d="M183,0c9,0,16.5,3.1,22.7,9.3c6.2,6.2,9.3,13.7,9.3,22.7c0,9-3,16.5-9.1,22.5c-6.4,6.3-14.1,9.5-22.9,9.5
	c-8.6,0-16.2-3.1-22.5-9.4c-6.3-6.3-9.4-13.8-9.4-22.6c0-8.7,3.1-16.3,9.4-22.7C166.7,3.1,174.2,0,183,0L183,0z M183.2,5.7
	c-7.3,0-13.4,2.6-18.5,7.7c-5.2,5.3-7.8,11.5-7.8,18.5c0,7.1,2.6,13.3,7.8,18.4c5.2,5.2,11.4,7.8,18.5,7.8c7.1,0,13.3-2.6,18.6-7.8
	c5-4.9,7.5-11,7.5-18.3c0-7.3-2.6-13.5-7.7-18.5C196.6,8.3,190.4,5.7,183.2,5.7L183.2,5.7z M168.9,27.5c0.6-3.9,2.2-7,4.7-9.1
	c2.6-2.2,5.7-3.2,9.3-3.2c5,0,9,1.6,12,4.9c3,3.2,4.5,7.4,4.5,12.5c0,4.9-1.5,9-4.6,12.3c-3.1,3.3-7.1,4.9-12,4.9
	c-3.6,0-6.7-1.1-9.4-3.3c-2.6-2.2-4.2-5.3-4.7-9.3h8.1c0.2,3.9,2.5,5.8,7,5.8c2.2,0,4.1-1,5.4-2.9c1.4-1.9,2.1-4.5,2.1-7.8
	c0-3.4-0.6-6-1.9-7.7c-1.3-1.8-3.1-2.7-5.4-2.7c-4.3,0-6.7,1.9-7.2,5.7h2.3l-6.3,6.3l-6.3-6.3H168.9L168.9,27.5z"/>
</svg>
