<svg xmlns="http://www.w3.org/2000/svg" viewBox="0 0 235.93 314.58"><defs><style>.cls-1{fill:#1f2448;}.cls-2{fill:#08f;}.cls-3{fill:#fff;}</style></defs><g id="Ebene_2" data-name="Ebene 2"><g id="Ebene_1-2" data-name="Ebene 1"><path class="cls-1" d="M235.93,78.64V275.26a39.3,39.3,0,0,1-39.32,39.32H39.32A39.31,39.31,0,0,1,0,275.26V39.32A39.31,39.31,0,0,1,39.32,0h118V39.32a39.3,39.3,0,0,0,39.32,39.32Z"/><path class="cls-2" d="M235.93,78.64H196.61a39.3,39.3,0,0,1-39.32-39.32V0Z"/><path class="cls-3" d="M220.45,248.17v27.08a23.84,23.84,0,0,1-23.84,23.85H39.32a23.85,23.85,0,0,1-23.85-23.85V248.17a23.85,23.85,0,0,1,23.85-23.84H196.61A23.84,23.84,0,0,1,220.45,248.17Z"/><path class="cls-2" d="M77.07,285a23.7,23.7,0,0,1-10.24-2,15.07,15.07,0,0,1-6.56-5.89,19.73,19.73,0,0,1-2.59-9.44c0-1.75-.07-3.63-.07-5.63s0-3.93.07-5.76a19.41,19.41,0,0,1,2.62-9.38A15.47,15.47,0,0,1,66.92,241a23.29,23.29,0,0,1,10.15-2A26.56,26.56,0,0,1,84.88,240,18.69,18.69,0,0,1,91,243.13a14.74,14.74,0,0,1,4,4.8,13.55,13.55,0,0,1,1.5,6.14,1,1,0,0,1-.35,1,1.37,1.37,0,0,1-1,.39H87.57a1.89,1.89,0,0,1-1.22-.36,2.35,2.35,0,0,1-.7-1.24c-.6-2.48-1.64-4.17-3.11-5.09A10.28,10.28,0,0,0,77,247.35a8.44,8.44,0,0,0-6.08,2.15c-1.49,1.43-2.3,3.78-2.43,7.07q-.18,5.25,0,10.75c.13,3.29.94,5.64,2.43,7.07A8.44,8.44,0,0,0,77,276.54a10.1,10.1,0,0,0,5.54-1.41,7.94,7.94,0,0,0,3.11-5.06,2.25,2.25,0,0,1,.7-1.28,2.08,2.08,0,0,1,1.22-.32h7.61a1.37,1.37,0,0,1,1,.39,1,1,0,0,1,.35,1A13.55,13.55,0,0,1,95,276a14.74,14.74,0,0,1-4,4.8,18.69,18.69,0,0,1-6.11,3.14A26.57,26.57,0,0,1,77.07,285Z"/><path class="cls-2" d="M119.88,285a26.15,26.15,0,0,1-10.36-1.79,14.55,14.55,0,0,1-6.27-4.7,11.14,11.14,0,0,1-2.25-6.18,1.34,1.34,0,0,1,.39-.93,1.25,1.25,0,0,1,1-.41h7.1a2.2,2.2,0,0,1,1.35.35,5.24,5.24,0,0,1,.83.86,7,7,0,0,0,1.44,2.05,7.17,7.17,0,0,0,2.65,1.67,11.85,11.85,0,0,0,4.16.64,11.52,11.52,0,0,0,6.15-1.32,4,4,0,0,0,2.05-3.55,3.32,3.32,0,0,0-1.12-2.59,10.64,10.64,0,0,0-3.49-1.82,58.43,58.43,0,0,0-6.34-1.73,35.68,35.68,0,0,1-8.16-2.66,12.52,12.52,0,0,1-5.09-4.22,12.54,12.54,0,0,1,.42-13.35,14.14,14.14,0,0,1,6-4.7,22.76,22.76,0,0,1,9.18-1.7,23.13,23.13,0,0,1,7.65,1.16,17.27,17.27,0,0,1,5.5,3,14.52,14.52,0,0,1,3.39,4,9.15,9.15,0,0,1,1.25,4.13,1.33,1.33,0,0,1-.38.93,1.26,1.26,0,0,1-1,.42h-7.49a2.62,2.62,0,0,1-1.12-.26,1.84,1.84,0,0,1-.86-.9,4.75,4.75,0,0,0-2.21-2.84,8.64,8.64,0,0,0-4.77-1.19,9.15,9.15,0,0,0-4.86,1.12,3.76,3.76,0,0,0-1.8,3.43,3.67,3.67,0,0,0,.93,2.52,7.31,7.31,0,0,0,3.11,1.83c1.45.51,3.39,1.07,5.82,1.66a44.94,44.94,0,0,1,9.18,2.75,10.44,10.44,0,0,1,6.82,10.56,11.75,11.75,0,0,1-2.4,7.4,15,15,0,0,1-6.62,4.73A27.06,27.06,0,0,1,119.88,285Z"/><path class="cls-2" d="M156.88,284.34a2.48,2.48,0,0,1-1.7-.54,3,3,0,0,1-.86-1.31l-13.32-41a1.62,1.62,0,0,1-.12-.57,1.42,1.42,0,0,1,1.34-1.35h7a2,2,0,0,1,1.5.55,2.35,2.35,0,0,1,.68,1l9.79,30.92L171,241.14a3.25,3.25,0,0,1,.7-1,1.93,1.93,0,0,1,1.47-.55h7a1.44,1.44,0,0,1,1.35,1.35,1.65,1.65,0,0,1-.13.57l-13.31,41a2.53,2.53,0,0,1-.83,1.31,2.61,2.61,0,0,1-1.73.54Z"/><path class="cls-3" d="M62,124.63a1.06,1.06,0,0,1-.77-.33,1,1,0,0,1-.32-.72,1,1,0,0,1,.05-.3,1.15,1.15,0,0,1,.15-.29L72,106.88,61.93,91.46a1.42,1.42,0,0,1-.14-.59,1,1,0,0,1,.29-.72,1,1,0,0,1,.75-.33H70a1.58,1.58,0,0,1,1.14.38,2.35,2.35,0,0,1,.55.67l6,9,6-9a3.45,3.45,0,0,1,.6-.67,1.6,1.6,0,0,1,1.14-.38h6.81a1,1,0,0,1,.77.33,1,1,0,0,1,.33.72.92.92,0,0,1-.2.59L83.07,106.83,94,123a.81.81,0,0,1,.13.29,1.51,1.51,0,0,1,0,.3,1,1,0,0,1-.29.72,1,1,0,0,1-.75.33H85.7a1.7,1.7,0,0,1-1.17-.38,2.73,2.73,0,0,1-.57-.62l-6.61-9.54-6.47,9.54a3,3,0,0,1-.54.62,1.63,1.63,0,0,1-1.15.38Z"/><rect class="cls-3" x="141.78" y="89.82" width="33.21" height="13.85"/><rect class="cls-3" x="141.78" y="110.77" width="33.21" height="13.4"/><rect class="cls-3" x="141.78" y="131.28" width="33.21" height="13.4"/><rect class="cls-3" x="141.78" y="151.78" width="33.21" height="14.07"/><rect class="cls-3" x="141.78" y="172.95" width="33.21" height="13.73"/><rect class="cls-3" x="60.94" y="131.66" width="33.21" height="13.02"/><rect class="cls-3" x="60.94" y="151.78" width="33.21" height="14.07"/><rect class="cls-3" x="60.94" y="172.95" width="33.21" height="13.73"/><rect class="cls-3" x="101.36" y="89.82" width="33.21" height="13.85"/><rect class="cls-3" x="101.36" y="172.95" width="33.21" height="13.73"/><rect class="cls-3" x="101.36" y="151.78" width="33.21" height="14.07"/><rect class="cls-3" x="101.36" y="131.28" width="33.21" height="13.4"/><rect class="cls-3" x="101.36" y="110.77" width="33.21" height="13.4"/></g></g></svg>