<svg xmlns="http://www.w3.org/2000/svg" viewBox="0 0 235.93 314.58"><defs><style>.cls-1{fill:#1f2448;}.cls-2{fill:#08f;}.cls-3{fill:#fff;}</style></defs><g id="Ebene_2" data-name="Ebene 2"><g id="Ebene_1-2" data-name="Ebene 1"><path class="cls-1" d="M235.93,78.64V275.26a39.3,39.3,0,0,1-39.32,39.32H39.32A39.31,39.31,0,0,1,0,275.26V39.32A39.31,39.31,0,0,1,39.32,0h118V39.32a39.3,39.3,0,0,0,39.32,39.32Z"/><path class="cls-2" d="M235.93,78.64H196.61a39.3,39.3,0,0,1-39.32-39.32V0Z"/><rect class="cls-3" x="15.48" y="224.33" width="204.98" height="74.77" rx="23.84"/><path class="cls-2" d="M56.88,285a23.87,23.87,0,0,1-10.27-2A15.25,15.25,0,0,1,40,277.08a19,19,0,0,1-2.56-9.38q-.06-2.74-.06-5.88t.06-6A18.16,18.16,0,0,1,40,246.71a15.36,15.36,0,0,1,6.69-5.79,24,24,0,0,1,10.21-2,26.39,26.39,0,0,1,8.41,1.22,19.93,19.93,0,0,1,6.08,3.17,14.08,14.08,0,0,1,3.72,4.25A10,10,0,0,1,76.4,252a1.09,1.09,0,0,1-.35,1,1.41,1.41,0,0,1-1,.39H66.8a1.66,1.66,0,0,1-1-.23,2.25,2.25,0,0,1-.64-.73,9.27,9.27,0,0,0-1.41-2.27,7.6,7.6,0,0,0-2.59-2,9.94,9.94,0,0,0-4.32-.8,9,9,0,0,0-6.21,2.08q-2.31,2.08-2.5,6.75c-.12,3.67-.12,7.41,0,11.2.13,3.25,1,5.58,2.56,7a9.09,9.09,0,0,0,6.34,2.15,11,11,0,0,0,4.61-.93,7.26,7.26,0,0,0,3.23-2.85,9.25,9.25,0,0,0,1.18-4.93V266.3H59.31a1.43,1.43,0,0,1-1.09-.48,1.59,1.59,0,0,1-.44-1.12v-4.23a1.54,1.54,0,0,1,.44-1.15,1.48,1.48,0,0,1,1.09-.45H75.12a1.54,1.54,0,0,1,1.6,1.6v7a17.45,17.45,0,0,1-2.43,9.41,15.72,15.72,0,0,1-6.92,6A24.61,24.61,0,0,1,56.88,285Z"/><path class="cls-2" d="M86,284.34a1.53,1.53,0,0,1-1.15-.44,1.58,1.58,0,0,1-.45-1.16v-41.6a1.57,1.57,0,0,1,.45-1.15,1.54,1.54,0,0,1,1.15-.45h29.18a1.55,1.55,0,0,1,1.15.45,1.57,1.57,0,0,1,.45,1.15v5.32a1.46,1.46,0,0,1-.45,1.08,1.55,1.55,0,0,1-1.15.45H94.51v9.73h19.26a1.52,1.52,0,0,1,1.16.48,1.71,1.71,0,0,1,.44,1.18v4.87a1.53,1.53,0,0,1-1.6,1.6H94.51v10h21.18a1.51,1.51,0,0,1,1.6,1.6v5.24a1.61,1.61,0,0,1-.44,1.16,1.57,1.57,0,0,1-1.16.44Z"/><path class="cls-2" d="M122.41,284.34a1.25,1.25,0,0,1-1-.41,1.37,1.37,0,0,1-.38-.93,1.21,1.21,0,0,1,.06-.38l.13-.39L135.4,261.5l-13.12-19.84a1.4,1.4,0,0,1-.25-.77,1.32,1.32,0,0,1,.41-.93,1.29,1.29,0,0,1,.93-.42h8.2a1.93,1.93,0,0,1,1.37.45,5.21,5.21,0,0,1,.74.83l8.38,12.55,8.45-12.55a4.68,4.68,0,0,1,.77-.83,2,2,0,0,1,1.34-.45h7.74a1.23,1.23,0,0,1,1,.42,1.34,1.34,0,0,1,.39.93,1.47,1.47,0,0,1-.19.77l-13.19,19.77,14.21,20.8a.92.92,0,0,1,.16.39,2.34,2.34,0,0,1,0,.38,1.33,1.33,0,0,1-.38.93,1.25,1.25,0,0,1-1,.41h-8.45a2,2,0,0,1-1.34-.44,3.85,3.85,0,0,1-.71-.77l-9.21-13.19-9,13.19a7.89,7.89,0,0,1-.73.77,1.94,1.94,0,0,1-1.38.44Z"/><path class="cls-2" d="M169.9,284.34a1.54,1.54,0,0,1-1.15-.44,1.58,1.58,0,0,1-.45-1.16v-41.6a1.57,1.57,0,0,1,.45-1.15,1.55,1.55,0,0,1,1.15-.45h28.74a1.55,1.55,0,0,1,1.15.45,1.57,1.57,0,0,1,.45,1.15v5.64a1.54,1.54,0,0,1-1.6,1.6h-20v10.56h18.76a1.6,1.6,0,0,1,1.15.44,1.58,1.58,0,0,1,.45,1.16v5.63a1.48,1.48,0,0,1-.45,1.09,1.56,1.56,0,0,1-1.15.44H178.6v15a1.52,1.52,0,0,1-.48,1.16,1.65,1.65,0,0,1-1.18.44Z"/><g id="F161dc"><path class="cls-3" d="M139.75,72.88c9.65-.77,21.84.91,24.18,12.13A3.81,3.81,0,0,0,166.51,88c16.31,5.93,7.09,32.57-7.84,33,4.13-4.85,8.31-8.2,11.78-13.26,3.47-5.35,2.24-15.1-5.89-17.42,1.22,20.77-37.16,52.14-41,18.53-8.33,8.77-16.24,18.15-26.9,24.53a3.41,3.41,0,0,0-1.49,2.22c-.37,8.32,5.54,17.95,16.36,14,15.88-5.16,24.07-25.58,42.12-24.73-2,3.37-6.23,4.6-8.52,7.63-8.18,10-12.67,35.89,3.62,38.9,3.33-13.31,2-28,8-40.52,24.07-28.57,49.17,32.64-2.22,46.35-1,6.05-2.16,13.09-3.32,20.12h-6.88c7.87-37.63,1-10.72-14.59-32.27-12,31.84-63.44,29.77-69.81-4.36-4.08-23.18,32.08-20.43,33.72-.94,1.81,9-8.3,17.09-16.58,13.06,17.37-6.17,13.4-29.09-5.68-25.75-6.06,1.35-9.85,7.9-8.39,14.78,5,23.55,39.21,32.29,52.55,10.8a106.1,106.1,0,0,0,13.8-30c-14.61,13-34.08,16.51-40.56-5.93-22,6.08-39.65-14.35-37.34-34.53,3.86-13.73,18.53-22.8,32.92-19-17.68,4.16-35.52,22.83-23.51,41,5.76,8.84,15.24,12.64,24.93,10a2.66,2.66,0,0,0,2.31-3C87,102.19,112.7,78.14,139.75,72.88ZM96.1,129.61c23.24-13,34.44-47.9,64.91-43.81-2.76-12.72-18.73-12.54-28-7.63A72,72,0,0,0,96.1,129.61Zm39.71-9.15c14.71-1.75,22.5-16.36,25.32-29.46,0-7.72-20.33-.67-23.53,2.87C127.71,98.75,120.22,118.72,135.81,120.46Zm19.75,50.87.61.84c31.12-7.27,17.14-56.19,5.27-36.18C158,147.48,157.37,159.53,155.56,171.33Z"/></g></g></g></svg>