<svg xmlns="http://www.w3.org/2000/svg" viewBox="0 0 235.93 314.58"><defs><style>.cls-1{fill:#1f2448;}.cls-2{fill:#08f;}.cls-3{fill:#fff;}</style></defs><g id="Ebene_2" data-name="Ebene 2"><g id="Ebene_1-2" data-name="Ebene 1"><path class="cls-1" d="M235.93,78.64V275.26a39.3,39.3,0,0,1-39.32,39.32H39.32A39.31,39.31,0,0,1,0,275.26V39.32A39.31,39.31,0,0,1,39.32,0h118V39.32a39.3,39.3,0,0,0,39.32,39.32Z"/><path class="cls-2" d="M235.93,78.64H196.61a39.3,39.3,0,0,1-39.32-39.32V0Z"/><rect class="cls-3" x="15.48" y="224.33" width="204.98" height="74.77" rx="23.84"/><path class="cls-2" d="M43.64,277.74a16.36,16.36,0,0,1-7.07-1.39A10.41,10.41,0,0,1,32,272.3a13.07,13.07,0,0,1-1.76-6.44c0-1.26,0-2.61,0-4.05s0-2.8,0-4.09A12.52,12.52,0,0,1,32,251.43a10.56,10.56,0,0,1,4.6-4,16.53,16.53,0,0,1,7-1.38,18.31,18.31,0,0,1,5.78.83,13.84,13.84,0,0,1,4.18,2.18A9.61,9.61,0,0,1,56.15,252a6.78,6.78,0,0,1,.91,3.08.73.73,0,0,1-.25.66,1,1,0,0,1-.68.26H50.46a1.15,1.15,0,0,1-.66-.15,1.64,1.64,0,0,1-.44-.51,6.46,6.46,0,0,0-1-1.56,5.2,5.2,0,0,0-1.78-1.36,6.76,6.76,0,0,0-3-.55,6.11,6.11,0,0,0-4.27,1.43q-1.59,1.42-1.72,4.64-.13,3.78,0,7.7c.09,2.23.68,3.83,1.76,4.82a6.27,6.27,0,0,0,4.36,1.47,7.54,7.54,0,0,0,3.17-.64,4.91,4.91,0,0,0,2.22-2A6.38,6.38,0,0,0,50,266v-1.06H45.31a1,1,0,0,1-.75-.33,1.12,1.12,0,0,1-.31-.77v-2.9a1.11,1.11,0,0,1,.31-.8,1.06,1.06,0,0,1,.75-.31H56.18a1.06,1.06,0,0,1,1.1,1.11v4.84a11.93,11.93,0,0,1-1.68,6.46,10.78,10.78,0,0,1-4.75,4.12A17,17,0,0,1,43.64,277.74Z"/><path class="cls-2" d="M60.91,277.3a1,1,0,0,1-.75-.31,1.06,1.06,0,0,1-.31-.79V255.52a1.06,1.06,0,0,1,.31-.77,1,1,0,0,1,.75-.33h4.48a1,1,0,0,1,.77.33,1,1,0,0,1,.33.77v1.76a7.45,7.45,0,0,1,2.73-2.11,8.77,8.77,0,0,1,3.7-.75h1.89a1,1,0,0,1,.79.31,1,1,0,0,1,.31.79v4a1,1,0,0,1-.31.75,1.08,1.08,0,0,1-.79.3H70.89a4,4,0,0,0-3,1.08,4.14,4.14,0,0,0-1.05,3V276.2a1,1,0,0,1-.33.79,1.12,1.12,0,0,1-.77.31Z"/><path class="cls-2" d="M83.91,277.74a9.58,9.58,0,0,1-4.2-.9,7.6,7.6,0,0,1-2.95-2.45A5.88,5.88,0,0,1,75.69,271a5.81,5.81,0,0,1,2.5-4.95,15,15,0,0,1,6.69-2.44l5.72-.88V262a3.88,3.88,0,0,0-.77-2.62,3.4,3.4,0,0,0-2.7-.9,4.21,4.21,0,0,0-2.27.54,3.83,3.83,0,0,0-1.34,1.48,1.15,1.15,0,0,1-1,.53H78.15a.94.94,0,0,1-.73-.27,1,1,0,0,1-.24-.7,4.49,4.49,0,0,1,.6-1.74,6.69,6.69,0,0,1,1.76-2,10.05,10.05,0,0,1,3.08-1.65,13.71,13.71,0,0,1,4.55-.66,15.29,15.29,0,0,1,4.8.66,8.08,8.08,0,0,1,3.19,1.85,7.33,7.33,0,0,1,1.78,2.77,9.89,9.89,0,0,1,.57,3.39V276.2a1.06,1.06,0,0,1-.31.79,1.09,1.09,0,0,1-.79.31H92a1.11,1.11,0,0,1-.8-.31,1.09,1.09,0,0,1-.3-.79v-1.63a6.22,6.22,0,0,1-1.54,1.58A8.6,8.6,0,0,1,87,277.3,10.11,10.11,0,0,1,83.91,277.74Zm1.81-4.67a5.28,5.28,0,0,0,2.53-.59A4.25,4.25,0,0,0,90,270.61a6.86,6.86,0,0,0,.66-3.17v-.7l-4,.66a7.66,7.66,0,0,0-3.36,1.14,2.31,2.31,0,0,0-1.08,1.89,2.15,2.15,0,0,0,.5,1.43,3.11,3.11,0,0,0,1.3.9A4.61,4.61,0,0,0,85.72,273.07Z"/><path class="cls-2" d="M101.46,285.66a1.09,1.09,0,0,1-.79-.31,1.06,1.06,0,0,1-.31-.79v-29a1,1,0,0,1,.31-.79,1,1,0,0,1,.79-.31h4.36a1,1,0,0,1,.74.31,1,1,0,0,1,.31.79v1.67a8.2,8.2,0,0,1,2.75-2.31,8.88,8.88,0,0,1,4.2-.9,10.19,10.19,0,0,1,3.94.7,7.48,7.48,0,0,1,2.86,2.05,9.69,9.69,0,0,1,1.83,3.25,14.9,14.9,0,0,1,.75,4.29c0,.56,0,1.09,0,1.59s0,1,0,1.63a14.74,14.74,0,0,1-.73,4.15,9.36,9.36,0,0,1-1.83,3.24,8.09,8.09,0,0,1-2.88,2.11,9.65,9.65,0,0,1-3.94.75,9,9,0,0,1-3.91-.79,7.05,7.05,0,0,1-2.68-2.25v9.86a1.1,1.1,0,0,1-.31.79,1.06,1.06,0,0,1-.75.31Zm10.3-13.34a4.2,4.2,0,0,0,2.55-.68,3.88,3.88,0,0,0,1.34-1.84,9.38,9.38,0,0,0,.51-2.58,20.72,20.72,0,0,0,0-2.73,9.3,9.3,0,0,0-.51-2.57,3.91,3.91,0,0,0-1.34-1.85,4.26,4.26,0,0,0-2.55-.68,4.33,4.33,0,0,0-2.6.7,4.13,4.13,0,0,0-1.41,1.85,8.1,8.1,0,0,0-.52,2.42c0,.53,0,1.07,0,1.63s0,1.11,0,1.67a5.66,5.66,0,0,0,.54,2.29,4.07,4.07,0,0,0,4,2.37Z"/><path class="cls-2" d="M126.66,277.3a1.09,1.09,0,0,1-.79-.31,1.06,1.06,0,0,1-.31-.79v-29a1,1,0,0,1,.31-.79,1,1,0,0,1,.79-.31h4.93a1.06,1.06,0,0,1,1.1,1.1v9.9a8.26,8.26,0,0,1,2.88-2.25,9.51,9.51,0,0,1,4.11-.83,9,9,0,0,1,4.6,1.16,8.15,8.15,0,0,1,3.15,3.39,11.7,11.7,0,0,1,1.14,5.39V276.2a1,1,0,0,1-.33.79,1.12,1.12,0,0,1-.77.31h-5a1.12,1.12,0,0,1-.77-.31,1,1,0,0,1-.33-.79v-12a5.24,5.24,0,0,0-1.1-3.55,4,4,0,0,0-3.17-1.25,4.29,4.29,0,0,0-3.23,1.25,4.9,4.9,0,0,0-1.21,3.55v12a1.06,1.06,0,0,1-1.1,1.1Z"/><path class="cls-2" d="M152.83,277.3a1.11,1.11,0,0,1-.77-.31,1,1,0,0,1-.33-.79V247.6a1,1,0,0,1,.33-.8,1.1,1.1,0,0,1,.77-.3h4.22a1.33,1.33,0,0,1,1,.35,2.57,2.57,0,0,1,.42.53l8.05,14.69,8.1-14.69a2.57,2.57,0,0,1,.42-.53,1.33,1.33,0,0,1,1-.35h4.18a1.18,1.18,0,0,1,.82.3,1.08,1.08,0,0,1,.33.8v28.6a1.08,1.08,0,0,1-.33.79,1.19,1.19,0,0,1-.82.31h-4.62a1.12,1.12,0,0,1-.77-.31,1,1,0,0,1-.33-.79V258.69l-5.45,10.2a2.13,2.13,0,0,1-.53.71,1.46,1.46,0,0,1-1,.31H165.5a1.41,1.41,0,0,1-.93-.31,2.78,2.78,0,0,1-.57-.71l-5.45-10.2V276.2a1.1,1.1,0,0,1-.31.79,1.06,1.06,0,0,1-.75.31Z"/><path class="cls-2" d="M186.27,277.3a1.11,1.11,0,0,1-.8-.31,1.09,1.09,0,0,1-.3-.79V247.6a1,1,0,0,1,1.1-1.1h5.1a1.05,1.05,0,0,1,.75.3,1.11,1.11,0,0,1,.31.8v23.63H206a1.05,1.05,0,0,1,.79.32,1.16,1.16,0,0,1,.31.82v3.83a1.06,1.06,0,0,1-.31.79,1.09,1.09,0,0,1-.79.31Z"/><path class="cls-3" d="M176.66,102.12a10.29,10.29,0,0,1-17.1,7.73L128.06,128a10.43,10.43,0,0,1,.2,2,10.29,10.29,0,0,1-7,9.76v36.36a10.3,10.3,0,1,1-6.59,0V139.82a10.29,10.29,0,0,1-7-9.76,10.43,10.43,0,0,1,.2-2l-31.5-18.19a10.19,10.19,0,0,1-6.8,2.58,10.3,10.3,0,1,1,10.3-10.3,10.43,10.43,0,0,1-.2,2l31.5,18.19a10.24,10.24,0,0,1,13.59,0l31.5-18.19a10.43,10.43,0,0,1-.2-2,10.3,10.3,0,1,1,20.6,0Z"/><circle class="cls-3" cx="117.96" cy="74.18" r="10.3"/><circle class="cls-3" cx="166.36" cy="158" r="10.3"/><circle class="cls-3" cx="69.57" cy="158" r="10.3"/></g></g></svg>