<svg xmlns="http://www.w3.org/2000/svg" viewBox="0 0 235.93 314.58"><defs><style>.cls-1{fill:#1f2448;}.cls-2{fill:#08f;}.cls-3{fill:#fff;}</style></defs><g id="Ebene_2" data-name="Ebene 2"><g id="Ebene_1-2" data-name="Ebene 1"><path class="cls-1" d="M235.93,78.64V275.26a39.3,39.3,0,0,1-39.32,39.32H39.32A39.31,39.31,0,0,1,0,275.26V39.32A39.31,39.31,0,0,1,39.32,0h118V39.32a39.3,39.3,0,0,0,39.32,39.32Z"/><path class="cls-2" d="M235.93,78.64H196.61a39.3,39.3,0,0,1-39.32-39.32V0Z"/><rect class="cls-3" x="39.32" y="224.33" width="157.29" height="74.77"/><path class="cls-3" d="M196.61,224.33a23.84,23.84,0,0,0-23.84,23.85H63.16a23.84,23.84,0,1,0-47.68,0v27.08a23.84,23.84,0,1,0,47.68,0H172.77a23.84,23.84,0,1,0,47.68,0V248.18A23.84,23.84,0,0,0,196.61,224.33Z"/><path class="cls-2" d="M52.33,285a25.35,25.35,0,0,1-6.82-.89,17.7,17.7,0,0,1-5.72-2.72,13.46,13.46,0,0,1-4-4.55,14,14,0,0,1-1.6-6.3,1.44,1.44,0,0,1,.38-1,1.33,1.33,0,0,1,1-.42h7.55a1.81,1.81,0,0,1,1.34.45,3.06,3.06,0,0,1,.71,1.28,7.29,7.29,0,0,0,1.37,3.23,6.06,6.06,0,0,0,2.53,1.86,9.48,9.48,0,0,0,3.46.61,6.66,6.66,0,0,0,5.47-2.31q1.89-2.3,1.89-6.59V248.31H38.76a1.45,1.45,0,0,1-1.09-.48,1.61,1.61,0,0,1-.44-1.12v-5.57a1.6,1.6,0,0,1,.44-1.15,1.5,1.5,0,0,1,1.09-.45H69.1a1.55,1.55,0,0,1,1.15.45,1.57,1.57,0,0,1,.45,1.15V267.9a17.46,17.46,0,0,1-2.34,9.31A15,15,0,0,1,61.9,283,21.87,21.87,0,0,1,52.33,285Z"/><path class="cls-2" d="M94.27,285a26.17,26.17,0,0,1-10.37-1.79,14.67,14.67,0,0,1-6.27-4.7,11.05,11.05,0,0,1-2.24-6.18,1.37,1.37,0,0,1,.38-.93,1.28,1.28,0,0,1,1-.41h7.11a2.19,2.19,0,0,1,1.34.35,4.53,4.53,0,0,1,.83.86,7,7,0,0,0,1.44,2.05,7.22,7.22,0,0,0,2.66,1.67,11.85,11.85,0,0,0,4.16.64,11.46,11.46,0,0,0,6.14-1.32,4,4,0,0,0,2-3.55,3.29,3.29,0,0,0-1.12-2.59,10.64,10.64,0,0,0-3.49-1.82,58.81,58.81,0,0,0-6.33-1.73,35.68,35.68,0,0,1-8.16-2.66,12.46,12.46,0,0,1-5.09-4.22,12.49,12.49,0,0,1,.42-13.35,14.1,14.1,0,0,1,6-4.7,22.77,22.77,0,0,1,9.19-1.7,23,23,0,0,1,7.64,1.16,17.32,17.32,0,0,1,5.51,3,14.52,14.52,0,0,1,3.39,4,9.27,9.27,0,0,1,1.25,4.13,1.34,1.34,0,0,1-.39.93,1.23,1.23,0,0,1-1,.42h-7.48a2.59,2.59,0,0,1-1.12-.26,1.86,1.86,0,0,1-.87-.9,4.67,4.67,0,0,0-2.21-2.84,8.59,8.59,0,0,0-4.76-1.19A9.21,9.21,0,0,0,89,248.47a3.78,3.78,0,0,0-1.79,3.43,3.67,3.67,0,0,0,.93,2.52,7.27,7.27,0,0,0,3.1,1.83c1.45.51,3.39,1.07,5.83,1.66a45.13,45.13,0,0,1,9.18,2.75,11.52,11.52,0,0,1,5.18,4.16,12.92,12.92,0,0,1-.76,13.8,14.94,14.94,0,0,1-6.63,4.73A27,27,0,0,1,94.27,285Z"/><path class="cls-2" d="M136.82,285a24.09,24.09,0,0,1-10-1.92,14.88,14.88,0,0,1-6.63-5.79,19.48,19.48,0,0,1-2.59-9.76c0-1.83-.06-3.66-.06-5.47s0-3.66.06-5.54a19.28,19.28,0,0,1,2.63-9.69,15.17,15.17,0,0,1,6.72-5.92,25.87,25.87,0,0,1,19.9,0,15.17,15.17,0,0,1,6.72,5.92,19.28,19.28,0,0,1,2.62,9.69c.09,1.88.13,3.73.13,5.54s0,3.64-.13,5.47a19.38,19.38,0,0,1-2.59,9.76,14.83,14.83,0,0,1-6.65,5.79A24.37,24.37,0,0,1,136.82,285Zm0-8.44a8.43,8.43,0,0,0,6-2.21q2.34-2.2,2.47-7.14c.08-1.87.13-3.63.13-5.28s-.05-3.38-.13-5.21a11.66,11.66,0,0,0-1.19-5.35,7,7,0,0,0-3-3,10.13,10.13,0,0,0-8.61,0,7.07,7.07,0,0,0-3,3,12.45,12.45,0,0,0-1.25,5.35c0,1.83-.06,3.57-.06,5.21s0,3.41.06,5.28q.19,4.94,2.53,7.14A8.38,8.38,0,0,0,136.82,276.54Z"/><path class="cls-2" d="M164,284.34a1.54,1.54,0,0,1-1.15-.44,1.58,1.58,0,0,1-.45-1.16v-41.6a1.57,1.57,0,0,1,.45-1.15,1.55,1.55,0,0,1,1.15-.45h6a2,2,0,0,1,1.44.45,3.14,3.14,0,0,1,.61.71l16.76,26.24v-25.8a1.57,1.57,0,0,1,.45-1.15,1.48,1.48,0,0,1,1.09-.45h6.78a1.58,1.58,0,0,1,1.16.45,1.6,1.6,0,0,1,.44,1.15v41.6a1.61,1.61,0,0,1-.44,1.12,1.52,1.52,0,0,1-1.16.48H191a1.81,1.81,0,0,1-1.4-.48,5.88,5.88,0,0,1-.58-.67l-16.77-25.47v25a1.58,1.58,0,0,1-.45,1.16,1.54,1.54,0,0,1-1.15.44Z"/><path class="cls-3" d="M85.74,182A26.41,26.41,0,0,1,76,180.17a17.34,17.34,0,0,1-7-5.28,23.33,23.33,0,0,1-4.17-8.68,46.23,46.23,0,0,1-1.4-12A17.16,17.16,0,0,0,62.1,147,9.33,9.33,0,0,0,58,142.72l-.86-.48a4.26,4.26,0,0,1-2.49-3.74v-2.69a4.26,4.26,0,0,1,2.49-3.74l1-.48a10.07,10.07,0,0,0,4-4.36,16.9,16.9,0,0,0,1.29-7.15,46.34,46.34,0,0,1,1.4-12A22.94,22.94,0,0,1,69,99.46a18,18,0,0,1,7-5.27,24.32,24.32,0,0,1,9.83-1.83h.48a2.11,2.11,0,0,1,1.54.58,2.08,2.08,0,0,1,.57,1.53v6.14a2.11,2.11,0,0,1-.57,1.54,1.88,1.88,0,0,1-1.35.57h-.48a11,11,0,0,0-6.62,2.16,10.75,10.75,0,0,0-3.35,6,48.83,48.83,0,0,0-1,10.79,22.66,22.66,0,0,1-1.87,9.78,11.74,11.74,0,0,1-5.23,5.66,9.84,9.84,0,0,1,3.79,3.31,17.49,17.49,0,0,1,2.45,5.32,25.38,25.38,0,0,1,.86,6.81,48.93,48.93,0,0,0,1,10.75,10.88,10.88,0,0,0,3.31,6.09,10.9,10.9,0,0,0,6.66,2.15l.48.1a1.88,1.88,0,0,1,1.35.57,2.11,2.11,0,0,1,.57,1.54v6.14a2.11,2.11,0,0,1-.57,1.48,2,2,0,0,1-1.54.63Z"/><path class="cls-3" d="M112.31,174a1.53,1.53,0,0,1-1.3-.57,1.93,1.93,0,0,1-.33-1.44l2.49-16.31a4.48,4.48,0,0,1,.91-2.15,2.58,2.58,0,0,1,2.16-.92h8.82a1.62,1.62,0,0,1,1.25.53,1.87,1.87,0,0,1,.48,1.3,2.76,2.76,0,0,1-.29,1.24l-6.14,15.92a5.55,5.55,0,0,1-1,1.68,2.76,2.76,0,0,1-2.11.72Zm3-40.76a2.17,2.17,0,0,1-1.68-.67,2.29,2.29,0,0,1-.62-1.63v-9.11a2.43,2.43,0,0,1,.62-1.73,2.21,2.21,0,0,1,1.68-.67h9.49a2.42,2.42,0,0,1,1.68.67,2.27,2.27,0,0,1,.72,1.73v9.11a2.15,2.15,0,0,1-.72,1.63,2.37,2.37,0,0,1-1.68.67Z"/><path class="cls-3" d="M150.09,92.36A25.41,25.41,0,0,1,160,94.14a17.38,17.38,0,0,1,7,5.27,23.48,23.48,0,0,1,4.17,8.68,46.79,46.79,0,0,1,1.39,12.09,16.81,16.81,0,0,0,1.3,7.14,10.1,10.1,0,0,0,4,4.37l1,.38a4.26,4.26,0,0,1,2.49,3.74v2.78a4.25,4.25,0,0,1-2.49,3.74l-1,.48a9.14,9.14,0,0,0-4,4.27,17.67,17.67,0,0,0-1.25,7.24,45.75,45.75,0,0,1-1.39,11.94,23.39,23.39,0,0,1-4.17,8.63,17.45,17.45,0,0,1-6.95,5.28,26.32,26.32,0,0,1-9.83,1.87h-.58a2.15,2.15,0,0,1-2.11-2.11v-6.14a2.07,2.07,0,0,1,.58-1.54,2,2,0,0,1,1.44-.57h.38a11.7,11.7,0,0,0,6.76-2.21,10.59,10.59,0,0,0,3.31-6,48.9,48.9,0,0,0,1-10.74,22.94,22.94,0,0,1,1.87-9.88,11.29,11.29,0,0,1,5.23-5.56,11.83,11.83,0,0,1-3.79-3.41,16.08,16.08,0,0,1-2.45-5.22,25.38,25.38,0,0,1-.86-6.81A49.45,49.45,0,0,0,160,111a9.4,9.4,0,0,0-10-8.25h-.48a2,2,0,0,1-1.44-.57,2.07,2.07,0,0,1-.58-1.54V94.47a2,2,0,0,1,.63-1.53,2.12,2.12,0,0,1,1.48-.58Z"/></g></g></svg>