<svg xmlns="http://www.w3.org/2000/svg" viewBox="0 0 235.93 314.58"><defs><style>.cls-1{fill:#1f2448;}.cls-2{fill:#08f;}.cls-3{fill:#fff;}</style></defs><g id="Ebene_2" data-name="Ebene 2"><g id="Ebene_1-2" data-name="Ebene 1"><path class="cls-1" d="M235.93,78.64V275.26a39.3,39.3,0,0,1-39.32,39.32H39.32A39.31,39.31,0,0,1,0,275.26V39.32A39.31,39.31,0,0,1,39.32,0h118V39.32a39.3,39.3,0,0,0,39.32,39.32Z"/><path class="cls-2" d="M235.93,78.64H196.61a39.3,39.3,0,0,1-39.32-39.32V0Z"/><rect class="cls-3" x="15.48" y="224.33" width="204.98" height="74.77" rx="23.84"/><path class="cls-2" d="M60.53,284.34a1.57,1.57,0,0,1-1.16-.44,1.61,1.61,0,0,1-.44-1.16v-41.6a1.6,1.6,0,0,1,.44-1.15,1.58,1.58,0,0,1,1.16-.45H77.61q8,0,12.64,3.72t4.64,10.62a13,13,0,0,1-2.24,7.81,13.4,13.4,0,0,1-6,4.67l9,15.94a1.68,1.68,0,0,1,.19.7,1.29,1.29,0,0,1-.42.93,1.26,1.26,0,0,1-.93.41H87.15a2.3,2.3,0,0,1-1.73-.6,5.07,5.07,0,0,1-.83-1.12l-7.68-14.53H69.36v14.65a1.58,1.58,0,0,1-.45,1.16,1.54,1.54,0,0,1-1.15.44Zm8.83-24.57h8.06a7.13,7.13,0,0,0,5.06-1.57,5.72,5.72,0,0,0,1.66-4.38,6.11,6.11,0,0,0-1.63-4.48c-1.09-1.11-2.78-1.67-5.09-1.67H69.36Z"/><path class="cls-2" d="M104.3,284.34a1.54,1.54,0,0,1-1.15-.44,1.58,1.58,0,0,1-.45-1.16v-41.6a1.57,1.57,0,0,1,.45-1.15,1.55,1.55,0,0,1,1.15-.45h16.19a25.35,25.35,0,0,1,10.72,2,14.59,14.59,0,0,1,6.6,5.89,19.62,19.62,0,0,1,2.4,9.57c0,1.87.06,3.52.06,4.92s0,3-.06,4.87a21.51,21.51,0,0,1-2.37,9.85,13.33,13.33,0,0,1-6.43,5.8,26.16,26.16,0,0,1-10.6,1.88Zm8.83-8.44h7.36a12.11,12.11,0,0,0,5.12-.93,6.12,6.12,0,0,0,3-3,12.91,12.91,0,0,0,1.06-5.31q.06-1.86.09-3.33t0-2.94q0-1.47-.09-3.27c-.09-3.15-.9-5.47-2.44-6.94s-3.88-2.21-7-2.21h-7Z"/><path class="cls-2" d="M149.81,284.34a1.51,1.51,0,0,1-1.6-1.6v-41.6a1.53,1.53,0,0,1,1.6-1.6h28.73a1.55,1.55,0,0,1,1.15.45,1.57,1.57,0,0,1,.45,1.15v5.64a1.54,1.54,0,0,1-1.6,1.6h-20v10.56h18.75a1.53,1.53,0,0,1,1.6,1.6v5.63a1.48,1.48,0,0,1-.45,1.09,1.54,1.54,0,0,1-1.15.44H158.51v15a1.52,1.52,0,0,1-.48,1.16,1.67,1.67,0,0,1-1.19.44Z"/><path class="cls-3" d="M155.16,159.24a20.26,20.26,0,0,0-2.13-1l.51,0s-4.57-2-5-16.74,4.36-17.22,4.36-17.22l-.68,0A20.5,20.5,0,0,0,152.48,88a20.48,20.48,0,0,0-29.85,21.37l-.24-.36s1.21,5.34-11.3,13.11S92.93,126,92.93,126l.36.53c-.36-.22-.7-.45-1.08-.64A20.51,20.51,0,1,0,95.41,160l-.13.26s4.55-3.75,17.68,3.3c10.36,5.56,11.9,11,12.1,13.06a20.5,20.5,0,1,0,30.1-17.37ZM132,161.94c-1.66.58-6.39,1.23-16.37-4.12-10.8-5.8-12.4-10.64-12.63-12.09a20.36,20.36,0,0,0-.25-5.24l.07.09s-.88-4.71,11.48-12.38c11.06-6.87,16.08-5.5,17-5.14a20,20,0,0,0,5.71,2.7c1.52,1.45,4.32,5.56,4.61,16.37s-2.9,15.1-4.65,16.59A20.18,20.18,0,0,0,132,161.94Z"/><path class="cls-2" d="M130.68,94.49c-6,6.53-6.1,16.13-.34,21.57-2.85-2.74-2.79-8.44.09-13.89a2.7,2.7,0,0,1,3-1.12.67.67,0,0,0,.32.06,4.44,4.44,0,0,0,1.09.11,4.31,4.31,0,0,0,4.11-4.5A4.26,4.26,0,0,0,137.78,94c5.51-3.61,11.84-4,14.43-1.66h.1C146.39,86.93,136.7,87.9,130.68,94.49Z"/><path class="cls-2" d="M70.48,154.84l-.15-.16.1.11Z"/><path class="cls-2" d="M70.67,133.11c-6,6.53-6.09,16.13-.34,21.57-2.84-2.74-2.78-8.44.09-13.89a2.7,2.7,0,0,1,3-1.12.87.87,0,0,0,.33.06,3.92,3.92,0,0,0,1.09.1,4.3,4.3,0,0,0,4.1-4.49,4.23,4.23,0,0,0-1.17-2.73c5.51-3.62,11.84-4,14.44-1.66h.09C86.38,125.54,76.7,126.51,70.67,133.11Z"/><path class="cls-2" d="M134,187.53l-.16-.16a.52.52,0,0,0,.1.11Z"/><path class="cls-2" d="M134.19,165.8c-6,6.53-6.09,16.13-.34,21.57-2.84-2.74-2.78-8.44.09-13.89a2.69,2.69,0,0,1,3-1.11,1,1,0,0,0,.32.06,4.38,4.38,0,0,0,1.09.1,4.3,4.3,0,0,0,4.1-4.5,4.23,4.23,0,0,0-1.17-2.73c5.51-3.61,11.84-4,14.44-1.66h.09C149.9,158.24,140.22,159.21,134.19,165.8Z"/></g></g></svg>