<svg xmlns="http://www.w3.org/2000/svg" viewBox="0 0 235.93 314.58"><defs><style>.cls-1{fill:#1f2448;}.cls-2{fill:#08f;}.cls-3{fill:#fff;}.cls-4{fill:none;}</style></defs><g id="Ebene_2" data-name="Ebene 2"><g id="Ebene_1-2" data-name="Ebene 1"><path class="cls-1" d="M235.93,78.64V275.26a39.3,39.3,0,0,1-39.32,39.32H39.32A39.31,39.31,0,0,1,0,275.26V39.32A39.31,39.31,0,0,1,39.32,0h118V39.32a39.3,39.3,0,0,0,39.32,39.32Z"/><path class="cls-2" d="M235.93,78.64H196.61a39.3,39.3,0,0,1-39.32-39.32V0Z"/><rect class="cls-3" x="15.48" y="224.33" width="204.98" height="74.77" rx="23.84"/><path class="cls-3" d="M61.7,125.22a1,1,0,0,1-.72-.32,1,1,0,0,1-.32-.72,2,2,0,0,1,.05-.45L72.39,91.81a2,2,0,0,1,.63-1,1.89,1.89,0,0,1,1.31-.42h7.36a1.92,1.92,0,0,1,1.32.42,2,2,0,0,1,.62,1l11.64,31.92a1.06,1.06,0,0,1,.1.45,1,1,0,0,1-.33.72,1,1,0,0,1-.77.32H88.16a1.51,1.51,0,0,1-1.12-.37,1.75,1.75,0,0,1-.47-.67l-1.94-5.07H71.35l-1.89,5.07a1.91,1.91,0,0,1-.45.67,1.57,1.57,0,0,1-1.19.37ZM73.39,112h9.25L78,98.82Z"/><rect class="cls-4" x="200.25" y="118.7" width="11.96" height="9.43"/><rect class="cls-4" x="200.25" y="109.27" width="11.96" height="9.43"/><rect class="cls-4" x="200.25" y="99.84" width="11.96" height="9.43"/><rect class="cls-4" x="200.25" y="90.42" width="11.96" height="9.43"/><rect class="cls-4" x="200.25" y="156.4" width="11.96" height="9.43"/><rect class="cls-4" x="200.25" y="146.97" width="11.96" height="9.43"/><rect class="cls-4" x="200.25" y="137.55" width="11.96" height="9.43"/><rect class="cls-4" x="200.25" y="128.12" width="11.96" height="9.43"/><rect class="cls-4" x="200.25" y="194.11" width="11.96" height="9.43"/><rect class="cls-4" x="200.25" y="184.68" width="11.96" height="9.43"/><rect class="cls-4" x="200.25" y="175.25" width="11.96" height="9.43"/><rect class="cls-4" x="200.25" y="165.83" width="11.96" height="9.43"/><rect class="cls-3" x="101.62" y="117.53" width="73.63" height="7.04"/><rect class="cls-3" x="101.62" y="103.39" width="73.63" height="7.04"/><rect class="cls-3" x="101.62" y="90.21" width="73.63" height="6.08"/><rect class="cls-3" x="61.2" y="174.09" width="73.64" height="7.03"/><rect class="cls-3" x="61.2" y="159.95" width="114.05" height="7.04"/><rect class="cls-3" x="61.2" y="145.81" width="114.05" height="7.04"/><rect class="cls-3" x="61.2" y="131.67" width="114.05" height="7.04"/><path class="cls-2" d="M63.39,284.13a1.54,1.54,0,0,1-1.15-.44,1.58,1.58,0,0,1-.45-1.16v-41.6a1.57,1.57,0,0,1,.45-1.15,1.55,1.55,0,0,1,1.15-.45H80.48q8,0,12.64,3.72t4.64,10.62a13.13,13.13,0,0,1-2.24,7.81,13.45,13.45,0,0,1-6,4.67l9,15.94a1.56,1.56,0,0,1,.2.7,1.42,1.42,0,0,1-1.35,1.34H90a2.29,2.29,0,0,1-1.73-.6,5.07,5.07,0,0,1-.83-1.12l-7.68-14.53H72.23v14.65a1.53,1.53,0,0,1-1.6,1.6Zm8.84-24.57h8.06A7.15,7.15,0,0,0,85.35,258,5.76,5.76,0,0,0,87,253.61a6.11,6.11,0,0,0-1.63-4.48q-1.63-1.66-5.09-1.67H72.23Z"/><path class="cls-2" d="M116.58,284.13a1.53,1.53,0,0,1-1.15-.44,1.58,1.58,0,0,1-.45-1.16v-34H103.39a1.46,1.46,0,0,1-1.08-.45,1.55,1.55,0,0,1-.45-1.15v-6a1.57,1.57,0,0,1,.45-1.15,1.46,1.46,0,0,1,1.08-.45h33.73a1.54,1.54,0,0,1,1.15.45,1.57,1.57,0,0,1,.45,1.15v6a1.55,1.55,0,0,1-.45,1.15,1.54,1.54,0,0,1-1.15.45H125.54v34a1.58,1.58,0,0,1-.45,1.16,1.54,1.54,0,0,1-1.15.44Z"/><path class="cls-2" d="M146.4,284.13a1.54,1.54,0,0,1-1.15-.44,1.58,1.58,0,0,1-.45-1.16v-41.6a1.57,1.57,0,0,1,.45-1.15,1.55,1.55,0,0,1,1.15-.45h28.74a1.55,1.55,0,0,1,1.15.45,1.57,1.57,0,0,1,.45,1.15v5.64a1.54,1.54,0,0,1-1.6,1.6h-20v10.56h18.75a1.53,1.53,0,0,1,1.6,1.6V266a1.48,1.48,0,0,1-.45,1.09,1.54,1.54,0,0,1-1.15.44H155.11v15a1.52,1.52,0,0,1-.48,1.16,1.67,1.67,0,0,1-1.19.44Z"/></g></g></svg>