<?xml version="1.0" encoding="utf-8"?>
<!-- Generator: Adobe Illustrator 27.1.1, SVG Export Plug-In . SVG Version: 6.00 Build 0)  -->
<svg version="1.1" id="Ebene_1" xmlns="http://www.w3.org/2000/svg" xmlns:xlink="http://www.w3.org/1999/xlink" x="0px" y="0px"
	 viewBox="0 0 470.2 495.8" style="enable-background:new 0 0 470.2 495.8;" xml:space="preserve">
<style type="text/css">
	.st0{fill:#C9B23E;}
	.st1{fill:#F3D448;}
	.st2{fill:#FFE14D;}
	.st3{fill:#E5C944;}
</style>
<g>
	<path class="st0" d="M249,14.2L276,63l142.7,85.8l-0.5,162.9l26.5,48.3V158.2l-21.1-36.5L249,14.2L249,14.2z"/>
	<path class="st1" d="M249,14.2L273.8,0l175.5,107.2l-25.5,14.2L249,14.2z"/>
	<path class="st2" d="M470.2,145.5l-21-38.2l-25.5,14.2l21,36.8L470.2,145.5z"/>
	<path class="st3" d="M470.2,345.8V145.5l-25.5,12.8V360L470.2,345.8z"/>
	<path d="M84.8,178.5h109.9v33.1h-36.8v101.1h-36.2V211.6H84.8V178.5z M211.5,178.5h97v28.6h-60.7v21.4h56.3v27.4h-56.3v26.5h62.5
		v30.4h-98.8V178.5z M330.8,178.5H370v134.2h-39.2V178.5z"/>
	<path class="st0" d="M0,150v201.8l21.8,37.5l174.8,106.5l-27-48L27,360.8V198L0,150z"/>
	<path class="st2" d="M24.8,135.8l27,49.5L27,198L0,150L24.8,135.8z"/>
	<path class="st3" d="M51.8,347.2v-162L27,198v162.8L51.8,347.2z"/>
	<path class="st1" d="M194.2,432.8L51.8,347.2L27,360.8l142.5,87L194.2,432.8z"/>
	<path class="st2" d="M221.2,480.8l-27-48l-24.8,15l27,48L221.2,480.8z"/>
</g>
</svg>
