<svg xmlns="http://www.w3.org/2000/svg" viewBox="0 0 235.93 314.58"><defs><style>.cls-1{fill:#1f2448;}.cls-2{fill:#08f;}.cls-3{fill:#fff;}</style></defs><g id="Ebene_2" data-name="Ebene 2"><g id="Ebene_1-2" data-name="Ebene 1"><path class="cls-1" d="M235.93,78.64V275.26a39.3,39.3,0,0,1-39.32,39.32H39.32A39.31,39.31,0,0,1,0,275.26V39.32A39.31,39.31,0,0,1,39.32,0h118V39.32a39.3,39.3,0,0,0,39.32,39.32Z"/><path class="cls-2" d="M235.93,78.64H196.61a39.3,39.3,0,0,1-39.32-39.32V0Z"/><rect class="cls-3" x="15.48" y="224.33" width="204.98" height="74.77" rx="23.84"/><path class="cls-2" d="M85.4,284.34a1.57,1.57,0,0,1-1.16-.44,1.61,1.61,0,0,1-.44-1.16v-34H72.21a1.48,1.48,0,0,1-1.09-.45,1.58,1.58,0,0,1-.44-1.15v-6a1.6,1.6,0,0,1,.44-1.15,1.48,1.48,0,0,1,1.09-.45h33.73a1.55,1.55,0,0,1,1.15.45,1.57,1.57,0,0,1,.45,1.15v6a1.54,1.54,0,0,1-1.6,1.6H94.36v34a1.58,1.58,0,0,1-.45,1.16,1.54,1.54,0,0,1-1.15.44Z"/><path class="cls-2" d="M114.31,284.34a1.54,1.54,0,0,1-1.15-.44,1.58,1.58,0,0,1-.45-1.16v-41.6a1.57,1.57,0,0,1,.45-1.15,1.55,1.55,0,0,1,1.15-.45H143.5a1.54,1.54,0,0,1,1.6,1.6v5.32a1.46,1.46,0,0,1-.45,1.08,1.57,1.57,0,0,1-1.15.45H122.82v9.73h19.27a1.5,1.5,0,0,1,1.15.48,1.67,1.67,0,0,1,.45,1.18v4.87a1.54,1.54,0,0,1-1.6,1.6H122.82v10H144a1.53,1.53,0,0,1,1.6,1.6v5.24a1.58,1.58,0,0,1-.45,1.16,1.54,1.54,0,0,1-1.15.44Z"/><path class="cls-2" d="M152.84,284.34a1.53,1.53,0,0,1-1.15-.44,1.58,1.58,0,0,1-.45-1.16v-41.6a1.57,1.57,0,0,1,.45-1.15,1.54,1.54,0,0,1,1.15-.45h7.55a1.58,1.58,0,0,1,1.12.45,1.52,1.52,0,0,1,.48,1.15v41.6a1.52,1.52,0,0,1-.48,1.16,1.57,1.57,0,0,1-1.12.44Z"/><path class="cls-3" d="M86.82,168.89a2.73,2.73,0,0,1-1-.25,5,5,0,0,1-1-.55L50.65,144.75a8.41,8.41,0,0,1-2.22-2,4.14,4.14,0,0,1-.7-2.43v-2.42a4.09,4.09,0,0,1,.7-2.48,10.57,10.57,0,0,1,2.22-2.07L84.8,110.09a6.91,6.91,0,0,1,1-.6,2.42,2.42,0,0,1,1-.3,2,2,0,0,1,2,2.12V119a3.12,3.12,0,0,1-.7,2.12,8.5,8.5,0,0,1-1.82,1.51L61.77,139.09l24.55,16.47A9.75,9.75,0,0,1,88.14,157a3.08,3.08,0,0,1,.7,2.17v7.68a1.87,1.87,0,0,1-.6,1.52A2.14,2.14,0,0,1,86.82,168.89Z"/><path class="cls-3" d="M96.76,183a1.94,1.94,0,0,1-1.41-.61,2,2,0,0,1-.61-1.51,4.57,4.57,0,0,1,.2-1.12l34.35-82.54a6.58,6.58,0,0,1,1.12-1.41,2.73,2.73,0,0,1,2-.71H139a2.15,2.15,0,0,1,1.47.61,2,2,0,0,1,.65,1.51,3.12,3.12,0,0,1-.3,1.12l-34.45,82.54a6.28,6.28,0,0,1-1,1.36,2.78,2.78,0,0,1-2.12.76Z"/><path class="cls-3" d="M149.11,168.89a2.14,2.14,0,0,1-1.42-.5,1.87,1.87,0,0,1-.6-1.52v-7.68a3.08,3.08,0,0,1,.7-2.17,9.43,9.43,0,0,1,1.82-1.46l24.55-16.47-24.55-16.47a8.26,8.26,0,0,1-1.82-1.51,3.12,3.12,0,0,1-.7-2.12v-7.68a2,2,0,0,1,2-2.12,2.57,2.57,0,0,1,1.11.3,6.91,6.91,0,0,1,1,.6l34.05,23.24a10.57,10.57,0,0,1,2.22,2.07,4.09,4.09,0,0,1,.7,2.48v2.42a4.14,4.14,0,0,1-.7,2.43,8.41,8.41,0,0,1-2.22,2l-34.05,23.34a5,5,0,0,1-1,.55A2.92,2.92,0,0,1,149.11,168.89Z"/></g></g></svg>