<svg xmlns="http://www.w3.org/2000/svg" viewBox="0 0 235.93 314.58"><defs><style>.cls-1{fill:#1f2448;}.cls-2{fill:#08f;}.cls-3{fill:#fff;}.cls-4{fill:none;}</style></defs><g id="Ebene_2" data-name="Ebene 2"><g id="Ebene_1-2" data-name="Ebene 1"><path class="cls-1" d="M235.93,78.64V275.26a39.3,39.3,0,0,1-39.32,39.32H39.32A39.31,39.31,0,0,1,0,275.26V39.32A39.31,39.31,0,0,1,39.32,0h118V39.32a39.3,39.3,0,0,0,39.32,39.32Z"/><path class="cls-2" d="M235.93,78.64H196.61a39.3,39.3,0,0,1-39.32-39.32V0Z"/><rect class="cls-3" x="15.48" y="224.33" width="204.98" height="74.77" rx="23.84"/><path class="cls-2" d="M73.42,284.34a1.54,1.54,0,0,1-1.15-.44,1.58,1.58,0,0,1-.45-1.16v-34H60.24a1.48,1.48,0,0,1-1.09-.45,1.55,1.55,0,0,1-.45-1.15v-6a1.57,1.57,0,0,1,.45-1.15,1.48,1.48,0,0,1,1.09-.45H94a1.54,1.54,0,0,1,1.6,1.6v6a1.55,1.55,0,0,1-.45,1.15,1.57,1.57,0,0,1-1.15.45H82.38v34a1.58,1.58,0,0,1-.45,1.16,1.54,1.54,0,0,1-1.15.44Z"/><path class="cls-2" d="M99.21,284.34a1.25,1.25,0,0,1-1-.41,1.37,1.37,0,0,1-.38-.93,1.21,1.21,0,0,1,.06-.38l.13-.39,14.15-20.73L99.09,241.66a1.34,1.34,0,0,1-.26-.77,1.29,1.29,0,0,1,.42-.93,1.25,1.25,0,0,1,.92-.42h8.2a1.93,1.93,0,0,1,1.37.45,5.21,5.21,0,0,1,.74.83l8.38,12.55,8.45-12.55a4.68,4.68,0,0,1,.77-.83,2,2,0,0,1,1.34-.45h7.75a1.26,1.26,0,0,1,1,.42,1.37,1.37,0,0,1,.38.93,1.47,1.47,0,0,1-.19.77l-13.19,19.77,14.21,20.8a.92.92,0,0,1,.16.39,2.34,2.34,0,0,1,0,.38,1.33,1.33,0,0,1-.38.93,1.25,1.25,0,0,1-1,.41h-8.45a2,2,0,0,1-1.34-.44,3.85,3.85,0,0,1-.71-.77l-9.21-13.19-9,13.19a7.89,7.89,0,0,1-.73.77,1.94,1.94,0,0,1-1.38.44Z"/><path class="cls-2" d="M156.56,284.34a1.51,1.51,0,0,1-1.6-1.6v-34H143.37a1.5,1.5,0,0,1-1.09-.45,1.58,1.58,0,0,1-.44-1.15v-6a1.6,1.6,0,0,1,.44-1.15,1.5,1.5,0,0,1,1.09-.45H177.1a1.55,1.55,0,0,1,1.15.45,1.57,1.57,0,0,1,.45,1.15v6a1.54,1.54,0,0,1-1.6,1.6H165.52v34a1.58,1.58,0,0,1-.45,1.16,1.54,1.54,0,0,1-1.15.44Z"/><path class="cls-3" d="M61.7,125.22a1,1,0,0,1-.72-.32,1,1,0,0,1-.32-.72,2,2,0,0,1,.05-.45L72.39,91.81a2,2,0,0,1,.63-1,1.89,1.89,0,0,1,1.31-.42h7.36a1.92,1.92,0,0,1,1.32.42,2,2,0,0,1,.62,1l11.64,31.92a1.06,1.06,0,0,1,.1.45,1,1,0,0,1-.33.72,1,1,0,0,1-.77.32H88.16a1.51,1.51,0,0,1-1.12-.37,1.75,1.75,0,0,1-.47-.67l-1.94-5.07H71.35l-1.89,5.07a1.91,1.91,0,0,1-.45.67,1.57,1.57,0,0,1-1.19.37ZM73.39,112h9.25L78,98.82Z"/><rect class="cls-4" x="200.25" y="118.7" width="11.96" height="9.43"/><rect class="cls-4" x="200.25" y="109.27" width="11.96" height="9.43"/><rect class="cls-4" x="200.25" y="99.84" width="11.96" height="9.43"/><rect class="cls-4" x="200.25" y="90.42" width="11.96" height="9.43"/><rect class="cls-4" x="200.25" y="156.4" width="11.96" height="9.43"/><rect class="cls-4" x="200.25" y="146.97" width="11.96" height="9.43"/><rect class="cls-4" x="200.25" y="137.55" width="11.96" height="9.43"/><rect class="cls-4" x="200.25" y="128.12" width="11.96" height="9.43"/><rect class="cls-4" x="200.25" y="194.11" width="11.96" height="9.43"/><rect class="cls-4" x="200.25" y="184.68" width="11.96" height="9.43"/><rect class="cls-4" x="200.25" y="175.25" width="11.96" height="9.43"/><rect class="cls-4" x="200.25" y="165.83" width="11.96" height="9.43"/><rect class="cls-3" x="101.62" y="117.53" width="73.63" height="7.04"/><rect class="cls-3" x="101.62" y="103.39" width="73.63" height="7.04"/><rect class="cls-3" x="101.62" y="90.21" width="73.63" height="6.08"/><rect class="cls-3" x="61.2" y="174.09" width="73.64" height="7.03"/><rect class="cls-3" x="61.2" y="159.95" width="114.05" height="7.04"/><rect class="cls-3" x="61.2" y="145.81" width="114.05" height="7.04"/><rect class="cls-3" x="61.2" y="131.67" width="114.05" height="7.04"/></g></g></svg>