<?xml version="1.0" encoding="UTF-8"?>
<svg id="Ebene_2" data-name="Ebene 2" xmlns="http://www.w3.org/2000/svg" viewBox="0 0 396.85 139.53">
  <defs>
    <style>
      .cls-1 {
        fill: #01ecb5;
      }

      .cls-2, .cls-3 {
        fill: #32236c;
      }

      .cls-3 {
        fill-rule: evenodd;
      }
    </style>
  </defs>
  <g id="Layer_1" data-name="Layer 1">
    <g>
      <g>
        <path class="cls-2" d="M27.93,126.06c-7.46,0-12.71-6.24-12.71-14.23v-.15c0-7.76,5.25-14.08,12.71-14.08,5.1,0,8.6,2.44,11.64,6.24l11.11-8.6c-4.72-6.55-11.72-11.11-22.6-11.11-16.13,0-28.08,12.17-28.08,27.7v.15c0,15.9,12.25,27.55,27.47,27.55,11.79,0,18.57-5.1,23.59-12.02l-11.11-7.91c-3.2,3.88-6.47,6.47-12.02,6.47Z"/>
        <polygon class="cls-2" points="72.13 85.2 57.37 85.2 57.37 138.47 97.92 138.47 97.92 125.53 72.13 125.53 72.13 85.2"/>
        <path class="cls-2" d="M126.83,105.29c-7.38-1.67-9.21-2.74-9.21-5.17v-.15c0-1.9,1.75-3.42,5.33-3.42,4.72,0,10.04,1.82,14.91,5.25l7.38-10.42c-5.78-4.64-12.86-7.08-21.92-7.08-12.78,0-20.62,7.15-20.62,17.05v.15c0,10.96,8.75,14.15,20.09,16.74,7.23,1.67,8.98,2.89,8.98,5.1v.15c0,2.28-2.13,3.65-6.09,3.65-6.16,0-12.02-2.21-17.27-6.39l-8.22,9.82c6.55,5.86,15.52,8.83,24.96,8.83,12.94,0,21.53-6.47,21.53-17.35v-.15c0-9.97-7.61-13.93-19.86-16.59Z"/>
      </g>
      <g>
        <rect class="cls-1" x="154.14" y="85.2" width="14.84" height="53.27"/>
        <polygon class="cls-1" points="214.4 113.36 192.49 85.2 178.71 85.2 178.71 138.47 193.32 138.47 193.32 109.25 216.08 138.47 229.01 138.47 229.01 85.2 214.4 85.2 214.4 113.36"/>
        <polygon class="cls-1" points="238.44 138.47 253.2 138.47 253.2 119.44 278.39 119.44 278.39 107.19 253.2 107.19 253.2 98.14 281.05 98.14 281.05 85.2 238.44 85.2 238.44 138.47"/>
        <path class="cls-1" d="M334.99,103.54v-.15c0-5.25-1.6-9.36-4.72-12.4-3.58-3.65-9.21-5.78-17.35-5.78h-25.19v53.27h14.76v-16.13h6.47l10.73,16.13h17.04l-12.71-18.57c6.62-2.82,10.96-8.22,10.96-16.36ZM320.15,104.45c0,3.88-2.89,6.32-7.91,6.32h-9.74v-12.78h9.66c4.95,0,7.99,2.13,7.99,6.32v.15Z"/>
        <path class="cls-1" d="M374.17,84.82h-14.23l-22.68,53.65h15.52l3.8-9.51h20.55l3.88,9.51h15.83l-22.68-53.65ZM360.93,117.47l6.01-15.14,5.94,15.14h-11.95Z"/>
      </g>
      <g>
        <polygon class="cls-3" points="246.27 28.91 232.94 21.9 232.94 32.19 253.45 42.98 232.94 53.78 232.94 64.07 246.27 57.06 264.13 47.66 264.13 38.31 246.27 28.91"/>
        <polygon class="cls-3" points="132.72 38.31 132.72 47.66 150.58 57.06 163.92 64.07 163.92 53.78 143.4 42.98 163.92 32.19 163.92 21.9 150.58 28.91 132.72 38.31"/>
      </g>
      <rect class="cls-1" x="172.58" width="9.72" height="64.07"/>
      <rect class="cls-1" x="188.17" y="9.44" width="9.72" height="54.63"/>
      <rect class="cls-1" x="213.82" y=".84" width="10.51" height="64.32" transform="translate(22.22 -68.65) rotate(18.74)"/>
    </g>
  </g>
</svg>