<svg xmlns="http://www.w3.org/2000/svg" xmlns:xlink="http://www.w3.org/1999/xlink" viewBox="0 0 384 384"><defs><style>.cls-1{fill:none;}.cls-2{clip-path:url(#clip-path);}.cls-3{fill:#1f2447;}</style><clipPath id="clip-path" transform="translate(0 0)"><rect class="cls-1" width="384" height="384"/></clipPath></defs><title>DraCor-Symbol-Square-Blue</title><g id="Layer_2" data-name="Layer 2"><g id="Layer_1-2" data-name="Layer 1"><g id="Vektor-Smartobjekt"><g class="cls-2"><g class="cls-2"><path class="cls-3" d="M378.47,146A192.23,192.23,0,0,0,192,0H0V384H192A192.23,192.23,0,0,0,378.47,238.05a194.5,194.5,0,0,0,0-92.1M192,347.51H36.49V210.25H71.6a121.84,121.84,0,0,0,233.18,27.8h-41a85.29,85.29,0,1,1-11.51-106.34A86.09,86.09,0,0,1,263.8,146h41A121.81,121.81,0,0,0,71.6,173.76H36.49V36.49H192c69.73,0,128.88,46.12,148.55,109.46q2.13,6.84,3.62,13.91c1,4.56,1.73,9.2,2.27,13.9H240.84a50.2,50.2,0,0,0-2.38-5.43c-.48-.94-1-1.86-1.54-2.77a50.8,50.8,0,0,0-3.89-5.7,49.82,49.82,0,0,0-4.17-4.71,52,52,0,0,0-61.31-9.2c-1.14.6-2.26,1.26-3.35,2a51.23,51.23,0,0,0-9,7.25,52.09,52.09,0,0,0,0,73.71,51.17,51.17,0,0,0,9,7.24l3.34,2a52.07,52.07,0,0,0,61.32-9.19,50,50,0,0,0,4.18-4.72,52.26,52.26,0,0,0,3.47-5c.7-1.14,1.35-2.3,2-3.49a48.31,48.31,0,0,0,2.38-5.43h105.6c-.54,4.7-1.31,9.34-2.27,13.9q-1.49,7.08-3.62,13.91C320.88,301.39,261.73,347.51,192,347.51" transform="translate(0 0)"/></g></g></g></g></g></svg>