<svg version="1.1" id="Ebene_1" xmlns="http://www.w3.org/2000/svg" xmlns:xlink="http://www.w3.org/1999/xlink" x="0px" y="0px"
	 viewBox="0 0 384 384" style="enable-background:new 0 0 384 384;" xml:space="preserve">
<style type="text/css">
	.cls-4{fill:#FFFFFF;}
</style>
<title>DraCor-Symbol-Square-White</title>
<g id="Layer_2">
	<g id="Layer_1-2">
		<path class="cls-4" d="M377.7,143C355.4,58.7,279.2,0,192,0H0v384h192c106.2-0.1,192.1-86.3,192-192.5
			C384,175.1,381.9,158.8,377.7,143z M157.7,226.3c18.9,19,49.7,19,68.6,0c0,0,0,0,0,0c0.7-0.7,1.4-1.4,2-2.1
			c4.3-4.9,7.6-10.6,9.7-16.8h114.4c-0.5,5.6-1.4,11.2-2.5,16.8c-1.2,5.7-2.6,11.3-4.4,16.8c-20.8,65-81.7,112.1-153.5,112.1H30.9
			V207.4h38.4c8.6,67.8,70.5,115.8,138.3,107.2c43.4-5.5,80.7-33.5,98-73.6h-42.2c-27.1,39.4-80.9,49.3-120.3,22.3
			S93.9,182.4,120.9,143s80.9-49.3,120.3-22.3c8.7,6,16.3,13.6,22.3,22.3h42.2c-27-62.7-99.8-91.7-162.5-64.7
			c-40.3,17.3-68.4,54.7-73.8,98.2H30.9V30.9H192c71.8,0,132.7,47.2,153.5,112.1c1.8,5.5,3.2,11.1,4.4,16.8c1.1,5.5,2,11.1,2.5,16.8
			H238c-2.1-6.2-5.4-11.9-9.7-16.8c-0.6-0.7-1.3-1.4-2-2.1c-19-18.9-49.7-18.9-68.7,0.1C138.7,176.7,138.7,207.4,157.7,226.3
			L157.7,226.3z"/>
	</g>
</g>
</svg>
