<?xml version="1.0" encoding="utf-8"?>
<!-- Generator: $$$/GeneralStr/196=Adobe Illustrator 27.6.0, SVG Export Plug-In . SVG Version: 6.00 Build 0)  -->
<svg version="1.1" id="Ebene_1" xmlns="http://www.w3.org/2000/svg" xmlns:xlink="http://www.w3.org/1999/xlink" x="0px" y="0px"
	 viewBox="0 0 96.689 30.695" style="enable-background:new 0 0 96.689 30.695;" xml:space="preserve">
<g>
	<path d="M71.051,15.218c0.018,2.132,2.178,2.403,2.936,2.403c1.487,0,3.086-0.561,3.086-2.3c0-1.225-0.936-1.665-1.88-1.927
		c-0.945-0.261-1.898-0.364-1.935-0.841c0-0.374,0.458-0.449,0.738-0.449c0.206,0,0.44,0.047,0.608,0.168
		c0.168,0.112,0.281,0.281,0.243,0.533h1.945c-0.056-1.627-1.337-2.178-2.787-2.178c-1.375,0-2.692,0.664-2.692,2.207
		c0,1.346,1.206,1.636,2.262,1.935c1.15,0.327,1.44,0.421,1.44,0.767c0,0.496-0.514,0.608-0.85,0.608
		c-0.384,0-0.833-0.085-0.982-0.486c-0.047-0.122-0.076-0.271-0.076-0.44H71.051z M63.953,17.463h5.629v-1.712H66.01v-0.832h3.152
		v-1.591H66.01v-0.831h3.47v-1.712h-5.527V17.463z M59.904,17.463h2.057v-6.677h-2.057V17.463z M54.283,17.463h2.058v-4.966h1.87
		v-1.712h-5.798v1.712h1.87V17.463z M48.673,17.463h2.057v-6.677h-2.057V17.463z M40.921,17.463h1.374v-4.471h0.019l2.778,4.471
		h1.467v-6.678h-1.375v4.48h-0.018l-2.787-4.48h-1.458V17.463z M33.224,15.059c0,1.711,1.094,2.562,2.741,2.562
		c1.645,0,2.739-0.851,2.739-2.562v-4.274h-1.168v3.891c0,0.898-0.056,1.936-1.571,1.936c-1.516,0-1.572-1.038-1.572-1.936v-3.891
		h-1.169V15.059z M24.257,17.463h0.841v-5.555h0.019l2.085,5.555h0.758l2.085-5.555h0.019v5.555h0.842v-6.678h-1.217l-2.113,5.611
		l-2.104-5.611h-1.215V17.463z M15.625,17.463h0.636v-5.771h0.019l2.291,5.771h0.598l2.282-5.771h0.019v5.771h0.636v-6.678H21.17
		l-2.299,5.854l-2.311-5.854h-0.935V17.463z M7.808,14.124c0-1.712,1.019-3.142,2.767-3.142c1.74,0,2.76,1.43,2.76,3.142
		c0,1.711-1.02,3.142-2.76,3.142C8.827,17.266,7.808,15.835,7.808,14.124 M13.745,14.124c0-1.954-1.178-3.497-3.17-3.497
		c-2,0-3.179,1.543-3.179,3.497c0,1.954,1.179,3.497,3.179,3.497C12.567,17.621,13.745,16.078,13.745,14.124 M5.769,14.844
		c-0.206,1.477-1.141,2.59-2.75,2.59c-1.804,0-2.833-1.552-2.833-3.254c0-1.384,0.758-3.367,2.955-3.367
		c1.459,0,2.394,1.01,2.478,1.974h0.187c-0.028-0.823-0.898-2.16-2.665-2.16C0.868,10.627,0,12.562,0,14.18
		c0,2.001,1.243,3.441,3.019,3.441c1.684,0,2.713-1.15,2.937-2.777H5.769z"/>
	<path d="M92.736,6.649v-6.49H92.55v6.677h4.086V6.649H92.736z M86.873,4.339l1.487-3.778h0.019l1.431,3.778H86.873z M88.136,0.159
		l-2.684,6.677h0.439l0.851-2.142h3.199l0.841,2.142h0.439l-2.636-6.677H88.136z M80.075,3.375V0.701h2.011
		c0.982,0,1.486,0.477,1.486,1.338c0,0.841-0.448,1.336-1.515,1.336H80.075z M79.448,6.836h0.627V3.909h2.169l1.515,2.927h0.692
		l-1.589-3.011c0.851-0.234,1.337-0.86,1.337-1.805c0-0.552-0.159-0.973-0.468-1.291c-0.345-0.364-0.842-0.579-1.562-0.579h-2.721
		V6.836z M72.425,3.497c0-1.346,0.683-2.749,2.311-2.749c1.627,0,2.309,1.403,2.309,2.749c0,1.348-0.682,2.749-2.309,2.749
		C73.108,6.246,72.425,4.845,72.425,3.497 M71.537,3.497c0,1.815,1.075,3.498,3.199,3.498c2.122,0,3.198-1.683,3.198-3.498
		C77.934,1.683,76.858,0,74.736,0C72.612,0,71.537,1.683,71.537,3.497 M65.187,6.836h1.169V4.273h1.777
		c1.908,0.01,2.272-1.225,2.272-2.047c0-0.832-0.364-2.067-2.272-2.067h-2.946V6.836z M66.356,1.113h1.731
		c0.616,0,1.15,0.224,1.15,1.103c0,0.842-0.645,1.104-1.169,1.104h-1.712V1.113z M55.892,6.836h1.375V2.151h0.019l1.636,4.685h1.132
		l1.636-4.732h0.019v4.732h1.375V0.159h-2.067L59.539,4.75H59.52l-1.561-4.591h-2.067V6.836z M48.505,6.836h5.414V5.339h-3.675
		V4.068h3.273V2.721h-3.273V1.552h3.582V0.159h-5.321V6.836z M42.819,6.836h2.057V1.87h1.871V0.159h-5.798V1.87h1.87V6.836z"/>
	<path d="M95.141,25.963h1.548v-0.249h-1.251v-0.771h1.158v-0.25h-1.158v-0.709h1.241v-0.248h-1.538V25.963z M94.713,23.736h-0.308
		l-0.643,1.931h-0.006l-0.637-1.931h-0.321l0.786,2.227h0.337L94.713,23.736z M92.069,25.963h0.296v-2.227h-0.296V25.963z
		 M90.592,25.963h0.296v-1.979h0.743v-0.248h-1.782v0.248h0.743V25.963z M89.534,24.406c-0.069-0.474-0.452-0.724-0.917-0.724
		c-0.687,0-1.055,0.527-1.055,1.173c0,0.65,0.337,1.161,1.029,1.161c0.562,0,0.909-0.337,0.965-0.892H89.26
		c-0.029,0.368-0.253,0.643-0.643,0.643c-0.534,0-0.758-0.424-0.758-0.933c0-0.465,0.224-0.902,0.755-0.902
		c0.308,0,0.561,0.158,0.624,0.474H89.534z M85.629,25.963h1.547v-0.249h-1.251v-0.771h1.158v-0.25h-1.158v-0.709h1.242v-0.248
		h-1.538V25.963z M83.775,23.984h0.581c0.334,0,0.487,0.144,0.487,0.41c0,0.265-0.153,0.412-0.487,0.409h-0.581V23.984z
		 M83.479,25.963h0.296v-0.911h0.681c0.443,0.003,0.683-0.246,0.683-0.658c0-0.413-0.24-0.658-0.683-0.658h-0.977V25.963z
		 M82.84,24.388c-0.019-0.491-0.365-0.706-0.821-0.706c-0.406,0-0.808,0.2-0.808,0.652c0,0.409,0.359,0.512,0.715,0.59
		c0.356,0.078,0.712,0.131,0.712,0.437c0,0.321-0.297,0.406-0.566,0.406c-0.337,0-0.649-0.162-0.649-0.537h-0.28
		c0,0.543,0.421,0.786,0.92,0.786c0.406,0,0.87-0.19,0.87-0.664c0-0.438-0.355-0.562-0.71-0.643
		c-0.36-0.081-0.715-0.122-0.715-0.397c0-0.29,0.249-0.38,0.499-0.38c0.306,0,0.518,0.138,0.552,0.456H82.84z M79.31,23.972h0.678
		c0.296,0,0.449,0.138,0.449,0.41c0,0.283-0.15,0.417-0.466,0.417H79.31V23.972z M80.458,25.963h0.319l-0.549-0.964
		c0.302-0.078,0.486-0.312,0.486-0.629c0-0.169-0.056-0.316-0.149-0.425c-0.115-0.138-0.297-0.216-0.531-0.216H79.03v2.234h0.28
		v-0.936h0.637L80.458,25.963z M76.987,25.963h1.547v-0.249h-1.251v-0.771h1.158v-0.25h-1.158v-0.709h1.242v-0.248h-1.538V25.963z
		 M75.133,23.984h0.581c0.334,0,0.487,0.144,0.487,0.41c0,0.265-0.153,0.412-0.487,0.409h-0.581V23.984z M74.837,25.963h0.296
		v-0.911h0.681c0.443,0.003,0.682-0.246,0.682-0.658c0-0.413-0.239-0.658-0.682-0.658h-0.977V25.963z M71.66,25.963h1.476v-0.249
		h-1.179v-1.978H71.66V25.963z M70.2,24.004h0.006l0.372,1.039h-0.756L70.2,24.004z M69.174,25.963h0.305l0.25-0.671h0.942
		l0.243,0.671h0.328l-0.87-2.227h-0.328L69.174,25.963z M67.436,23.984h0.593c0.255,0,0.474,0.044,0.474,0.353
		c0,0.235-0.138,0.356-0.474,0.356h-0.593V23.984z M67.139,25.963h1.077c0.443,0,0.677-0.311,0.677-0.64
		c0-0.275-0.15-0.48-0.424-0.536v-0.006c0.205-0.085,0.33-0.262,0.33-0.5c0-0.218-0.116-0.378-0.262-0.464
		c-0.134-0.081-0.393-0.081-0.59-0.081h-0.808V25.963z M67.436,24.943h0.677c0.249,0,0.484,0.081,0.484,0.371
		c0,0.243-0.163,0.4-0.419,0.4h-0.742V24.943z M64.753,24.849c0-0.449,0.227-0.917,0.771-0.917c0.542,0,0.77,0.468,0.77,0.917
		s-0.228,0.918-0.77,0.918C64.98,25.767,64.753,25.298,64.753,24.849 M64.456,24.849c0,0.606,0.359,1.167,1.068,1.167
		c0.708,0,1.066-0.561,1.066-1.167c0-0.605-0.358-1.167-1.066-1.167C64.815,23.682,64.456,24.244,64.456,24.849 M62.739,25.963
		h1.476v-0.249h-1.181v-1.978h-0.295V25.963z M61.921,25.963h0.186V24.79h-0.976v0.249h0.711c0.019,0.406-0.256,0.728-0.715,0.728
		c-0.496,0-0.764-0.425-0.764-0.89c0-0.477,0.225-0.945,0.764-0.945c0.332,0,0.603,0.153,0.663,0.49h0.295
		c-0.083-0.522-0.47-0.74-0.958-0.74c-0.704,0-1.06,0.562-1.06,1.211c0,0.581,0.396,1.123,1.06,1.123
		c0.263,0,0.544-0.096,0.715-0.331L61.921,25.963z M57.474,24.004h0.006l0.371,1.039h-0.754L57.474,24.004z M56.447,25.963h0.306
		l0.249-0.671h0.943l0.243,0.671h0.328l-0.871-2.227h-0.328L56.447,25.963z M53.015,25.963h0.28v-1.788h0.006l1.165,1.788h0.324
		v-2.227h-0.281v1.806h-0.006l-1.173-1.806h-0.315V25.963z M52.052,25.963h0.296v-2.227h-0.296V25.963z M48.691,25.963h1.548v-0.249
		h-1.251v-0.771h1.157v-0.25h-1.157v-0.709h1.241v-0.248h-1.538V25.963z M46.718,23.972h0.677c0.296,0,0.45,0.138,0.45,0.41
		c0,0.283-0.151,0.417-0.466,0.417h-0.661V23.972z M47.867,25.963h0.318l-0.55-0.964c0.303-0.078,0.487-0.312,0.487-0.629
		c0-0.169-0.056-0.316-0.15-0.425c-0.115-0.138-0.296-0.216-0.531-0.216h-1.004v2.234h0.281v-0.936h0.637L47.867,25.963z
		 M45.8,23.736h-0.296v1.422c0,0.393-0.206,0.609-0.581,0.609c-0.393,0-0.617-0.216-0.617-0.609v-1.422h-0.297v1.422
		c0,0.593,0.34,0.858,0.914,0.858c0.556,0,0.877-0.296,0.877-0.858V23.736z M42.544,25.963h0.296v-1.979h0.743v-0.248h-1.781v0.248
		h0.742V25.963z M40.833,24.004h0.006l0.371,1.039h-0.754L40.833,24.004z M39.806,25.963h0.306l0.25-0.671h0.942l0.244,0.671h0.327
		l-0.871-2.227h-0.327L39.806,25.963z M37.994,23.972h0.678c0.297,0,0.449,0.138,0.449,0.41c0,0.283-0.149,0.417-0.464,0.417h-0.663
		V23.972z M39.143,25.963h0.318l-0.548-0.964c0.302-0.078,0.486-0.312,0.486-0.629c0-0.169-0.056-0.316-0.15-0.425
		c-0.115-0.138-0.296-0.216-0.53-0.216h-1.005v2.234h0.28v-0.936h0.637L39.143,25.963z M35.671,25.963h1.548v-0.249h-1.251v-0.771
		h1.158v-0.25h-1.158v-0.709h1.241v-0.248h-1.538V25.963z M34.2,25.963h0.296v-1.979h0.743v-0.248h-1.781v0.248H34.2V25.963z
		 M32.726,25.963h0.296v-2.227h-0.296V25.963z M30.807,25.963h1.476v-0.249h-1.18v-1.978h-0.296V25.963z M28.741,25.963h0.187V24.79
		h-0.976v0.249h0.711c0.019,0.406-0.256,0.728-0.714,0.728c-0.497,0-0.765-0.425-0.765-0.89c0-0.477,0.225-0.945,0.765-0.945
		c0.33,0,0.602,0.153,0.661,0.49h0.297c-0.084-0.522-0.471-0.74-0.958-0.74c-0.705,0-1.061,0.562-1.061,1.211
		c0,0.581,0.396,1.123,1.061,1.123c0.262,0,0.543-0.096,0.714-0.331L28.741,25.963z M24.561,25.963h0.28v-1.788h0.006l1.165,1.788
		h0.324v-2.227h-0.28v1.806h-0.007l-1.173-1.806h-0.315V25.963z M23.598,25.963h0.296v-2.227h-0.296V25.963z M21.201,24.849
		c0-0.449,0.227-0.917,0.771-0.917c0.543,0,0.771,0.468,0.771,0.917s-0.228,0.918-0.771,0.918
		C21.428,25.767,21.201,25.298,21.201,24.849 M20.905,24.849c0,0.606,0.358,1.167,1.067,1.167s1.067-0.561,1.067-1.167
		c0-0.605-0.358-1.167-1.067-1.167S20.905,24.244,20.905,24.849 M18.93,23.984h0.5c0.546,0,0.743,0.322,0.743,0.853
		c0,0.821-0.547,0.877-0.75,0.877H18.93V23.984z M18.634,25.963h0.764c0.743,0,1.07-0.421,1.07-1.167c0-0.717-0.383-1.06-1.07-1.06
		h-0.764V25.963z"/>
	<path d="M82.279,30.642h1.691V30.23h-1.201v-0.546h1.08v-0.38h-1.08v-0.478h1.176v-0.411h-1.666V30.642z M81.832,29.163
		c-0.059-0.515-0.47-0.802-0.96-0.802c-0.69,0-1.095,0.515-1.095,1.176c0,0.644,0.405,1.158,1.095,1.158
		c0.546,0,0.93-0.356,0.979-0.911h-0.474c-0.037,0.294-0.206,0.499-0.505,0.499c-0.441,0-0.606-0.374-0.606-0.746
		c0-0.39,0.165-0.764,0.606-0.764c0.243,0,0.455,0.168,0.487,0.39H81.832z M77.462,30.642h0.458v-1.491h0.006l0.928,1.491h0.489
		v-2.227h-0.458v1.494h-0.006l-0.931-1.494h-0.486V30.642z M75.318,30.642h1.69V30.23h-1.201v-0.546h1.08v-0.38h-1.08v-0.478h1.176
		v-0.411h-1.665V30.642z M73.396,30.642h1.575V30.23h-1.086v-1.815h-0.489V30.642z M71.474,30.642h1.575V30.23h-1.086v-1.815h-0.489
		V30.642z M69.329,30.642h1.691V30.23h-1.201v-0.546h1.079v-0.38h-1.079v-0.478h1.176v-0.411h-1.666V30.642z M68.883,29.163
		c-0.059-0.515-0.472-0.802-0.961-0.802c-0.69,0-1.095,0.515-1.095,1.176c0,0.644,0.405,1.158,1.095,1.158
		c0.546,0,0.93-0.356,0.979-0.911h-0.474c-0.037,0.294-0.206,0.499-0.505,0.499c-0.44,0-0.606-0.374-0.606-0.746
		c0-0.39,0.166-0.764,0.606-0.764c0.243,0,0.456,0.168,0.487,0.39H68.883z M64.611,30.642h0.552l0.496-0.771l0.487,0.771h0.584
		l-0.777-1.164l0.714-1.063H66.13l-0.452,0.711l-0.437-0.711h-0.567l0.717,1.06L64.611,30.642z M62.66,30.642h1.691V30.23h-1.2
		v-0.546h1.079v-0.38h-1.079v-0.478h1.175v-0.411H62.66V30.642z M59.755,30.642h0.49v-0.921h0.933v-0.38h-0.933v-0.515h1.077v-0.411
		h-1.567V30.642z M57.619,29.537c0-0.39,0.166-0.764,0.606-0.764s0.606,0.374,0.606,0.764c0,0.372-0.166,0.746-0.606,0.746
		S57.619,29.909,57.619,29.537 M57.131,29.537c0,0.644,0.404,1.158,1.094,1.158s1.095-0.514,1.095-1.158
		c0-0.661-0.405-1.176-1.095-1.176S57.131,28.876,57.131,29.537 M54.552,28.804h0.475c0.224,0,0.355,0.1,0.355,0.303
		c0,0.197-0.124,0.306-0.361,0.306h-0.469V28.804z M55.438,30.642h0.525l-0.558-0.914c0.28-0.094,0.442-0.312,0.442-0.624
		c0-0.2-0.075-0.356-0.199-0.484c-0.132-0.134-0.325-0.208-0.584-0.208h-0.98v2.23h0.468v-0.861h0.368L55.438,30.642z
		 M51.962,30.642h1.691V30.23h-1.202v-0.546h1.08v-0.38h-1.08v-0.478h1.177v-0.411h-1.666V30.642z M50.467,30.642h0.49v-1.816h0.668
		v-0.411h-1.826v0.411h0.668V30.642z M47.707,29.902c-0.006,0.55,0.455,0.793,0.949,0.793c0.605,0,0.926-0.305,0.926-0.714
		c0-0.506-0.499-0.608-0.661-0.65c-0.559-0.143-0.665-0.165-0.665-0.336c0-0.187,0.181-0.253,0.337-0.253
		c0.234,0,0.425,0.068,0.441,0.336h0.473c0-0.514-0.427-0.717-0.892-0.717c-0.402,0-0.833,0.218-0.833,0.674
		c0,0.418,0.333,0.546,0.664,0.634c0.328,0.087,0.662,0.128,0.662,0.368c0,0.228-0.262,0.278-0.434,0.278
		c-0.262,0-0.493-0.115-0.493-0.413H47.707z M47.323,28.415h-0.489V29.8c0,0.331-0.113,0.483-0.463,0.483
		c-0.396,0-0.458-0.24-0.458-0.483v-1.385h-0.49V29.8c0,0.605,0.35,0.895,0.948,0.895c0.597,0,0.952-0.293,0.952-0.895V28.415z
		 M43.535,30.642h1.576V30.23h-1.086v-1.815h-0.49V30.642z M43.089,29.163c-0.059-0.515-0.471-0.802-0.961-0.802
		c-0.69,0-1.095,0.515-1.095,1.176c0,0.644,0.405,1.158,1.095,1.158c0.546,0,0.93-0.356,0.98-0.911h-0.475
		c-0.037,0.294-0.206,0.499-0.505,0.499c-0.44,0-0.605-0.374-0.605-0.746c0-0.39,0.165-0.764,0.605-0.764
		c0.243,0,0.456,0.168,0.487,0.39H43.089z"/>
</g>
</svg>
