<?xml version="1.0" encoding="utf-8"?>
<!-- Generator: $$$/GeneralStr/196=Adobe Illustrator 27.6.0, SVG Export Plug-In . SVG Version: 6.00 Build 0)  -->
<svg version="1.1" id="Ebene_1" xmlns="http://www.w3.org/2000/svg" xmlns:xlink="http://www.w3.org/1999/xlink" x="0px" y="0px"
	 viewBox="0 0 96.7 30.7" style="enable-background:new 0 0 96.7 30.7;" xml:space="preserve">
<g>
	<path d="M71.1,15.2c0,2.1,2.2,2.4,2.9,2.4c1.5,0,3.1-0.6,3.1-2.3c0-1.2-0.9-1.7-1.9-1.9c-0.9-0.3-1.9-0.4-1.9-0.8
		c0-0.4,0.5-0.4,0.7-0.4c0.2,0,0.4,0,0.6,0.2c0.2,0.1,0.3,0.3,0.2,0.5h1.9c-0.1-1.6-1.3-2.2-2.8-2.2c-1.4,0-2.7,0.7-2.7,2.2
		c0,1.3,1.2,1.6,2.3,1.9c1.1,0.3,1.4,0.4,1.4,0.8c0,0.5-0.5,0.6-0.8,0.6c-0.4,0-0.8-0.1-1-0.5c0-0.1-0.1-0.3-0.1-0.4H71.1z M64,17.5
		h5.6v-1.7H66v-0.8h3.2v-1.6H66v-0.8h3.5v-1.7H64V17.5z M59.9,17.5H62v-6.7h-2.1V17.5z M54.3,17.5h2.1v-5h1.9v-1.7h-5.8v1.7h1.9
		V17.5z M48.7,17.5h2.1v-6.7h-2.1V17.5z M40.9,17.5h1.4V13h0l2.8,4.5h1.5v-6.7h-1.4v4.5h0l-2.8-4.5h-1.5V17.5z M33.2,15.1
		c0,1.7,1.1,2.6,2.7,2.6c1.6,0,2.7-0.9,2.7-2.6v-4.3h-1.2v3.9c0,0.9-0.1,1.9-1.6,1.9c-1.5,0-1.6-1-1.6-1.9v-3.9h-1.2V15.1z
		 M24.3,17.5h0.8v-5.6h0l2.1,5.6H28l2.1-5.6h0v5.6h0.8v-6.7h-1.2l-2.1,5.6l-2.1-5.6h-1.2V17.5z M15.6,17.5h0.6v-5.8h0l2.3,5.8h0.6
		l2.3-5.8h0v5.8h0.6v-6.7h-0.9l-2.3,5.9l-2.3-5.9h-0.9V17.5z M7.8,14.1c0-1.7,1-3.1,2.8-3.1c1.7,0,2.8,1.4,2.8,3.1
		c0,1.7-1,3.1-2.8,3.1C8.8,17.3,7.8,15.8,7.8,14.1 M13.7,14.1c0-2-1.2-3.5-3.2-3.5c-2,0-3.2,1.5-3.2,3.5c0,2,1.2,3.5,3.2,3.5
		C12.6,17.6,13.7,16.1,13.7,14.1 M5.8,14.8c-0.2,1.5-1.1,2.6-2.8,2.6c-1.8,0-2.8-1.6-2.8-3.3c0-1.4,0.8-3.4,3-3.4c1.5,0,2.4,1,2.5,2
		h0.2c0-0.8-0.9-2.2-2.7-2.2c-2.3,0-3.1,1.9-3.1,3.6c0,2,1.2,3.4,3,3.4c1.7,0,2.7-1.2,2.9-2.8H5.8z"/>
	<path d="M92.7,6.6V0.2h-0.2v6.7h4.1V6.6H92.7z M86.9,4.3l1.5-3.8h0l1.4,3.8H86.9z M88.1,0.2l-2.7,6.7h0.4l0.9-2.1h3.2l0.8,2.1h0.4
		l-2.6-6.7H88.1z M80.1,3.4V0.7h2c1,0,1.5,0.5,1.5,1.3c0,0.8-0.4,1.3-1.5,1.3H80.1z M79.4,6.8h0.6V3.9h2.2l1.5,2.9h0.7l-1.6-3
		C83.7,3.6,84.2,3,84.2,2c0-0.6-0.2-1-0.5-1.3c-0.3-0.4-0.8-0.6-1.6-0.6h-2.7V6.8z M72.4,3.5c0-1.3,0.7-2.7,2.3-2.7
		c1.6,0,2.3,1.4,2.3,2.7c0,1.3-0.7,2.7-2.3,2.7C73.1,6.2,72.4,4.8,72.4,3.5 M71.5,3.5c0,1.8,1.1,3.5,3.2,3.5c2.1,0,3.2-1.7,3.2-3.5
		c0-1.8-1.1-3.5-3.2-3.5C72.6,0,71.5,1.7,71.5,3.5 M65.2,6.8h1.2V4.3h1.8c1.9,0,2.3-1.2,2.3-2c0-0.8-0.4-2.1-2.3-2.1h-2.9V6.8z
		 M66.4,1.1h1.7c0.6,0,1.2,0.2,1.2,1.1c0,0.8-0.6,1.1-1.2,1.1h-1.7V1.1z M55.9,6.8h1.4V2.2h0l1.6,4.7h1.1l1.6-4.7h0v4.7h1.4V0.2H61
		l-1.5,4.6h0L58,0.2h-2.1V6.8z M48.5,6.8h5.4V5.3h-3.7V4.1h3.3V2.7h-3.3V1.6h3.6V0.2h-5.3V6.8z M42.8,6.8h2.1v-5h1.9V0.2h-5.8v1.7
		h1.9V6.8z"/>
	<path d="M95.1,26h1.5v-0.2h-1.3v-0.8h1.2v-0.2h-1.2V24h1.2v-0.2h-1.5V26z M94.7,23.7h-0.3l-0.6,1.9h0l-0.6-1.9h-0.3l0.8,2.2h0.3
		L94.7,23.7z M92.1,26h0.3v-2.2h-0.3V26z M90.6,26h0.3v-2h0.7v-0.2h-1.8V24h0.7V26z M89.5,24.4c-0.1-0.5-0.5-0.7-0.9-0.7
		c-0.7,0-1.1,0.5-1.1,1.2c0,0.6,0.3,1.2,1,1.2c0.6,0,0.9-0.3,1-0.9h-0.3c0,0.4-0.3,0.6-0.6,0.6c-0.5,0-0.8-0.4-0.8-0.9
		c0-0.5,0.2-0.9,0.8-0.9c0.3,0,0.6,0.2,0.6,0.5H89.5z M85.6,26h1.5v-0.2h-1.3v-0.8h1.2v-0.2h-1.2V24h1.2v-0.2h-1.5V26z M83.8,24h0.6
		c0.3,0,0.5,0.1,0.5,0.4c0,0.3-0.2,0.4-0.5,0.4h-0.6V24z M83.5,26h0.3v-0.9h0.7c0.4,0,0.7-0.2,0.7-0.7c0-0.4-0.2-0.7-0.7-0.7h-1V26z
		 M82.8,24.4c0-0.5-0.4-0.7-0.8-0.7c-0.4,0-0.8,0.2-0.8,0.7c0,0.4,0.4,0.5,0.7,0.6c0.4,0.1,0.7,0.1,0.7,0.4c0,0.3-0.3,0.4-0.6,0.4
		c-0.3,0-0.6-0.2-0.6-0.5h-0.3c0,0.5,0.4,0.8,0.9,0.8c0.4,0,0.9-0.2,0.9-0.7c0-0.4-0.4-0.6-0.7-0.6c-0.4-0.1-0.7-0.1-0.7-0.4
		c0-0.3,0.2-0.4,0.5-0.4c0.3,0,0.5,0.1,0.6,0.5H82.8z M79.3,24H80c0.3,0,0.4,0.1,0.4,0.4c0,0.3-0.1,0.4-0.5,0.4h-0.7V24z M80.5,26
		h0.3l-0.5-1c0.3-0.1,0.5-0.3,0.5-0.6c0-0.2-0.1-0.3-0.1-0.4c-0.1-0.1-0.3-0.2-0.5-0.2h-1V26h0.3V25h0.6L80.5,26z M77,26h1.5v-0.2
		h-1.3v-0.8h1.2v-0.2h-1.2V24h1.2v-0.2H77V26z M75.1,24h0.6c0.3,0,0.5,0.1,0.5,0.4c0,0.3-0.2,0.4-0.5,0.4h-0.6V24z M74.8,26h0.3
		v-0.9h0.7c0.4,0,0.7-0.2,0.7-0.7c0-0.4-0.2-0.7-0.7-0.7h-1V26z M71.7,26h1.5v-0.2H72v-2h-0.3V26z M70.2,24L70.2,24l0.4,1h-0.8
		L70.2,24z M69.2,26h0.3l0.2-0.7h0.9l0.2,0.7h0.3l-0.9-2.2H70L69.2,26z M67.4,24H68c0.3,0,0.5,0,0.5,0.4c0,0.2-0.1,0.4-0.5,0.4h-0.6
		V24z M67.1,26h1.1c0.4,0,0.7-0.3,0.7-0.6c0-0.3-0.1-0.5-0.4-0.5v0c0.2-0.1,0.3-0.3,0.3-0.5c0-0.2-0.1-0.4-0.3-0.5
		c-0.1-0.1-0.4-0.1-0.6-0.1h-0.8V26z M67.4,24.9h0.7c0.2,0,0.5,0.1,0.5,0.4c0,0.2-0.2,0.4-0.4,0.4h-0.7V24.9z M64.8,24.8
		c0-0.4,0.2-0.9,0.8-0.9c0.5,0,0.8,0.5,0.8,0.9s-0.2,0.9-0.8,0.9C65,25.8,64.8,25.3,64.8,24.8 M64.5,24.8c0,0.6,0.4,1.2,1.1,1.2
		c0.7,0,1.1-0.6,1.1-1.2c0-0.6-0.4-1.2-1.1-1.2C64.8,23.7,64.5,24.2,64.5,24.8 M62.7,26h1.5v-0.2H63v-2h-0.3V26z M61.9,26h0.2v-1.2
		h-1V25h0.7c0,0.4-0.3,0.7-0.7,0.7c-0.5,0-0.8-0.4-0.8-0.9c0-0.5,0.2-0.9,0.8-0.9c0.3,0,0.6,0.2,0.7,0.5h0.3c-0.1-0.5-0.5-0.7-1-0.7
		c-0.7,0-1.1,0.6-1.1,1.2c0,0.6,0.4,1.1,1.1,1.1c0.3,0,0.5-0.1,0.7-0.3L61.9,26z M57.5,24L57.5,24l0.4,1h-0.8L57.5,24z M56.4,26h0.3
		l0.2-0.7h0.9l0.2,0.7h0.3l-0.9-2.2h-0.3L56.4,26z M53,26h0.3v-1.8h0l1.2,1.8h0.3v-2.2h-0.3v1.8h0l-1.2-1.8H53V26z M52.1,26h0.3
		v-2.2h-0.3V26z M48.7,26h1.5v-0.2H49v-0.8h1.2v-0.2H49V24h1.2v-0.2h-1.5V26z M46.7,24h0.7c0.3,0,0.5,0.1,0.5,0.4
		c0,0.3-0.2,0.4-0.5,0.4h-0.7V24z M47.9,26h0.3l-0.6-1c0.3-0.1,0.5-0.3,0.5-0.6c0-0.2-0.1-0.3-0.1-0.4c-0.1-0.1-0.3-0.2-0.5-0.2h-1
		V26h0.3V25h0.6L47.9,26z M45.8,23.7h-0.3v1.4c0,0.4-0.2,0.6-0.6,0.6c-0.4,0-0.6-0.2-0.6-0.6v-1.4H44v1.4c0,0.6,0.3,0.9,0.9,0.9
		c0.6,0,0.9-0.3,0.9-0.9V23.7z M42.5,26h0.3v-2h0.7v-0.2h-1.8V24h0.7V26z M40.8,24L40.8,24l0.4,1h-0.8L40.8,24z M39.8,26h0.3
		l0.2-0.7h0.9l0.2,0.7h0.3L41,23.7h-0.3L39.8,26z M38,24h0.7c0.3,0,0.4,0.1,0.4,0.4c0,0.3-0.1,0.4-0.5,0.4H38V24z M39.1,26h0.3
		l-0.5-1c0.3-0.1,0.5-0.3,0.5-0.6c0-0.2-0.1-0.3-0.2-0.4c-0.1-0.1-0.3-0.2-0.5-0.2h-1V26H38V25h0.6L39.1,26z M35.7,26h1.5v-0.2H36
		v-0.8h1.2v-0.2H36V24h1.2v-0.2h-1.5V26z M34.2,26h0.3v-2h0.7v-0.2h-1.8V24h0.7V26z M32.7,26H33v-2.2h-0.3V26z M30.8,26h1.5v-0.2
		h-1.2v-2h-0.3V26z M28.7,26h0.2v-1.2h-1V25h0.7c0,0.4-0.3,0.7-0.7,0.7c-0.5,0-0.8-0.4-0.8-0.9c0-0.5,0.2-0.9,0.8-0.9
		c0.3,0,0.6,0.2,0.7,0.5h0.3c-0.1-0.5-0.5-0.7-1-0.7c-0.7,0-1.1,0.6-1.1,1.2c0,0.6,0.4,1.1,1.1,1.1c0.3,0,0.5-0.1,0.7-0.3L28.7,26z
		 M24.6,26h0.3v-1.8h0L26,26h0.3v-2.2h-0.3v1.8h0l-1.2-1.8h-0.3V26z M23.6,26h0.3v-2.2h-0.3V26z M21.2,24.8c0-0.4,0.2-0.9,0.8-0.9
		c0.5,0,0.8,0.5,0.8,0.9s-0.2,0.9-0.8,0.9C21.4,25.8,21.2,25.3,21.2,24.8 M20.9,24.8c0,0.6,0.4,1.2,1.1,1.2s1.1-0.6,1.1-1.2
		c0-0.6-0.4-1.2-1.1-1.2S20.9,24.2,20.9,24.8 M18.9,24h0.5c0.5,0,0.7,0.3,0.7,0.9c0,0.8-0.5,0.9-0.8,0.9h-0.5V24z M18.6,26h0.8
		c0.7,0,1.1-0.4,1.1-1.2c0-0.7-0.4-1.1-1.1-1.1h-0.8V26z"/>
	<path d="M82.3,30.6H84v-0.4h-1.2v-0.5h1.1v-0.4h-1.1v-0.5h1.2v-0.4h-1.7V30.6z M81.8,29.2c-0.1-0.5-0.5-0.8-1-0.8
		c-0.7,0-1.1,0.5-1.1,1.2c0,0.6,0.4,1.2,1.1,1.2c0.5,0,0.9-0.4,1-0.9h-0.5c0,0.3-0.2,0.5-0.5,0.5c-0.4,0-0.6-0.4-0.6-0.7
		c0-0.4,0.2-0.8,0.6-0.8c0.2,0,0.5,0.2,0.5,0.4H81.8z M77.5,30.6h0.5v-1.5h0l0.9,1.5h0.5v-2.2h-0.5v1.5h0l-0.9-1.5h-0.5V30.6z
		 M75.3,30.6H77v-0.4h-1.2v-0.5h1.1v-0.4h-1.1v-0.5H77v-0.4h-1.7V30.6z M73.4,30.6H75v-0.4h-1.1v-1.8h-0.5V30.6z M71.5,30.6H73v-0.4
		H72v-1.8h-0.5V30.6z M69.3,30.6H71v-0.4h-1.2v-0.5h1.1v-0.4h-1.1v-0.5H71v-0.4h-1.7V30.6z M68.9,29.2c-0.1-0.5-0.5-0.8-1-0.8
		c-0.7,0-1.1,0.5-1.1,1.2c0,0.6,0.4,1.2,1.1,1.2c0.5,0,0.9-0.4,1-0.9h-0.5c0,0.3-0.2,0.5-0.5,0.5c-0.4,0-0.6-0.4-0.6-0.7
		c0-0.4,0.2-0.8,0.6-0.8c0.2,0,0.5,0.2,0.5,0.4H68.9z M64.6,30.6h0.6l0.5-0.8l0.5,0.8h0.6L66,29.5l0.7-1.1h-0.5l-0.5,0.7l-0.4-0.7
		h-0.6l0.7,1.1L64.6,30.6z M62.7,30.6h1.7v-0.4h-1.2v-0.5h1.1v-0.4h-1.1v-0.5h1.2v-0.4h-1.7V30.6z M59.8,30.6h0.5v-0.9h0.9v-0.4
		h-0.9v-0.5h1.1v-0.4h-1.6V30.6z M57.6,29.5c0-0.4,0.2-0.8,0.6-0.8s0.6,0.4,0.6,0.8c0,0.4-0.2,0.7-0.6,0.7S57.6,29.9,57.6,29.5
		 M57.1,29.5c0,0.6,0.4,1.2,1.1,1.2s1.1-0.5,1.1-1.2c0-0.7-0.4-1.2-1.1-1.2S57.1,28.9,57.1,29.5 M54.6,28.8H55
		c0.2,0,0.4,0.1,0.4,0.3c0,0.2-0.1,0.3-0.4,0.3h-0.5V28.8z M55.4,30.6H56l-0.6-0.9c0.3-0.1,0.4-0.3,0.4-0.6c0-0.2-0.1-0.4-0.2-0.5
		c-0.1-0.1-0.3-0.2-0.6-0.2h-1v2.2h0.5v-0.9h0.4L55.4,30.6z M52,30.6h1.7v-0.4h-1.2v-0.5h1.1v-0.4h-1.1v-0.5h1.2v-0.4H52V30.6z
		 M50.5,30.6H51v-1.8h0.7v-0.4h-1.8v0.4h0.7V30.6z M47.7,29.9c0,0.5,0.5,0.8,0.9,0.8c0.6,0,0.9-0.3,0.9-0.7c0-0.5-0.5-0.6-0.7-0.7
		c-0.6-0.1-0.7-0.2-0.7-0.3c0-0.2,0.2-0.3,0.3-0.3c0.2,0,0.4,0.1,0.4,0.3h0.5c0-0.5-0.4-0.7-0.9-0.7c-0.4,0-0.8,0.2-0.8,0.7
		c0,0.4,0.3,0.5,0.7,0.6c0.3,0.1,0.7,0.1,0.7,0.4c0,0.2-0.3,0.3-0.4,0.3c-0.3,0-0.5-0.1-0.5-0.4H47.7z M47.3,28.4h-0.5v1.4
		c0,0.3-0.1,0.5-0.5,0.5c-0.4,0-0.5-0.2-0.5-0.5v-1.4h-0.5v1.4c0,0.6,0.4,0.9,0.9,0.9c0.6,0,1-0.3,1-0.9V28.4z M43.5,30.6h1.6v-0.4
		H44v-1.8h-0.5V30.6z M43.1,29.2c-0.1-0.5-0.5-0.8-1-0.8c-0.7,0-1.1,0.5-1.1,1.2c0,0.6,0.4,1.2,1.1,1.2c0.5,0,0.9-0.4,1-0.9h-0.5
		c0,0.3-0.2,0.5-0.5,0.5c-0.4,0-0.6-0.4-0.6-0.7c0-0.4,0.2-0.8,0.6-0.8c0.2,0,0.5,0.2,0.5,0.4H43.1z"/>
</g>
</svg>
