<?xml version="1.0" encoding="utf-8"?>
<!-- Generator: Adobe Illustrator 27.2.0, SVG Export Plug-In . SVG Version: 6.00 Build 0)  -->
<svg version="1.1" id="svg8218" xmlns:svg="http://www.w3.org/2000/svg"
	 xmlns="http://www.w3.org/2000/svg" xmlns:xlink="http://www.w3.org/1999/xlink" x="0px" y="0px" viewBox="0 0 162.69 162.69"
	 style="enable-background:new 0 0 162.69 162.69;" xml:space="preserve">
<style type="text/css">
	.st0{fill:#FFFFFF;}
	.st1{fill:#00488E;}
</style>
<g id="layer1" transform="translate(-439.13279,-80.729004)">
	<g id="g8191" transform="matrix(3.0214949,0,0,3.0214949,-524.24064,-26.292187)">
		<path id="path7809" class="st0" d="M372.68,62.34c0,14.88-12.06,26.92-26.92,26.92c-14.87,0-26.92-12.05-26.92-26.92
			c0-14.87,12.06-26.92,26.92-26.92C360.63,35.42,372.68,47.48,372.68,62.34"/>
		<path id="path7811" class="st1" d="M364.8,43.3c-5.26-5.26-11.61-7.88-19.04-7.88c-7.43,0-13.78,2.63-19.04,7.88
			s-7.88,11.61-7.88,19.04s2.63,13.78,7.88,19.03c5.05,5.06,11.1,7.68,18.15,7.88c0.14,0,0.27,0,0.41,0.01c0.16,0,0.31,0,0.48,0
			c7.43,0,13.78-2.63,19.04-7.89c5.26-5.25,7.88-11.6,7.88-19.03S370.06,48.56,364.8,43.3z M364.45,81.03
			c-5.16,5.17-11.39,7.75-18.69,7.75c-0.16,0-0.31-0.01-0.47-0.01c-0.13,0-0.27,0-0.4-0.01c-6.93-0.2-12.87-2.78-17.82-7.74
			c-5.16-5.16-7.74-11.39-7.74-18.68c0-7.29,2.58-13.53,7.74-18.69s11.39-7.75,18.69-7.75c7.3,0,13.53,2.58,18.69,7.75
			s7.75,11.4,7.75,18.69C372.2,69.64,369.61,75.86,364.45,81.03z M364.22,43.89c-5.1-5.09-11.25-7.64-18.46-7.64
			s-13.36,2.55-18.46,7.64c-5.09,5.1-7.64,11.25-7.64,18.46s2.55,13.36,7.64,18.45c4.89,4.9,10.76,7.44,17.6,7.64
			c0.13,0,0.26,0,0.4,0.01c0.15,0,0.3,0,0.46,0c7.21,0,13.36-2.55,18.46-7.65c5.09-5.09,7.64-11.24,7.64-18.45
			S369.31,48.99,364.22,43.89z M364.07,80.64c-5.06,5.06-11.16,7.59-18.31,7.59c-0.16,0-0.3,0-0.46,0
			c-0.13-0.01-0.26-0.01-0.39-0.01c-6.78-0.2-12.6-2.72-17.46-7.58c-5.06-5.05-7.58-11.15-7.58-18.3s2.52-13.25,7.58-18.31
			c5.06-5.06,11.16-7.58,18.31-7.58c7.15,0,13.25,2.52,18.31,7.58s7.59,11.16,7.58,18.31C371.66,69.49,369.13,75.6,364.07,80.64z
			 M360.94,47.16c-4.19-4.2-9.25-6.29-15.18-6.29c-5.92,0-10.99,2.09-15.18,6.29c-4.2,4.19-6.29,9.25-6.29,15.18
			s2.09,10.99,6.29,15.18c4.02,4.02,8.85,6.12,14.48,6.28c0.1,0.01,0.22,0.01,0.32,0.01c0.13,0,0.26,0,0.38,0
			c5.93,0,10.99-2.1,15.18-6.29c4.2-4.19,6.29-9.25,6.29-15.18S365.14,51.35,360.94,47.16z M360.83,77.4
			c-4.16,4.16-9.19,6.24-15.07,6.24c-0.12,0-0.25,0-0.38,0c-0.1,0-0.22-0.01-0.32-0.01c-5.58-0.16-10.36-2.24-14.36-6.24
			c-4.15-4.15-6.24-9.18-6.24-15.06s2.08-10.9,6.24-15.07c4.16-4.15,9.19-6.24,15.07-6.24s10.9,2.08,15.07,6.24
			c4.15,4.16,6.24,9.19,6.24,15.07S364.98,73.25,360.83,77.4z M346.52,45.16l0.62-0.81l-1.01,0.16l-0.36-0.99l-0.38,1.01l-0.99-0.16
			l0.65,0.83l-0.64,0.81l1.02-0.16l0.35,0.96l0.38-0.99l0.99,0.16L346.52,45.16z M346.07,45.7l-0.3,0.76l-0.27-0.75l-0.8,0.12
			l0.5-0.62l-0.5-0.64l0.76,0.12l0.3-0.78l0.28,0.76l0.78-0.12l-0.48,0.63l0.49,0.63L346.07,45.7z M330.5,68.93l0.29-0.98
			l-0.88,0.51l-0.69-0.79l0.01,1.08l-0.98,0.2l0.9,0.55l-0.31,0.98l0.9-0.52l0.68,0.77v-1.06l0.98-0.2L330.5,68.93z M330.27,69.58
			v0.82l-0.52-0.6l-0.7,0.4l0.24-0.76l-0.7-0.42l0.76-0.16v-0.84l0.54,0.62l0.69-0.4L330.35,69l0.69,0.42L330.27,69.58z
			 M363.41,68.95l-0.98-0.22l-0.02-1.05l-0.68,0.78l-0.88-0.52l0.29,1.01l-0.88,0.49l1.01,0.25l-0.03,1.04l0.72-0.78l0.84,0.54
			l-0.28-1.01L363.41,68.95z M362.62,70.24l-0.66-0.43l-0.56,0.61l0.03-0.81l-0.78-0.19l0.68-0.39l-0.25-0.78l0.7,0.4l0.5-0.62
			l0.04,0.82l0.75,0.16l-0.68,0.43L362.62,70.24z M352.25,40.41c0.05-0.07,0.11-0.09,0.18-0.04 M354.4,41.75
			c-0.06-0.04-0.1-0.07-0.12-0.09c-0.05-0.04-0.09-0.12-0.12-0.22c-0.04-0.43-0.1-1.05-0.18-1.83c-0.07-0.79-0.12-1.2-0.16-1.24
			c-0.03-0.05-0.1-0.08-0.19-0.09c-0.1-0.02-0.14,0.01-0.16,0.07c-0.03,0.06-0.34,0.46-0.94,1.2c-0.3,0.37-0.61,0.75-0.9,1.1
			c-0.15,0.06-0.29,0.11-0.45,0.15c-0.07,0.06-0.06,0.12,0.02,0.19c0.15,0.08,0.3,0.14,0.47,0.18l0,0c0.03,0.01,0.06,0.02,0.09,0.03
			c0.14,0.03,0.28,0.06,0.42,0.07c0.05-0.02,0.08-0.05,0.09-0.1c0-0.05-0.03-0.11-0.12-0.16c0-0.01-0.01-0.01-0.01-0.01
			c-0.04-0.03-0.08-0.07-0.1-0.1c-0.03-0.03-0.03-0.08-0.03-0.11c0-0.01,0.01-0.03,0.01-0.03c0.02-0.1,0.1-0.23,0.24-0.35l0.18-0.04
			c0.29,0.06,0.65,0.18,1.08,0.36c0.06,0.19,0.06,0.39,0.03,0.6c-0.03,0.05-0.06,0.08-0.1,0.09c-0.1-0.01-0.17,0-0.21,0.01
			c-0.11,0.03-0.12,0.1-0.03,0.22c0.37,0.18,0.75,0.29,1.13,0.35c0.06-0.01,0.11-0.03,0.13-0.08S354.45,41.8,354.4,41.75z
			 M352.55,40.03l0.78-0.95c0.03-0.03,0.06-0.02,0.08,0.02l0.08,1.23L352.55,40.03z M349.69,37.32c0.07,0.01,0.11,0.02,0.14,0.03
			c0.03,0.02,0.05,0.06,0.06,0.12c0.05,0.28,0.04,0.51-0.03,0.72c-0.04,0.05-0.1,0.07-0.18,0.04c-0.04-0.07-0.08-0.17-0.13-0.33
			c-0.03-0.11-0.07-0.18-0.11-0.21c-0.13-0.09-0.29-0.13-0.46-0.13c-0.08-0.01-0.12,0.05-0.14,0.16c-0.04,0.31-0.1,0.62-0.13,0.94
			c-0.01,0.11-0.03,0.23-0.04,0.35c-0.04,0.37-0.08,0.75-0.11,1.13l0.23,0.16c0.03,0.03,0.03,0.06,0.03,0.09
			c0,0.03-0.01,0.05-0.04,0.06c-0.13,0.05-0.3,0.06-0.53,0.04c-0.2-0.02-0.4-0.06-0.58-0.12c-0.08-0.09-0.09-0.15-0.03-0.2
			l0.22-0.09c0.04-0.03,0.07-0.07,0.08-0.13l0.31-2.32c-0.02-0.1-0.06-0.15-0.12-0.16c-0.12-0.03-0.24-0.04-0.34-0.03
			c-0.18,0.03-0.3,0.16-0.39,0.36c-0.12,0.15-0.22,0.16-0.29,0.05c-0.01-0.23,0.05-0.48,0.17-0.74c0.02-0.05,0.04-0.08,0.09-0.1
			c0.03-0.02,0.07-0.01,0.1,0.01c0.56,0.1,0.93,0.16,1.11,0.18C349,37.28,349.37,37.31,349.69,37.32 M351.45,38.07
			c-0.05,0.03-0.09,0.06-0.1,0.1c-0.18,0.66-0.35,1.43-0.49,2.32c-0.01,0.06-0.01,0.09-0.01,0.1c0.01,0.03,0.03,0.06,0.06,0.08
			c0.12,0.06,0.17,0.12,0.16,0.18c-0.02,0.06-0.07,0.1-0.18,0.12c-0.32-0.03-0.64-0.11-0.96-0.24c-0.03-0.04-0.05-0.08-0.04-0.12
			c0.01-0.05,0.04-0.08,0.1-0.1l0.16-0.05c0.04-0.03,0.07-0.06,0.08-0.11c0.23-0.75,0.4-1.53,0.52-2.33c0-0.04-0.01-0.09-0.03-0.12
			l-0.15-0.12c-0.09-0.09-0.05-0.16,0.08-0.21c0.34,0.03,0.67,0.1,0.99,0.21c0.06,0.03,0.09,0.08,0.09,0.13
			c0,0.04-0.03,0.08-0.09,0.1C351.58,38.02,351.52,38.05,351.45,38.07 M345.73,37.49c-0.01-0.04-0.03-0.08-0.06-0.11l-0.16-0.09
			c-0.1-0.07-0.08-0.15,0.04-0.23c0.34-0.03,0.67-0.03,1.01,0.02c0.07,0.03,0.1,0.06,0.11,0.11c0.01,0.04-0.01,0.09-0.06,0.11
			c-0.04,0.03-0.1,0.07-0.16,0.11c-0.05,0.03-0.08,0.08-0.08,0.12c-0.06,0.68-0.07,1.47-0.05,2.36c0.01,0.06,0.01,0.09,0.02,0.1
			c0.01,0.03,0.03,0.05,0.07,0.06c0.13,0.04,0.19,0.1,0.19,0.16s-0.05,0.11-0.16,0.15c-0.32,0.03-0.66,0.02-1-0.05
			c-0.03-0.03-0.06-0.07-0.06-0.1c0-0.05,0.03-0.09,0.08-0.11l0.16-0.09c0.03-0.03,0.06-0.08,0.06-0.12
			C345.75,39.11,345.76,38.31,345.73,37.49 M344.45,37.5c-0.14-0.06-0.3-0.08-0.47-0.04c-0.08,0.02-0.11,0.08-0.11,0.19
			c0.03,0.82,0.1,1.63,0.18,2.42l0.26,0.11c0.03,0.03,0.05,0.05,0.05,0.09c0.01,0.03,0,0.05-0.03,0.07
			c-0.12,0.07-0.29,0.11-0.51,0.14c-0.21,0.02-0.41,0.02-0.6-0.01c-0.1-0.07-0.11-0.13-0.06-0.19l0.19-0.13
			c0.03-0.03,0.05-0.09,0.05-0.14l-0.14-2.35c-0.03-0.09-0.09-0.13-0.14-0.12c-0.14-0.01-0.25,0-0.35,0.03
			c-0.17,0.07-0.27,0.22-0.31,0.43c-0.09,0.16-0.18,0.2-0.28,0.1c-0.06-0.22-0.05-0.47,0.02-0.75c0.02-0.05,0.03-0.09,0.08-0.11
			c0.03-0.02,0.06-0.02,0.1-0.01c0.56-0.02,0.94-0.03,1.13-0.03c0.42-0.03,0.79-0.06,1.11-0.1c0.07-0.01,0.11-0.01,0.14,0
			c0.03,0.02,0.06,0.05,0.09,0.11c0.1,0.25,0.14,0.49,0.11,0.71c-0.03,0.06-0.1,0.09-0.17,0.08c-0.05-0.06-0.11-0.16-0.18-0.3
			C344.56,37.58,344.5,37.52,344.45,37.5 M340.88,37.59c0.1-0.11,0.2-0.12,0.29-0.03c0.09,0.08,0.2,0.27,0.33,0.57
			c0.01,0.1-0.03,0.16-0.08,0.17c-0.07,0.02-0.16-0.03-0.28-0.13c-0.15-0.12-0.28-0.19-0.39-0.21c-0.42-0.04-0.69,0.07-0.79,0.34
			c-0.1,0.34,0.12,0.56,0.65,0.68l0.65,0.14c0.32,0.07,0.54,0.24,0.63,0.53c0.11,0.32,0.09,0.58-0.07,0.8
			c-0.1,0.17-0.25,0.32-0.49,0.43c-0.28,0.13-0.63,0.19-1.06,0.17c-0.23-0.02-0.37-0.07-0.44-0.15c-0.07-0.09-0.13-0.19-0.17-0.29
			c-0.01-0.03-0.02-0.04-0.02-0.07c-0.03-0.1-0.04-0.21-0.05-0.32c0.07-0.12,0.16-0.13,0.25-0.05l0.29,0.28
			c0.13,0.14,0.26,0.21,0.41,0.23c0.26,0.04,0.48,0,0.64-0.15c0.17-0.22,0.23-0.39,0.16-0.52c-0.05-0.09-0.12-0.16-0.22-0.23
			c-0.1-0.08-0.21-0.12-0.32-0.14l-0.84-0.2c-0.23-0.07-0.38-0.17-0.49-0.32c-0.18-0.27-0.22-0.55-0.08-0.84
			c0.18-0.37,0.49-0.58,0.95-0.62C340.67,37.61,340.84,37.61,340.88,37.59 M335.47,39.44c-0.04-0.06-0.04-0.11,0-0.16
			c0.35-0.19,0.67-0.32,0.95-0.4c0.15-0.01,0.2,0.05,0.17,0.17c-0.14,0.08-0.19,0.17-0.17,0.29c0.11,0.43,0.25,0.82,0.41,1.19
			c0.01,0.03,0.02,0.04,0.03,0.07c0.11,0.26,0.23,0.51,0.36,0.75c0.05,0.09,0.14,0.15,0.26,0.18c0.2,0.06,0.41,0.05,0.62-0.03
			c0.21-0.08,0.36-0.2,0.49-0.36c0.07-0.18,0.08-0.36,0.03-0.55c0-0.02-0.01-0.03-0.01-0.04c0-0.01-0.01-0.02-0.01-0.03
			c-0.19-0.6-0.43-1.18-0.69-1.75c-0.02-0.05-0.05-0.08-0.1-0.1c-0.06-0.02-0.13-0.02-0.21-0.01c-0.05-0.02-0.07-0.03-0.08-0.04
			c-0.03-0.03-0.03-0.07,0-0.12c0.2-0.16,0.47-0.27,0.8-0.32c0.1,0.01,0.15,0.04,0.14,0.1c-0.01,0.05-0.02,0.08-0.02,0.09
			c-0.01,0.01-0.05,0.04-0.12,0.1c-0.07,0.06-0.09,0.13-0.05,0.22l0.65,1.67c0.02,0.06,0.03,0.13,0.05,0.18
			c0,0.03,0.01,0.04,0.01,0.07c0.03,0.13,0.02,0.27-0.01,0.4c-0.03,0.12-0.06,0.21-0.09,0.25c-0.03,0.07-0.1,0.15-0.19,0.23
			c-0.12,0.12-0.25,0.21-0.36,0.28c-0.13,0.06-0.28,0.12-0.44,0.15c-0.29,0.06-0.54,0.05-0.75-0.01c-0.29-0.14-0.49-0.32-0.6-0.57
			l-0.7-1.74c-0.03-0.08-0.07-0.11-0.12-0.11C335.62,39.49,335.54,39.48,335.47,39.44 M335.34,42.64c0.02-0.05,0.02-0.1-0.01-0.14
			c-0.29-0.72-0.66-1.43-1.08-2.13c-0.03-0.03-0.06-0.05-0.1-0.06h-0.19c-0.12-0.02-0.15-0.09-0.07-0.22
			c0.28-0.19,0.57-0.36,0.89-0.48c0.07-0.01,0.12,0.01,0.16,0.04c0.03,0.03,0.03,0.08,0,0.14c-0.03,0.04-0.05,0.1-0.1,0.17
			c-0.03,0.05-0.03,0.1-0.01,0.14c0.27,0.62,0.63,1.32,1.08,2.1c0.03,0.04,0.05,0.07,0.06,0.07c0.03,0.03,0.05,0.03,0.1,0.03
			c0.12-0.03,0.21-0.02,0.23,0.03c0.03,0.06,0.01,0.13-0.07,0.21c-0.27,0.18-0.56,0.33-0.89,0.44c-0.05-0.01-0.09-0.03-0.11-0.07
			c-0.02-0.04-0.02-0.09,0.02-0.14L335.34,42.64 M336.33,48.51c0.1-0.16,0.15-0.29,0.14-0.4c0.06,0.13,0.05,0.37-0.03,0.72
			c-0.02,0.07-0.02,0.17,0.01,0.29c0.03,0.12,0.05,0.27,0.06,0.43c0,0.16,0.01,0.39,0.02,0.67c-0.01,0.02,0,0.04,0.02,0.07
			c0.03,0.03,0.04,0.06,0.06,0.08c0.04,0.06,0.03,0.1-0.04,0.13c-0.11-0.09-0.17-0.21-0.19-0.35c-0.01-0.03-0.01-0.09-0.01-0.18
			c-0.01-0.07-0.01-0.13-0.03-0.17c-0.03-0.17-0.15-0.3-0.31-0.39c0.01-0.04,0.02-0.12,0.03-0.24c0.01-0.11,0.03-0.2,0.05-0.28
			c0.03-0.04,0.05-0.11,0.1-0.18C336.23,48.66,336.27,48.59,336.33,48.51 M335.42,49.67c0.09-0.14,0.13-0.26,0.14-0.36
			c0.02-0.2-0.01-0.38-0.08-0.54c0.24,0.29,0.33,0.56,0.26,0.8c-0.06,0.18-0.03,0.32,0.1,0.41c0.11,0.09,0.2,0.17,0.24,0.24
			c0.06,0.09,0.08,0.17,0.06,0.28l-0.03,0.3c-0.05-0.02-0.1-0.05-0.11-0.09c-0.02-0.04-0.02-0.1-0.02-0.16
			c0.01-0.08-0.01-0.13-0.04-0.16c-0.04-0.03-0.08-0.03-0.13,0.01c-0.08,0.05-0.11,0.1-0.12,0.16c0,0.04,0.02,0.11,0.07,0.19
			l0.12,0.18c0,0.19-0.02,0.29-0.04,0.31c-0.11-0.16-0.2-0.32-0.26-0.49c-0.03-0.08-0.03-0.19-0.01-0.32c0.01-0.07,0.01-0.11,0-0.16
			c-0.01-0.03-0.04-0.08-0.09-0.13c-0.07-0.09-0.1-0.16-0.12-0.25C335.35,49.81,335.37,49.73,335.42,49.67 M337.05,49.41
			c-0.06-0.23-0.08-0.45-0.03-0.69c0.03-0.26,0.11-0.43,0.23-0.52c-0.12,0.4-0.07,0.8,0.13,1.18c0.05,0.09,0.09,0.17,0.09,0.26
			c0.01,0.1-0.02,0.16-0.06,0.21c-0.18,0.19-0.28,0.45-0.29,0.78c-0.08-0.08-0.12-0.13-0.14-0.16c-0.01-0.03,0.02-0.12,0.07-0.24
			l0.09-0.17c0.02-0.1,0.02-0.2,0-0.3C337.12,49.7,337.1,49.58,337.05,49.41 M337.97,49.44c-0.01,0.04-0.02,0.1-0.04,0.19
			c-0.03,0.14-0.01,0.24,0.06,0.32c0.12,0.16,0.03,0.41-0.29,0.77c-0.04-0.03-0.05-0.09-0.03-0.16c0.13-0.1,0.17-0.22,0.11-0.35
			c-0.09-0.18-0.09-0.35-0.02-0.51c0.01-0.03,0.04-0.1,0.1-0.22c0.05-0.1,0.09-0.17,0.11-0.25
			C337.98,49.3,337.98,49.37,337.97,49.44 M337.36,51.57C337.36,51.57,337.36,51.58,337.36,51.57c0.07,0.12,0.08,0.21,0.03,0.29
			c0,0.01-0.01,0.02-0.01,0.03c-0.02,0.07-0.02,0.13,0.01,0.2c0.03,0.1,0.12,0.21,0.26,0.31c-0.08,0.05-0.16,0.09-0.25,0.11
			c-0.03,0.01-0.07,0.02-0.11,0.02c-0.07-0.16-0.1-0.29-0.1-0.4c0-0.08,0.02-0.16,0.05-0.23c0.06-0.11,0.09-0.16,0.1-0.18
			c0.01-0.04,0.01-0.09,0.01-0.13c-0.01-0.03-0.02-0.06-0.03-0.1C337.32,51.52,337.34,51.54,337.36,51.57 M336.17,51.48
			c-0.01,0.02-0.01,0.04-0.01,0.06c0,0.03,0.01,0.07,0.03,0.12c0,0.02,0.02,0.04,0.05,0.1c0.03,0.04,0.04,0.08,0.06,0.12
			c0.05,0.16,0.06,0.37,0.03,0.64c-0.05-0.01-0.1-0.03-0.14-0.05c-0.05-0.03-0.09-0.05-0.12-0.07c-0.03-0.05-0.03-0.1-0.03-0.16
			c0.01-0.06,0.03-0.1,0.05-0.15c0.03-0.03,0.03-0.1,0-0.19c-0.03-0.09-0.04-0.14-0.04-0.16c-0.02-0.12,0.01-0.22,0.08-0.29
			c0.05-0.06,0.09-0.1,0.1-0.14C336.2,51.39,336.18,51.44,336.17,51.48 M336.85,51.08c-0.03-0.1-0.06-0.17-0.08-0.23
			c-0.07-0.21-0.04-0.39,0.09-0.54c-0.07,0.2-0.03,0.42,0.15,0.69c0.04,0.07,0.07,0.15,0.06,0.23c-0.01,0.04-0.03,0.1-0.06,0.16
			c-0.03,0.03-0.05,0.08-0.09,0.15c-0.02,0.02-0.02,0.04-0.02,0.08c0,0.01,0,0.02,0,0.03c0.01,0.04,0.01,0.08-0.01,0.1
			c0-0.03-0.02-0.08-0.03-0.11c-0.03-0.06-0.04-0.09-0.04-0.1c-0.03-0.07-0.02-0.16,0.03-0.27
			C336.87,51.21,336.87,51.15,336.85,51.08 M336.73,51.93c0.02-0.04,0.03-0.07,0.04-0.1c0,0.03-0.01,0.06-0.02,0.1
			c0,0.01,0,0.01,0,0.01c-0.01,0.06-0.02,0.1-0.01,0.15c0,0.13,0.07,0.3,0.21,0.49c-0.11,0.01-0.23,0-0.36-0.02
			c-0.05-0.16-0.04-0.3,0.01-0.43C336.66,52.05,336.7,51.98,336.73,51.93 M360.48,47.93v1.73 M359.87,66.09L359.87,66.09
			 M351.91,71.06v-0.24 M337.24,68.38c-0.03-0.1-0.03-0.16,0-0.21h-1.71c0.02,0.03,0.03,0.11,0.01,0.22
			c-0.02,0.1-0.01,0.18,0.02,0.24h0.18c0.01-0.08,0.04-0.14,0.09-0.19c0.06-0.05,0.1-0.09,0.11-0.1c0.01,0,0.04,0,0.1,0.01
			c0.06,0.01,0.11,0.02,0.15,0.03l0.03,1.6c-0.03,0.15-0.12,0.23-0.29,0.26v0.08h0.82c0-0.03,0.01-0.08,0.02-0.13
			c0.03-0.06,0.03-0.1,0.03-0.13c-0.1-0.03-0.17-0.08-0.21-0.15v-1.5c0.17-0.03,0.3-0.03,0.38,0c0.09,0.03,0.13,0.1,0.14,0.2
			l0.16,0.03C337.26,68.57,337.26,68.49,337.24,68.38z M335.79,66.01l0.54,1.73l0.31,0.08l0.05-0.08l-0.16-0.15l0.65-1.6
			c0.09-0.1,0.22-0.17,0.38-0.2l0.03-0.09l-0.68-0.01l0.09,0.12l-0.49,1.21l-0.38-1.28h-0.6v0.15
			C335.66,65.86,335.74,65.91,335.79,66.01z M347.58,76.73c-0.05-0.03-0.16-0.06-0.31-0.1c-0.16-0.03-0.29-0.07-0.38-0.1
			c-0.08-0.06-0.13-0.13-0.15-0.23c-0.02-0.09,0-0.16,0.04-0.23c0.04-0.08,0.11-0.11,0.2-0.12c0.09-0.01,0.19,0.03,0.29,0.11
			l-0.05,0.18h0.26l0.16-0.51l-0.29,0.03l-0.04,0.06c-0.21-0.04-0.39-0.07-0.52-0.06c-0.13,0.01-0.24,0.06-0.34,0.17
			c-0.1,0.11-0.14,0.25-0.12,0.42c0.01,0.17,0.15,0.3,0.4,0.39c0.26,0.09,0.43,0.21,0.52,0.34c0.09,0.14,0.1,0.26,0.03,0.36
			c-0.21,0.11-0.42,0.1-0.62-0.03l-0.03-0.16l-0.18-0.13l-0.18,0.67l0.44,0.05c-0.03-0.03-0.03-0.05,0-0.08
			c0.6,0.12,0.95,0.02,1.05-0.3c0.04-0.22,0.04-0.38,0.01-0.5C347.74,76.85,347.68,76.78,347.58,76.73z M346.26,75.04
			c0.03,0.1,0.09,0.2,0.16,0.26c0.09,0.08,0.18,0.12,0.29,0.13c0.12,0.01,0.22,0.01,0.31-0.02c0.17-0.03,0.31-0.1,0.4-0.18
			c0.03-0.03,0.05-0.05,0.06-0.08c0.02-0.02,0.02-0.03,0.03-0.03v0.21l0.23,0.03l-0.03-0.9l-0.34,0.05c0,0.04,0,0.1-0.03,0.16
			c-0.03,0.09-0.05,0.14-0.05,0.15c0,0,0.03,0,0.08-0.01c0.01,0.01,0.02,0.01,0.01,0.03c0,0,0,0.02,0,0.03
			c-0.03,0.11-0.07,0.19-0.14,0.23c-0.04,0.04-0.12,0.04-0.23,0.03c-0.09-0.01-0.16-0.06-0.23-0.13c-0.07-0.09-0.12-0.2-0.15-0.35
			c0-0.12,0.06-0.2,0.2-0.22c0.1-0.02,0.25,0.01,0.44,0.06l-0.03-0.38c-0.02,0.04-0.05,0.09-0.12,0.13c-0.13,0-0.22,0-0.25-0.01
			c-0.16-0.1-0.22-0.22-0.16-0.38c0.08-0.23,0.19-0.36,0.32-0.37c0.08,0,0.15,0.03,0.23,0.1c0.06,0.04,0.11,0.11,0.14,0.2
			l-0.12,0.03c-0.02,0.03,0,0.07,0.03,0.14c0.03,0.08,0.05,0.13,0.04,0.17l0.32,0.08l0.1-0.8h-0.16l-0.16,0.13
			c-0.23-0.22-0.47-0.29-0.72-0.22c-0.11,0.03-0.21,0.09-0.29,0.16c-0.08,0.08-0.13,0.17-0.16,0.28l-0.03,0.29
			c0.01,0.07,0.06,0.16,0.17,0.29C346.26,74.56,346.2,74.8,346.26,75.04z M327.18,53.46c0.23,1.08,0.59,2.35,1.08,3.81
			c-1.25,1.32-2.28,3.28-3.09,5.87C325.1,59.63,325.77,56.39,327.18,53.46z M328.81,57.27c-0.34-1.01-0.62-1.88-0.82-2.6
			c-0.25-0.93-0.44-1.78-0.56-2.55c-0.57,1.03-1.02,2.01-1.38,2.93c-0.43,1.14-0.74,2.26-0.91,3.38c-0.21,1.34-0.32,2.56-0.34,3.68
			c-0.03,1.4,0.09,2.76,0.35,4.09c0.11-1.62,0.48-3.18,1.09-4.68C326.85,60.07,327.7,58.65,328.81,57.27z M338.52,68.98
			c0,0.07-0.03,0.11-0.08,0.13c-0.08,0.02-0.16,0.03-0.26,0.02c-0.04,0-0.08-0.03-0.1-0.1c-0.01-0.19,0.03-0.38,0.11-0.56
			c0.14-0.07,0.23-0.04,0.28,0.08C338.52,68.68,338.54,68.83,338.52,68.98z M338.99,69.9c-0.12-0.36-0.22-0.79-0.29-1.28
			c0.01-0.2,0.1-0.29,0.31-0.29l0.1-0.23l-1.7,0.05c0,0.08,0.03,0.13,0.06,0.16c0.03,0.03,0.08,0.04,0.15,0.03
			c0.05,0,0.1,0.02,0.11,0.06c0.03,0.04,0.03,0.1,0.02,0.16l-0.34,1.28c-0.03,0.15-0.1,0.24-0.23,0.29l0.04,0.1l0.55-0.03l0.16-0.59
			c0.04-0.28,0.26-0.39,0.64-0.31l0.29,0.98l0.36-0.05l0.04-0.17C339.13,70.1,339.03,70.04,338.99,69.9z M337.52,66.45
			c0.01,0.06,0.06,0.16,0.17,0.29c-0.19,0.23-0.25,0.48-0.19,0.72c0.03,0.1,0.09,0.19,0.16,0.26s0.18,0.11,0.29,0.12
			c0.11,0.02,0.22,0.01,0.31-0.01c0.17-0.04,0.31-0.11,0.4-0.19c0.03-0.03,0.05-0.05,0.07-0.08c0.01-0.02,0.02-0.03,0.02-0.03v0.2
			l0.23,0.03l-0.03-0.9l-0.34,0.05c0.01,0.04-0.01,0.1-0.03,0.16c-0.03,0.09-0.05,0.14-0.05,0.15c0,0,0.03,0,0.08,0
			c0.01,0,0.02,0.01,0.01,0.02v0.03c-0.03,0.1-0.07,0.19-0.14,0.23c-0.04,0.03-0.12,0.04-0.23,0.03c-0.1-0.01-0.17-0.05-0.23-0.13
			c-0.08-0.09-0.13-0.2-0.15-0.35c-0.01-0.12,0.05-0.19,0.18-0.22c0.11-0.01,0.26,0.01,0.45,0.06l-0.03-0.38
			c-0.02,0.05-0.05,0.1-0.12,0.13c-0.13,0.01-0.22,0-0.25-0.01c-0.16-0.1-0.22-0.22-0.16-0.37c0.08-0.24,0.19-0.36,0.32-0.37
			c0.08-0.01,0.16,0.02,0.23,0.09c0.07,0.05,0.11,0.11,0.14,0.2l-0.12,0.03c-0.02,0.03,0,0.07,0.03,0.13
			c0.04,0.08,0.05,0.14,0.04,0.17l0.32,0.08l0.1-0.8h-0.16l-0.16,0.13c-0.23-0.22-0.48-0.29-0.72-0.22
			c-0.11,0.03-0.21,0.09-0.29,0.16c-0.08,0.09-0.13,0.18-0.16,0.29L337.52,66.45z M349.05,76.52l-0.16-0.31l-0.16,0.31h-0.31
			l0.16,0.25l-0.13,0.26h0.29l0.16,0.29l0.16-0.29l0.3,0.03l-0.16-0.29l0.16-0.25H349.05z M343.62,76.25c0.01-0.06,0-0.15-0.03-0.25
			c-0.02-0.1-0.02-0.16,0-0.21h-1.7c0.02,0.03,0.02,0.1,0,0.21c-0.02,0.1-0.01,0.19,0.03,0.25h0.18c0.01-0.08,0.03-0.15,0.09-0.2
			c0.05-0.04,0.1-0.08,0.11-0.1c0.01,0,0.04,0,0.1,0.01c0.06,0.01,0.1,0.02,0.14,0.03l0.03,1.6c-0.02,0.15-0.11,0.23-0.28,0.25v0.08
			h0.82c-0.01-0.03,0-0.08,0.02-0.12c0.02-0.06,0.03-0.1,0.03-0.13c-0.1-0.03-0.17-0.08-0.21-0.15v-1.5
			c0.17-0.03,0.29-0.03,0.38-0.01c0.09,0.03,0.13,0.1,0.13,0.21L343.62,76.25z M351.23,69.02c0,0.07-0.03,0.11-0.08,0.12
			c-0.08,0.03-0.16,0.03-0.26,0.03c-0.04-0.01-0.09-0.04-0.1-0.1c-0.01-0.2,0.03-0.38,0.11-0.56c0.14-0.07,0.23-0.04,0.28,0.07
			C351.22,68.73,351.24,68.87,351.23,69.02z M351.66,69.91c-0.12-0.36-0.21-0.79-0.28-1.28c0.01-0.2,0.1-0.29,0.29-0.29l0.1-0.23
			l-1.56,0.05c0,0.03,0,0.06,0,0.1c0,0.03,0.01,0.05,0.03,0.07c0.03,0.03,0.07,0.04,0.13,0.03c0.04,0,0.08,0.02,0.1,0.06
			c0.02,0.04,0.02,0.1,0.01,0.16l-0.31,1.28c-0.01,0.03-0.01,0.04-0.02,0.07l-0.09-0.01c-0.06-0.02-0.1-0.05-0.1-0.1l0.03-1.34
			c0-0.11,0.05-0.19,0.16-0.23v-0.13l-0.65,0.03l-0.02,0.16c0.08,0.01,0.13,0.06,0.16,0.16v1.37c-0.01,0.15-0.08,0.23-0.22,0.24
			l0.11,0.16l0.43-0.05l0.03,0.08l0.51-0.03l0.15-0.59c0.04-0.28,0.24-0.38,0.61-0.31l0.27,0.98l0.34-0.05l0.04-0.17
			C351.78,70.11,351.7,70.05,351.66,69.91z M365.3,68.17c-0.18,1.18-0.51,2.3-1,3.37c-0.49,1.08-1.01,1.99-1.54,2.76
			c-0.53,0.75-1.37,1.54-2.52,2.34c-1.15,0.8-2.39,1.41-3.72,1.84c-1.34,0.43-2.68,0.64-4.03,0.64c0.36-0.28,0.73-0.56,1.08-0.85
			c0.82-0.05,1.67-0.2,2.58-0.44c0.89-0.24,1.86-0.7,2.92-1.37c1.06-0.67,1.98-1.48,2.76-2.44s1.41-1.99,1.88-3.14
			c0.47-1.13,0.75-2.29,0.85-3.45c0.1-1.17,0.04-2.32-0.18-3.45c-0.21-1.14-0.59-2.21-1.14-3.23c-0.51-0.96-1.25-1.99-2.2-3.09
			l1.04-0.03c0.88,0.88,1.6,1.9,2.12,3.04c0.53,1.14,0.89,2.38,1.08,3.7C365.47,65.71,365.48,66.97,365.3,68.17z M351.31,79.16
			c-0.1,0.06-0.2,0.12-0.29,0.18c-0.06,0.03-0.11,0.07-0.16,0.1h-10.18c-0.47-0.29-0.93-0.58-1.37-0.89
			c-0.18-0.12-0.36-0.24-0.52-0.36h1.13h0.69c-0.01,0.18-0.01,0.31,0,0.4v0.07c0.01,0.15,0.02,0.26,0.03,0.36
			c0.02,0.09,0.06,0.16,0.13,0.22c0.07,0.05,0.3,0.07,0.69,0.05c0.39-0.01,0.8-0.05,1.24-0.11c0.43-0.07,0.92-0.16,1.45-0.25
			c0.16-0.03,0.36-0.08,0.6-0.13c0.16-0.03,0.28-0.04,0.34-0.05c0.04,0,0.07,0.01,0.09,0.03c0.01,0.01,0.03,0.03,0.04,0.07
			c0.06,0.07,0.24,0.1,0.55,0.11h0.02c0.3-0.01,0.49-0.04,0.55-0.11c0.02-0.03,0.03-0.06,0.06-0.07c0.01-0.01,0.04-0.03,0.08-0.03
			c0.04-0.01,0.16-0.01,0.34,0.02c0.18,0.03,0.48,0.08,0.88,0.14c0.41,0.07,0.84,0.14,1.28,0.21c0.44,0.07,0.79,0.11,1.02,0.12
			c0.33,0.01,0.54,0.02,0.62,0.02s0.14-0.06,0.19-0.17c0.03-0.11,0.06-0.23,0.07-0.35c0.01-0.11,0.01-0.29,0-0.55h1.87
			C352.27,78.52,351.8,78.85,351.31,79.16z M356.24,79.97c-2.55,1.47-5.26,2.37-8.15,2.71c0.64-0.62,1.21-1.3,1.72-2.03
			c0.36-0.16,0.73-0.33,1.08-0.53C352.54,80.38,354.32,80.33,356.24,79.97z M345.75,80.99c-1.71-0.14-3.25-0.56-4.63-1.28h9.25
			C348.98,80.44,347.44,80.86,345.75,80.99z M345.93,82.32l0.02-0.72c0.37-0.03,0.74-0.08,1.08-0.14
			C346.68,81.85,346.31,82.14,345.93,82.32z M345.92,82.92l0.01-0.37c0.55-0.26,0.99-0.63,1.33-1.13c0.2-0.03,0.39-0.08,0.58-0.12
			C347.25,82.01,346.62,82.54,345.92,82.92z M344.52,81.46c0.34,0.06,0.69,0.1,1.05,0.14l0.01,0.73
			C345.04,82.03,344.69,81.74,344.52,81.46z M343.71,81.3c0.16,0.03,0.34,0.07,0.51,0.1c0.01,0,0.01,0,0.02,0
			c0.35,0.5,0.8,0.88,1.35,1.11v0.4C344.91,82.54,344.29,82.01,343.71,81.3z M343.38,82.66c-2.87-0.37-5.51-1.27-7.92-2.69
			c1.78,0.32,3.51,0.38,5.23,0.18c0.33,0.18,0.68,0.35,1.02,0.5L343.38,82.66z M335.09,78.45c-1.34-0.43-2.58-1.04-3.72-1.84
			c-1.15-0.81-1.99-1.58-2.52-2.34c-0.53-0.76-1.04-1.68-1.53-2.76c-0.49-1.08-0.82-2.19-1.01-3.37c-0.18-1.2-0.17-2.46,0.02-3.79
			c0.19-1.33,0.56-2.56,1.08-3.7c0.53-1.14,1.24-2.16,2.12-3.04l1.04,0.03c-0.95,1.1-1.69,2.13-2.2,3.09
			c-0.55,1.02-0.94,2.1-1.15,3.23c-0.22,1.13-0.28,2.28-0.17,3.45c0.1,1.16,0.38,2.32,0.85,3.46c0.48,1.14,1.1,2.18,1.88,3.13
			c0.78,0.95,1.7,1.77,2.76,2.44c1.06,0.67,2.03,1.13,2.93,1.37c0.89,0.24,1.73,0.4,2.49,0.47c0.07,0.06,0.15,0.12,0.22,0.18
			c0.29,0.23,0.59,0.45,0.89,0.67C337.75,79.1,336.41,78.87,335.09,78.45z M328.23,52.14l0.88,0.49c0.38,1.55,0.87,3.08,1.47,4.58
			l-0.93-0.06C328.99,55.43,328.52,53.76,328.23,52.14z M331.04,50.85v0.9c-0.62,0.12-1.2,0.3-1.74,0.54l-0.96-0.56
			C329.06,51.42,329.96,51.13,331.04,50.85z M329.7,52.65c0.43-0.21,0.87-0.35,1.34-0.41l-0.03,4.67
			C330.33,55.28,329.89,53.87,329.7,52.65z M331.24,67.45c0.2,1.08,0.5,2.1,0.9,3.05c0.84,1.99,1.97,3.81,3.4,5.43
			c0.58,0.67,1.21,1.29,1.86,1.87c-0.54-0.09-1.15-0.22-1.82-0.42c-0.68-0.19-1.52-0.59-2.54-1.18c-1.03-0.59-1.94-1.36-2.75-2.3
			c-0.81-0.95-1.42-1.9-1.85-2.86c-0.42-0.96-0.71-2-0.88-3.11c-0.16-1.11-0.16-2.22-0.02-3.34c0.16-1.11,0.56-2.32,1.21-3.63
			c0.66-1.31,1.41-2.32,2.26-3.04l-0.03,6.77C330.98,65.57,331.07,66.49,331.24,67.45z M329.2,50.09c0.44-0.63,1.06-1.37,1.86-2.19
			l-0.01,1.79C330.55,49.71,329.93,49.85,329.2,50.09z M335.95,59.13c-0.27,0.01-0.48-0.03-0.61-0.09c0.1-0.03,0.21-0.04,0.33-0.06
			c0,0,0.03,0.02,0.1,0.04C335.86,59.07,335.92,59.11,335.95,59.13z M336.22,58.6h-0.33l-0.16-0.1l0.21-0.03L336.22,58.6z
			 M335.77,54.74h-0.23l-0.14-0.1C335.61,54.64,335.73,54.68,335.77,54.74z M336.77,57.74h0.13l0.16,0.16
			C336.95,57.86,336.85,57.81,336.77,57.74z M336.27,58.05L336.2,58l0.21-0.03l0.21,0.1L336.27,58.05z M336.87,63.27
			c-0.01-0.02-0.04-0.04-0.1-0.08c-0.13-0.08-0.19-0.16-0.19-0.24c-0.02-0.42-0.03-0.75-0.02-0.95c0.03-0.13,0.1-0.19,0.16-0.17
			c0.07,0.02,0.16,0.11,0.3,0.28c0.11,0.13,0.15,0.44,0.09,0.92c-0.13,0.13-0.15,0.23-0.06,0.29c0.1,0.09,0.13,0.17,0.11,0.25
			c-0.02,0.06-0.07,0.1-0.16,0.13c-0.08,0.03-0.16,0.02-0.23-0.02c-0.09-0.04-0.14-0.11-0.16-0.21c-0.02-0.06,0.06-0.1,0.25-0.09
			C336.9,63.34,336.9,63.31,336.87,63.27z M337.57,57.97l-0.21-0.21l0.16,0.03L337.57,57.97z M337,53.52
			c0.02,0.03,0.07,0.03,0.15,0.03c0.12-0.02,0.21-0.03,0.28-0.02c0.12,0.02,0.16,0.09,0.09,0.2c-0.06,0.18-0.08,0.36-0.05,0.56
			l-0.31,0.26c-0.01,0.02,0.02,0.07,0.09,0.13c0.09,0.08,0.12,0.14,0.12,0.18c0,0.03-0.02,0.05-0.07,0.09
			c-0.05,0.03-0.08,0.08-0.09,0.12c0,0.03,0.02,0.1,0.05,0.16c0.03,0.07,0.05,0.13,0.05,0.16v0.98c-0.03,0.01-0.04,0.08-0.05,0.2
			c-0.02,0.13-0.02,0.29,0,0.47c0.01,0.11-0.01,0.25-0.03,0.42c-0.03,0.14-0.03,0.24-0.02,0.31c-0.17-0.12-0.36-0.15-0.57-0.09
			c0.09,0.1,0.14,0.22,0.16,0.35c-0.08-0.1-0.16-0.13-0.23-0.1l-0.14-2.9l0.12-0.54c-0.07-0.04-0.1-0.1-0.1-0.16
			c0-0.05,0.02-0.1,0.05-0.16c0.06-0.1,0.09-0.16,0.09-0.16c0.03-0.06,0.02-0.1-0.01-0.13l-0.29-0.05
			c-0.02-0.09-0.01-0.15,0.03-0.18c0.03-0.03,0.09-0.05,0.16-0.06c0.09-0.02,0.14-0.03,0.16-0.03c0.03-0.02,0.04-0.06,0.02-0.11
			l-0.54-0.13c-0.06-0.05-0.1-0.1-0.1-0.14c-0.01-0.03,0-0.06,0.02-0.1c0.03-0.05,0.05-0.1,0.06-0.12c0.02-0.05,0.01-0.11-0.01-0.17
			c0.01-0.03,0.03-0.03,0.08-0.03c0.02,0,0.06,0.02,0.13,0.05c0.16,0.05,0.26,0.08,0.34,0.05c0.03,0.14,0.05,0.22,0.08,0.23
			c0.03,0.01,0.1-0.05,0.21-0.18c0.1-0.07,0.24-0.1,0.42-0.07c0.03,0,0.06,0.01,0.08,0.01c0.05,0.01,0.09,0.01,0.1,0.01
			c0.06,0,0.1-0.02,0.14-0.04c0.08-0.07,0.14-0.1,0.18-0.11c0.03,0,0.06-0.02,0.09-0.05c-0.01,0.03-0.01,0.07,0.01,0.1
			c0.01,0.02,0.02,0.05,0.03,0.09c0.03,0.06,0.01,0.12-0.05,0.17c-0.15,0.11-0.31,0.21-0.49,0.28c-0.13,0.05-0.27,0.09-0.42,0.11
			C336.98,53.46,336.98,53.5,337,53.52z M338.5,60.43c-0.05-0.1-0.09-0.16-0.11-0.2c-0.04-0.08-0.09-0.13-0.13-0.18
			c0.1,0.05,0.16,0.05,0.2,0.01c-0.09-0.06-0.12-0.12-0.12-0.18c0.02,0.01,0.07,0.04,0.16,0.1c0.09,0.04,0.17,0.12,0.27,0.23
			c0.02-0.05,0.01-0.12-0.03-0.21c0.11,0.09,0.23,0.15,0.32,0.2c0.05,0.03,0.13,0.06,0.23,0.1c0.2,0.1,0.46,0.27,0.77,0.52
			c0.13,0.1,0.36,0.14,0.69,0.12c-0.03,0.1-0.08,0.18-0.16,0.22c-0.06,0.03-0.16,0.03-0.29,0.03c-0.08,0-0.16,0.01-0.24,0.03
			c-0.09,0.03-0.16,0.05-0.2,0.06c-0.17,0.06-0.36,0.06-0.54,0.02c-0.1-0.03-0.22-0.08-0.33-0.16c-0.02-0.02-0.1-0.1-0.26-0.25
			c0.08,0.01,0.14-0.01,0.18-0.04C338.73,60.73,338.6,60.6,338.5,60.43z M348.03,54.13c-0.1-0.01-0.18-0.03-0.26-0.05
			c0.03-0.07,0.08-0.12,0.16-0.16C347.93,53.98,347.96,54.05,348.03,54.13z M348.75,54.25c-0.1,0-0.17-0.02-0.23-0.04
			c0-0.07,0.04-0.11,0.13-0.13C348.66,54.15,348.69,54.21,348.75,54.25z M347.32,51.54l-0.21,0.28l-0.08-0.07l0.03-0.23h0.18
			L347.32,51.54z M348.27,51.58l-0.16,0.2l-0.14-0.25L348.27,51.58z M349.02,51.77l-0.16,0.1l-0.08-0.17L349.02,51.77z
			 M331.62,47.98h28.28l0.08,16.27h-5.52c-0.05-0.03-0.09-0.1-0.11-0.21c-0.01-0.08-0.02-0.19-0.03-0.35
			c-0.01-0.19-0.02-0.32-0.03-0.39c-0.02-0.15-0.04-0.26-0.09-0.35c0.01-0.06,0.03-0.08,0.04-0.07c0.01,0,0.04,0.04,0.1,0.12
			c0-0.13-0.02-0.3-0.07-0.5c-0.04-0.17-0.06-0.31-0.05-0.41c0.07-0.02,0.12,0.03,0.15,0.16c0.22-0.92,0.32-1.84,0.32-2.78
			c0.04,0.03,0.09,0.16,0.15,0.37c0.09-0.37,0.09-0.81,0.01-1.28c-0.03-0.18-0.01-0.41,0.07-0.7c0.1-0.48,0.06-0.96-0.08-1.46
			c0.1,0.16,0.23,0.26,0.36,0.29c-0.23-0.42-0.42-0.93-0.56-1.48c-0.03-0.14-0.02-0.26,0.03-0.36c0.03-0.05,0.07-0.18,0.11-0.37
			c0.04-0.17,0.08-0.28,0.11-0.3l0.03,0.21c0.03-0.01,0.06-0.04,0.09-0.12c0.02-0.05,0.03-0.15,0.04-0.28
			c0.04-0.29,0.1-0.46,0.15-0.52c0.05,0.1,0.08,0.2,0.08,0.3c0.11-0.5,0.1-1.08-0.08-1.7l-0.13-1.08c0.16-0.1,0.23-0.23,0.24-0.4
			v-0.36c0.06,0.03,0.11,0.09,0.16,0.18c-0.03-0.1-0.06-0.25-0.08-0.43c-0.01-0.14-0.04-0.24-0.1-0.3
			c-0.33-0.37-0.75-0.51-1.27-0.41c0-0.23-0.06-0.4-0.18-0.54c-0.01-0.04,0.03-0.06,0.1-0.05c-0.12-0.16-0.27-0.24-0.43-0.23
			c-0.04-0.01-0.11-0.02-0.18-0.04c-0.08-0.03-0.14-0.05-0.18-0.06c-0.16-0.05-0.29-0.06-0.38-0.03c-0.33,0.06-0.56,0.25-0.68,0.56
			c-0.76-0.16-1.28-0.18-1.56-0.07c0.01-0.05,0.04-0.09,0.1-0.1c-0.27,0.03-0.47,0.12-0.6,0.28c-0.73,0.1-1.46,0.23-2.18,0.39
			c-0.47,0.04-0.87,0.04-1.2,0.01c-0.06,0.09-0.1,0.16-0.13,0.23c-0.03,0.1-0.03,0.18,0.03,0.27c0.16,0.29,0.2,0.57,0.1,0.84
			l-0.15,0.36c-0.04,0.1-0.07,0.16-0.07,0.23c-0.01,0.04,0,0.1,0.02,0.15c0.02,0.03,0.06,0.09,0.12,0.16c0.11,0,0.18,0.05,0.23,0.15
			l0.27,0.23c0.1-0.22,0.23-0.38,0.4-0.49c0.06-0.03,0.1-0.02,0.13,0.03c0.09,0.15,0.25,0.31,0.48,0.49
			c0.07-0.16,0.16-0.28,0.27-0.36c0.03-0.02,0.04-0.03,0.07-0.02c0.03,0,0.04,0.02,0.06,0.03c0.03,0.04,0.09,0.1,0.19,0.17
			c0.1,0.07,0.16,0.1,0.17,0.09c0.06-0.04,0.12-0.07,0.18-0.09c0.07-0.02,0.11-0.02,0.14-0.01c0.02,0.01,0.02,0.03,0.01,0.1
			c0.03,0.16,0.08,0.29,0.16,0.37c0.16-0.1,0.29-0.11,0.39-0.03c0.35,0.28,0.43,0.44,0.27,0.49c-0.97-0.04-1.54-0.07-1.7-0.09
			c-0.53-0.06-1.01-0.14-1.41-0.23c-0.39-0.13-0.69-0.29-0.93-0.47c-0.15-0.13-0.3-0.31-0.46-0.56c-0.08-0.1-0.16-0.17-0.26-0.19
			c-0.1-0.02-0.18,0-0.25,0.05c-0.08,0.06-0.12,0.16-0.14,0.28c-0.03,0.12-0.01,0.28,0.04,0.45c0.46,0.98,1.48,1.52,3.06,1.61
			c1.4,0.09,2.03,0.25,1.91,0.5c-0.03,0.05-0.07,0.07-0.13,0.06c-0.09-0.06-0.15-0.11-0.2-0.16c-0.03-0.03-0.04-0.06-0.06-0.1
			c-0.2,0.1-0.36,0.22-0.49,0.38c-0.17-0.1-0.29-0.21-0.34-0.31c-0.18,0.05-0.32,0.17-0.43,0.36c-0.15-0.21-0.23-0.4-0.26-0.58
			c-0.26,0.04-0.45,0.21-0.57,0.49c-0.07,0-0.11,0.03-0.12,0.1c-0.02,0.06,0,0.12,0.04,0.18v0.16l-0.03,0.03
			c-0.02,0.03-0.03,0.06-0.03,0.1c-0.03,0.1-0.02,0.22,0.05,0.35c0.06-0.1,0.13-0.16,0.23-0.17c-0.01,0.17,0.07,0.32,0.25,0.43
			c0.03-0.09,0.08-0.16,0.16-0.2c0.02,0.06,0.04,0.1,0.07,0.12c0.02,0.02,0.05,0.03,0.1,0.05c-0.01-0.07-0.01-0.12,0.02-0.16
			c0.13,0.09,0.29,0.12,0.44,0.12c-0.07,0.08-0.1,0.16-0.08,0.26c-0.23,0.11-0.44,0.26-0.62,0.46c-0.25-0.03-0.47,0.03-0.64,0.2
			c0.08-0.01,0.13,0.01,0.17,0.04c-0.29,0.12-0.63,0.37-1.01,0.75c-0.13,0.12-0.25,0.24-0.36,0.37l-0.15,0.17
			c0.06,0,0.11-0.01,0.14-0.02c0.06-0.03,0.09-0.03,0.1-0.01l-1.02,1.2c-0.33-0.02-0.6,0.03-0.8,0.12c-0.16-0.06-0.32-0.11-0.5-0.15
			c-0.2-0.04-0.33-0.06-0.4-0.04c-0.08,0.01-0.14,0.01-0.17,0c-0.03-0.02-0.06-0.02-0.1-0.02l0.11-0.08
			c0.03-0.02,0.03-0.04,0.04-0.07c-0.16,0.03-0.36,0.04-0.61,0.03c-0.27-0.02-0.48-0.02-0.62-0.01c0.03-0.05,0.06-0.1,0.11-0.12
			c-0.03,0-0.13,0-0.29,0.02c-0.15,0.01-0.27,0.01-0.36-0.01c0.08-0.04,0.12-0.1,0.13-0.14c-0.15,0.04-0.37,0.03-0.67-0.01
			c-0.29-0.05-0.46-0.07-0.49-0.06c-0.03-0.04-0.04-0.08-0.02-0.1c0.02-0.03,0.05-0.05,0.1-0.08l-0.74-0.05
			c0.1-0.04,0.14-0.12,0.15-0.22c-0.21,0.1-0.4,0.1-0.57,0.03c-0.16-0.07-0.25-0.17-0.29-0.33c-0.04,0.03-0.07,0.09-0.07,0.18
			c-0.08-0.14-0.16-0.25-0.29-0.36c-0.12-0.1-0.22-0.18-0.27-0.23c-0.09-0.08-0.15-0.28-0.19-0.59c-0.02-0.16-0.03-0.3-0.04-0.42
			c-0.02-0.12-0.03-0.23-0.07-0.3c-0.04-0.08-0.07-0.16-0.07-0.23c0.07,0.04,0.13,0.06,0.18,0.05c-0.22-0.29-0.34-0.59-0.36-0.93
			c0-0.03,0.01-0.03,0.03-0.01c0.03,0.02,0.07,0.03,0.12,0.04c0.04,0.01,0.07,0.01,0.07,0.01c-0.16-0.16-0.24-0.35-0.23-0.52
			c0.01-0.05-0.01-0.13-0.03-0.24c-0.03-0.12-0.03-0.2-0.03-0.25c0.01-0.04,0.05-0.1,0.12-0.19c0.07-0.08,0.1-0.14,0.08-0.19
			c0.03-0.05,0.07-0.1,0.14-0.16l0.19-0.15c0.05-0.08,0.09-0.15,0.1-0.21c0.02-0.05-0.03-0.13-0.11-0.2
			c-0.09-0.09-0.14-0.16-0.16-0.22c-0.02-0.06,0.02-0.14,0.1-0.24c0.09-0.1,0.15-0.21,0.17-0.3c0.03-0.1,0.03-0.22,0.04-0.36
			c0.01-0.1-0.01-0.23-0.03-0.43c-0.04-0.19-0.06-0.3-0.06-0.33c-0.01-0.29,0.1-0.6,0.36-0.92c-0.36,0.04-0.6,0.23-0.74,0.6
			c-0.15,0.37-0.32,0.68-0.54,0.92l0.03,0.09c0.03,0.03,0.04,0.05,0.08,0.04c0.03-0.01,0.07-0.03,0.09-0.09
			c0.03-0.05,0.04-0.09,0.05-0.1c0.28-0.03,0.37,0.08,0.28,0.31c-0.03,0.08-0.1,0.17-0.17,0.29c0.11,0.12,0.14,0.29,0.09,0.48
			c-0.05,0.01-0.1,0.03-0.16,0.07c-0.1,0.06-0.2,0.12-0.34,0.18c-0.03,0.01-0.06,0.03-0.09,0.03c-0.14,0.03-0.31,0.06-0.52,0.05
			c-0.27,0-0.49-0.03-0.66-0.09l-0.16-0.09c-0.06-0.03-0.11-0.05-0.16-0.05c0.01-0.07-0.01-0.11-0.04-0.13
			c-0.03-0.02-0.1-0.03-0.19-0.03l-0.2-0.54c-0.03-0.12-0.02-0.2,0.03-0.23c0.02-0.01,0.03-0.02,0.05-0.01
			c0.03,0.01,0.03,0.02,0.04,0.03c0.08,0.1,0.11,0.21,0.11,0.34c0.1-0.07,0.1-0.15,0.03-0.24c-0.04-0.04-0.06-0.17-0.06-0.38
			c-0.01-0.07-0.04-0.13-0.1-0.21c-0.1-0.1-0.17-0.19-0.22-0.25c-0.1-0.12-0.15-0.29-0.14-0.49c-0.1,0.33-0.1,0.67,0.01,1.03
			c0.07,0.15,0.08,0.3,0.03,0.46c-0.02,0.16,0.01,0.29,0.08,0.39c0.14,0.21,0.14,0.37,0,0.49c-0.08,0.12-0.07,0.23,0.03,0.36
			l0.31,0.23c-0.04,0.13,0.01,0.23,0.15,0.3c0.18,0.22,0.25,0.42,0.21,0.6c-0.12-0.05-0.23-0.06-0.36-0.01
			c0.23,0.15,0.38,0.36,0.47,0.63c-0.29-0.19-0.59-0.28-0.91-0.24c0.22,0.16,0.36,0.37,0.42,0.65c-0.12,0.22-0.08,0.46,0.11,0.72
			c-0.11,0.09-0.14,0.31-0.09,0.69l0.11-0.21c-0.01,0.19,0.06,0.38,0.22,0.58c0.02-0.18,0.05-0.26,0.09-0.22l0.16,0.32l0.06,0.82
			l-0.21,0.08c0.1,0.1,0.18,0.25,0.23,0.42l-0.07,0.07c-0.02,0-0.03-0.01-0.05-0.02l-0.02-0.01c-0.19-0.1-0.41-0.09-0.65,0.02
			c0.16,0.08,0.3,0.22,0.42,0.39l-0.07,0.04c-0.19-0.06-0.42-0.04-0.71,0.07c0.23,0.16,0.42,0.36,0.56,0.58l-0.06,0.22
			c-0.04,0.1,0.01,0.22,0.13,0.32c-0.12,0.1-0.16,0.33-0.1,0.69c0.04-0.16,0.1-0.25,0.17-0.27c-0.01,0.29,0.06,0.55,0.21,0.75
			c0-0.14,0.03-0.25,0.09-0.34l0.21,0.4l0.03,1.51c0,0.07-0.01,0.11-0.02,0.14c-0.02,0.05-0.07,0.1-0.15,0.12
			c-0.03,0.01-0.06,0.02-0.07,0.03c-0.01,0.02-0.01,0.04-0.01,0.08l0.02,0.14c0.05,0,0.09,0,0.1,0.02c0.01,0.01,0.02,0.03,0.03,0.1
			c0.02,0.08,0.07,0.16,0.16,0.23c0.1,0.06,0.19,0.1,0.31,0.11c0.12,0.02,0.24,0,0.34-0.05c0.12-0.07,0.21-0.17,0.27-0.31
			c0.01-0.04,0.02-0.06,0.03-0.06c0.02-0.03,0.04-0.03,0.08-0.02c0.04-0.06,0.05-0.13,0.02-0.23l-0.14-0.08
			c-0.02-0.02-0.03-0.05-0.02-0.1v-0.62c0.01-0.02,0.03-0.01,0.03,0.01c0.01,0.01,0.02,0.03,0.04,0.1c0.03,0.11,0.08,0.18,0.13,0.21
			c-0.01-0.1,0.03-0.16,0.09-0.19c0.12,0.48,0.33,0.93,0.64,1.34c-0.03-0.07-0.04-0.16-0.03-0.27c0.11,0.16,0.27,0.25,0.49,0.28
			c-0.1-0.08-0.13-0.13-0.09-0.15c0.56,0.09,1.05,0.11,1.5,0.07c0,0.03-0.04,0.07-0.14,0.1l0.76-0.03
			c-0.06-0.03-0.07-0.04-0.03-0.06c0.01,0,0.03,0,0.06,0.01l0.13,0.05c0.17,0.07,0.39,0.11,0.66,0.15c-0.07-0.04-0.1-0.08-0.08-0.1
			c0.02-0.02,0.13-0.01,0.35,0.03c0.24,0.05,0.45,0.07,0.62,0.07c-0.06-0.03-0.1-0.05-0.1-0.08c0.02-0.02,0.06-0.02,0.15,0.01
			l0.37,0.1c0.42,0.09,0.76,0.11,1.02,0.08c0.03-0.01,0.1,0.03,0.16,0.09L344.05,64c0.39-0.02,0.68,0.06,0.86,0.23h-13.38
			L331.62,47.98z M336.54,43.93c-1.06,0.88-2.09,2.01-3.07,3.39h-1.75C332.94,46.04,334.55,44.92,336.54,43.93z M354.82,47.32
			h-18.08c1.06-1.28,2.3-2.3,3.75-3.05c1.61-0.84,3.33-1.28,5.14-1.29c1.83-0.03,3.57,0.38,5.23,1.21
			C352.36,44.93,353.68,45.98,354.82,47.32z M337.25,45.04c0.71-0.69,1.49-1.26,2.34-1.72c0.88-0.49,1.8-0.86,2.72-1.1
			c1.01-0.28,2.06-0.43,3.14-0.47c0.89-0.03,1.86,0.06,2.9,0.27c1.03,0.21,2,0.53,2.93,0.98c0.99,0.47,1.92,1.1,2.79,1.87
			c0.84,0.75,1.56,1.56,2.17,2.45h-0.85c-1.24-1.55-2.71-2.75-4.42-3.58c-1.7-0.83-3.48-1.23-5.35-1.21
			c-1.86,0.03-3.62,0.45-5.27,1.3c-1.64,0.83-3.04,2-4.18,3.5h-0.82C335.74,46.64,336.37,45.88,337.25,45.04z M354.94,43.9
			c1.99,0.99,3.63,2.13,4.93,3.42h-1.85C357.03,45.92,356.01,44.79,354.94,43.9z M350.87,77.64c0.04,0.02,0.1,0.03,0.16,0.03
			c0.09,0,0.16-0.03,0.23-0.09s0.09-0.14,0.09-0.22c0-0.09-0.03-0.16-0.09-0.22c-0.06-0.06-0.14-0.1-0.23-0.1
			c-0.05,0-0.1,0.02-0.15,0.04v-0.44h3.59c-0.45,0.45-0.93,0.87-1.42,1.27h-2.19L350.87,77.64z M355.88,75.14
			c-0.1,0.12-0.21,0.25-0.32,0.37c-0.27,0.3-0.54,0.6-0.82,0.88h-3.84l0.03-1.26H355.88z M350.93,74.88l0.03-0.53
			c0.06,0,0.11,0.01,0.16,0.01c0.09,0,0.16-0.03,0.22-0.09c0.06-0.07,0.1-0.14,0.1-0.22c0-0.09-0.03-0.16-0.1-0.23
			c-0.06-0.06-0.13-0.09-0.22-0.09c-0.05,0-0.1,0.01-0.14,0.03l-0.02-0.13H357c-0.29,0.42-0.6,0.84-0.92,1.24H350.93z M334.32,70.62
			c-0.01,0.25-0.01,0.41,0,0.49c0,0.15,0.03,0.25,0.07,0.33c0.03,0.09,0.1,0.14,0.2,0.18c0.1,0.03,0.23,0.05,0.41,0.05
			c0.56-0.01,1.07-0.03,1.53-0.09c0.36-0.04,0.8-0.12,1.33-0.23c0.16-0.03,0.37-0.07,0.6-0.12c0.16-0.03,0.28-0.05,0.34-0.05
			c0.04,0,0.08,0.01,0.09,0.03c0.01,0.02,0.03,0.04,0.04,0.08c0.06,0.07,0.24,0.1,0.55,0.1h0.03c0.29,0,0.48-0.03,0.54-0.1
			c0.03-0.03,0.04-0.06,0.06-0.07c0.02-0.02,0.04-0.02,0.1-0.02c0.05,0,0.17,0.02,0.36,0.05c0.19,0.04,0.48,0.09,0.86,0.15
			c0.37,0.06,0.76,0.11,1.16,0.16c0.4,0.04,0.77,0.07,1.13,0.09c0.32,0.01,0.54,0,0.62-0.03c0.08-0.03,0.14-0.1,0.18-0.18
			c0.03-0.08,0.05-0.18,0.06-0.33c0.01-0.07,0.01-0.23,0-0.49h2.27c0,0.25,0,0.42,0,0.49c0.01,0.14,0.03,0.25,0.06,0.32
			c0.04,0.09,0.1,0.15,0.16,0.2c0.06,0.05,0.28,0.08,0.64,0.08c0.36,0,0.77-0.03,1.21-0.1c0.43-0.07,0.92-0.15,1.45-0.25
			c0.16-0.03,0.36-0.08,0.6-0.13c0.16-0.03,0.27-0.04,0.34-0.05c0.04,0,0.07,0.01,0.09,0.03c0.01,0.01,0.03,0.03,0.04,0.07
			c0.06,0.07,0.24,0.1,0.55,0.11h0.02c0.3-0.01,0.49-0.04,0.55-0.11c0.02-0.03,0.03-0.06,0.06-0.07c0.01-0.01,0.04-0.02,0.1-0.02
			c0.06,0,0.18,0.02,0.37,0.06c0.19,0.03,0.48,0.09,0.85,0.14c0.38,0.07,0.77,0.12,1.17,0.16c0.51,0.06,0.88,0.1,1.12,0.1
			c0.33,0.01,0.54,0,0.63-0.03c0.07-0.03,0.13-0.1,0.17-0.2c0.04-0.07,0.06-0.17,0.07-0.32c0-0.08,0-0.24,0-0.49h1.62l-0.62,1.25
			h-24.66c-0.34-0.55-0.55-0.95-0.63-1.25H334.32z M334.3,69.1l0.01,0.4c0.01,0.03,0,0.03-0.03,0.03c-0.04-0.02-0.09-0.03-0.14-0.03
			c-0.09,0-0.16,0.03-0.22,0.09c-0.06,0.06-0.1,0.14-0.1,0.22c0,0.09,0.03,0.16,0.1,0.22s0.13,0.1,0.22,0.1
			c0.05,0,0.1-0.02,0.14-0.03c0.02,0,0.03,0.01,0.03,0.02v0.25h-1.61c-0.19-0.42-0.33-0.83-0.43-1.25H334.3z M334.3,67.61
			l-0.01,1.24h-2.13c-0.12-0.41-0.22-0.82-0.29-1.24H334.3z M334.31,66.09v0.11c0,0.02-0.01,0.02-0.03,0.02
			c-0.04-0.02-0.09-0.03-0.14-0.03c-0.09,0-0.16,0.03-0.22,0.09c-0.06,0.06-0.1,0.13-0.1,0.22s0.03,0.16,0.1,0.22s0.13,0.1,0.22,0.1
			c0.05,0,0.1-0.02,0.14-0.03c0.03,0,0.03,0.01,0.03,0.03l-0.01,0.53h-2.49c-0.1-0.43-0.15-0.84-0.18-1.24H334.31z M338.9,70.56
			c-0.17,0-0.49,0.03-0.96,0.11c-0.47,0.08-0.88,0.13-1.24,0.16c-0.36,0.03-0.75,0.05-1.15,0.05c-0.1,0-0.17-0.03-0.22-0.1
			c-0.03-0.04-0.04-0.09-0.05-0.14c0-0.01-0.01-0.02-0.01-0.03v-0.1l0.03-5.33c0.62,0.1,1.07,0.15,1.34,0.11
			c0.29-0.03,0.69-0.09,1.21-0.16c0.53-0.08,0.89-0.08,1.1,0.01c0.21,0.08,0.36,0.15,0.42,0.2v5.31
			C339.24,70.6,339.08,70.56,338.9,70.56z M335.08,70.73c-0.01,0.11,0.01,0.2,0.05,0.27c0.05,0.06,0.12,0.1,0.22,0.1
			c0.41,0,0.83-0.03,1.28-0.09c0.2-0.03,0.56-0.09,1.08-0.18c0.39-0.07,0.69-0.1,0.89-0.12c0.3-0.02,0.56,0.03,0.78,0.11v0.23
			c-0.1-0.08-0.28-0.1-0.56-0.07c-0.15,0.02-0.49,0.08-0.99,0.17c-0.54,0.1-0.98,0.18-1.33,0.23c-0.56,0.07-1.08,0.1-1.57,0.08
			c-0.24-0.01-0.37-0.1-0.38-0.28c0-0.18-0.01-0.37-0.01-0.56c-0.03-1.4-0.03-3.01,0-4.83c0.12-0.27,0.33-0.47,0.62-0.6
			c-0.02,0.62-0.05,1.54-0.09,2.78C335.06,69.04,335.06,69.96,335.08,70.73z M339.64,70.66l0.03-5.3c0,0,0.04-0.02,0.12-0.07
			c0.09-0.05,0.19-0.1,0.29-0.13c0.21-0.07,0.38-0.1,0.5-0.11c0.13,0,0.32,0.04,0.59,0.1c0.32,0.09,0.73,0.13,1.22,0.14
			c0.33,0,0.77-0.03,1.33-0.1c0.05,1.79,0.03,3.59-0.08,5.42c-0.01,0.07-0.03,0.12-0.1,0.15c-0.05,0.03-0.18,0.03-0.38,0.02
			c-0.34-0.02-0.59-0.03-0.77-0.04c-0.53-0.03-0.95-0.07-1.27-0.1c-0.48-0.05-0.81-0.08-0.98-0.08
			C339.95,70.55,339.79,70.59,339.64,70.66z M339.64,70.82c0.22-0.09,0.48-0.13,0.77-0.11c0.38,0.03,0.69,0.05,0.9,0.09
			c0.34,0.07,0.7,0.1,1.08,0.13c0.5,0.07,0.91,0.1,1.22,0.1c0.1,0,0.17-0.03,0.22-0.09s0.06-0.15,0.05-0.25
			c0.03-1.03,0.03-1.94,0.01-2.72c-0.01-0.47-0.02-1.01-0.01-1.61c0.01-0.64,0.01-1.02,0-1.16c0.15,0.07,0.28,0.16,0.38,0.28
			c0.09,0.09,0.16,0.19,0.21,0.32c0,0.81-0.01,1.6-0.03,2.4c-0.02,1.01-0.03,1.99-0.06,2.99c-0.02,0.19-0.14,0.29-0.38,0.29
			c-0.4,0.02-0.89-0.02-1.48-0.09c-0.56-0.07-0.99-0.13-1.33-0.2c-0.5-0.1-0.83-0.16-0.98-0.17c-0.31-0.03-0.49-0.02-0.57,0.03
			V70.82z M344.66,67.33l0.03-0.54c0-0.01,0.01-0.02,0.03-0.02c0.04,0.02,0.09,0.03,0.14,0.03c0.09,0,0.16-0.03,0.22-0.1
			c0.06-0.06,0.1-0.13,0.1-0.22c0-0.08-0.03-0.16-0.1-0.22c-0.06-0.06-0.13-0.09-0.22-0.09c-0.05,0-0.1,0.01-0.14,0.03
			c-0.01,0-0.02,0-0.02,0c-0.01,0-0.01-0.01-0.01-0.03l0.01-0.11h2.12v0.11c0,0.02,0,0.03-0.01,0.03c0,0-0.01,0-0.02,0
			c-0.04-0.02-0.09-0.03-0.14-0.03c-0.09,0.01-0.16,0.03-0.23,0.1c-0.05,0.06-0.09,0.13-0.09,0.22s0.03,0.16,0.09,0.22
			c0.07,0.06,0.14,0.1,0.23,0.1c0.05,0,0.1-0.02,0.14-0.03c0.02,0,0.03,0.01,0.03,0.02v0.54H344.66z M344.62,68.84l0.03-1.26h2.16
			v1.26H344.62z M346.43,70.03c0.07,0.05,0.14,0.09,0.23,0.09c0.05,0,0.1-0.01,0.14-0.03c0.02,0,0.03,0.01,0.03,0.02v0.26h-2.23
			V70.1c0.01-0.01,0.02-0.02,0.03-0.02c0.04,0.02,0.1,0.03,0.14,0.03c0.09,0,0.16-0.03,0.23-0.1c0.06-0.06,0.1-0.13,0.1-0.22
			c0-0.08-0.03-0.16-0.1-0.22c-0.06-0.06-0.14-0.09-0.23-0.09c-0.04,0-0.1,0.01-0.14,0.03c-0.02,0.01-0.03,0-0.03-0.03l0.02-0.4h2.2
			l0.01,0.41c0,0.02-0.01,0.03-0.03,0.03c-0.04-0.03-0.09-0.03-0.14-0.03c-0.09,0-0.16,0.03-0.23,0.09
			c-0.05,0.07-0.09,0.14-0.09,0.23C346.34,69.89,346.38,69.97,346.43,70.03z M351.43,70.56c-0.18,0-0.5,0.03-0.96,0.08
			c-0.47,0.05-0.88,0.1-1.25,0.16c-0.36,0.05-0.67,0.08-0.93,0.09c-0.26,0-0.41-0.02-0.44-0.07c-0.04-0.05-0.06-0.1-0.05-0.13
			c0-0.03,0.01-0.08,0.01-0.16l0.03-5.33c0.62,0.1,1.07,0.14,1.34,0.11c0.28-0.03,0.69-0.09,1.21-0.16s0.89-0.08,1.1,0.01
			s0.36,0.16,0.43,0.2v5.32C351.76,70.6,351.6,70.56,351.43,70.56z M347.07,70.62c-0.03-1.4-0.03-3,0-4.83
			c0.12-0.27,0.33-0.46,0.62-0.6c-0.02,0.62-0.04,1.55-0.08,2.78c-0.03,1.08-0.03,2-0.01,2.78c-0.01,0.1,0.01,0.2,0.05,0.26
			c0.05,0.06,0.12,0.1,0.22,0.1c0.41,0,0.83-0.03,1.28-0.09c0.2-0.03,0.56-0.09,1.08-0.17c0.39-0.07,0.69-0.11,0.89-0.12
			c0.3-0.02,0.56,0.02,0.78,0.1v0.24c-0.1-0.08-0.29-0.1-0.56-0.07c-0.15,0.02-0.49,0.07-0.99,0.17c-0.54,0.1-1.04,0.2-1.52,0.29
			c-0.48,0.1-0.89,0.13-1.25,0.1c-0.36-0.03-0.53-0.16-0.51-0.38C347.07,71,347.07,70.81,347.07,70.62z M352.16,70.66l0.03-5.29
			c0,0,0.03-0.03,0.12-0.07c0.09-0.05,0.19-0.1,0.29-0.14c0.21-0.07,0.37-0.1,0.5-0.1c0.13,0,0.32,0.03,0.59,0.1
			c0.32,0.08,0.73,0.13,1.22,0.13c0.33,0.01,0.77-0.03,1.33-0.1c0.05,1.79,0.05,3.16-0.01,4.11c-0.02,0.28-0.03,0.62-0.04,1.01
			c-0.01,0.21-0.02,0.33-0.03,0.36c-0.04,0.07-0.1,0.12-0.19,0.16c-0.08,0.03-0.16,0.04-0.25,0.03l-2.08-0.23
			c-0.48-0.05-0.81-0.08-0.98-0.07C352.48,70.56,352.31,70.59,352.16,70.66z M352.16,70.82c0.22-0.15,0.49-0.21,0.83-0.16
			c0.34,0.03,0.66,0.08,0.95,0.13c0.29,0.05,0.65,0.11,1.08,0.17c0.43,0.07,0.75,0.1,0.96,0.09c0.2-0.01,0.32-0.04,0.36-0.1
			c0.04-0.06,0.06-0.15,0.05-0.26c0.03-1.01,0.03-1.92,0.01-2.72c-0.01-0.49-0.02-1.02-0.01-1.61c0-0.63,0.01-1.02,0-1.16
			c0.15,0.07,0.28,0.16,0.38,0.29c0.08,0.09,0.16,0.19,0.21,0.31c0,0.84-0.02,1.65-0.03,2.41c-0.02,1.07-0.04,2.06-0.07,2.98
			c-0.01,0.2-0.13,0.3-0.37,0.31c-0.35,0.01-0.84-0.03-1.48-0.1c-0.23-0.03-0.47-0.07-0.75-0.13c-0.28-0.07-0.47-0.11-0.58-0.13
			c-0.6-0.12-0.93-0.18-0.99-0.19c-0.24-0.03-0.43,0.02-0.56,0.12V70.82z M357.19,67.33l0.03-0.53c0.05,0.01,0.1,0.02,0.16,0.02
			c0.09,0,0.16-0.03,0.22-0.09c0.06-0.06,0.09-0.13,0.09-0.22s-0.03-0.16-0.09-0.22c-0.06-0.06-0.13-0.09-0.22-0.09
			c-0.05,0-0.1,0.01-0.13,0.03l-0.02-0.15h2.65l-0.19,1.24H357.19z M359.34,68.85h-2.19l0.03-1.26h2.46 M357.51,69.59
			c-0.06-0.06-0.13-0.1-0.23-0.1c-0.05,0-0.1,0.02-0.16,0.04v-0.43h2.13c-0.12,0.43-0.26,0.85-0.43,1.26h-1.71l0.01-0.28
			c0.04,0.02,0.1,0.03,0.16,0.03c0.1,0,0.16-0.03,0.23-0.09c0.06-0.06,0.09-0.14,0.09-0.22C357.59,69.72,357.57,69.65,357.51,69.59z
			 M351.33,50.28c-0.04-0.05-0.1-0.08-0.13-0.08c-0.02,0-0.03,0-0.04,0s-0.02-0.01-0.03-0.02c0-0.02,0.02-0.03,0.05-0.05
			c0.15-0.04,0.28-0.03,0.38,0.03c0.07,0.03,0.16,0.14,0.29,0.29c-0.1,0.09-0.21,0.14-0.34,0.16c-0.06,0.01-0.09-0.02-0.09-0.08
			C351.43,50.43,351.4,50.35,351.33,50.28z M349.8,53.5c-1.07,0-1.99-0.09-2.77-0.26c-0.44-0.1-0.84-0.29-1.2-0.54
			c-0.3-0.23-0.49-0.43-0.54-0.61c-0.06-0.19-0.06-0.3,0-0.34c0.06-0.03,0.15,0.01,0.29,0.16c0.44,0.48,1.06,0.76,1.86,0.85
			c1.09,0.12,1.87,0.3,2.34,0.56c0.08,0.03,0.12,0.08,0.13,0.11C349.92,53.48,349.88,53.5,349.8,53.5z M349.43,54.16
			c0.01-0.05,0.03-0.09,0.07-0.11c0,0.05,0.03,0.09,0.1,0.13L349.43,54.16z M359.97,64.65l-0.05,1.16h-2.65
			c-0.06-0.18-0.16-0.36-0.29-0.51c-0.14-0.17-0.29-0.29-0.44-0.32c-0.01-0.01-0.09-0.01-0.23-0.01c-0.69,0.1-1.09,0.15-1.2,0.17
			c-0.1,0.03-0.26,0.03-0.49,0c-0.23-0.03-0.48-0.06-0.75-0.12c-0.29-0.06-0.47-0.1-0.5-0.1c-0.28-0.02-0.53,0.03-0.75,0.11
			c-0.11,0.05-0.2,0.1-0.25,0.11c-0.09,0.04-0.18,0.07-0.26,0.08c-0.07,0.01-0.14,0-0.19-0.03c-0.08-0.05-0.16-0.1-0.23-0.14
			c-0.23-0.11-0.61-0.12-1.14-0.02c-0.53,0.1-0.92,0.14-1.15,0.13c-0.24-0.01-0.49-0.04-0.75-0.09c-0.63-0.11-0.99-0.14-1.08-0.08
			c-0.44,0.34-0.68,0.61-0.71,0.81h-2.11c-0.04-0.12-0.1-0.23-0.16-0.35c-0.03-0.06-0.08-0.11-0.12-0.16
			c-0.14-0.17-0.29-0.29-0.44-0.32c-0.01-0.01-0.1-0.01-0.24-0.01c-0.69,0.09-1.07,0.13-1.14,0.13c-0.08,0.01-0.23,0.01-0.44,0.01
			c-0.29,0-0.57-0.03-0.84-0.09c-0.3-0.06-0.47-0.1-0.5-0.1c-0.28-0.02-0.54,0.03-0.75,0.11c-0.11,0.05-0.2,0.1-0.25,0.11
			c-0.1,0.04-0.18,0.07-0.26,0.08c-0.07,0.01-0.14,0-0.19-0.03c-0.08-0.05-0.16-0.1-0.23-0.14c-0.23-0.11-0.6-0.13-1.11-0.05
			c-0.51,0.07-0.93,0.11-1.27,0.12c-0.18,0.01-0.41-0.01-0.68-0.04c-0.66-0.12-1.02-0.15-1.1-0.09c-0.43,0.33-0.65,0.62-0.65,0.84
			l-2.71-0.03c-0.03-0.29-0.04-0.49-0.05-0.62c-0.02-0.23-0.02-0.41,0-0.55H359.97z M340.56,75.15v1.25h-3.81
			c-0.06-0.05-0.12-0.11-0.18-0.17l-0.59-0.63l-0.02-0.03c-0.12-0.14-0.23-0.28-0.34-0.42H340.56z M340.18,74.27
			c0.07,0.06,0.14,0.09,0.23,0.09c0.05,0,0.1-0.01,0.14-0.03c0.02,0,0.03,0,0.03,0.02v0.55h-5.16l-0.95-1.26h6.11v0.11
			c0,0.01,0,0.02-0.01,0.03c0,0-0.01,0-0.02,0c-0.04-0.02-0.09-0.03-0.14-0.03c-0.09,0.01-0.16,0.03-0.23,0.1
			c-0.05,0.06-0.09,0.13-0.09,0.22C340.09,74.14,340.12,74.21,340.18,74.27z M340.18,77.58c0.07,0.05,0.14,0.09,0.23,0.09
			c0.05,0,0.1-0.01,0.14-0.03c0.03,0,0.03,0.01,0.03,0.02v0.27h-2.13l-1.41-1.25h3.55l0.01,0.39c0,0.02-0.02,0.03-0.04,0.02
			c-0.04-0.02-0.09-0.03-0.14-0.03c-0.09,0-0.16,0.03-0.23,0.09c-0.05,0.06-0.09,0.14-0.09,0.23
			C340.09,77.44,340.12,77.51,340.18,77.58z M341.48,78.24c0.01-0.03,0.01-0.08,0.01-0.16l0.03-5.33c0.56,0.1,1.01,0.12,1.34,0.09
			c0.08-0.01,0.23-0.04,0.47-0.1c0.23-0.06,0.45-0.1,0.65-0.13c0.22-0.03,0.46-0.02,0.71,0.03c0.09,0.01,0.25,0.04,0.49,0.1
			c0.23,0.05,0.38,0.11,0.47,0.16v5.3c-0.12-0.06-0.29-0.1-0.53-0.1c-0.17,0-0.49,0.03-0.96,0.08c-0.46,0.05-0.88,0.11-1.24,0.16
			c-0.36,0.05-0.67,0.08-0.94,0.09c-0.26,0.01-0.41-0.02-0.44-0.07C341.5,78.32,341.48,78.28,341.48,78.24z M340.83,78.59
			c-0.01-0.14-0.01-0.28-0.01-0.42c-0.03-1.4-0.03-3,0-4.83c0.1-0.29,0.31-0.49,0.62-0.6c-0.01,0.62-0.04,1.54-0.08,2.78
			c-0.03,1.08-0.03,2-0.01,2.78c-0.01,0.1,0.01,0.19,0.07,0.26c0.05,0.07,0.2,0.1,0.44,0.1s0.59-0.03,1.04-0.09
			c0.2-0.03,0.56-0.09,1.08-0.17c0.39-0.07,0.69-0.11,0.89-0.12c0.3-0.02,0.56,0.02,0.78,0.1v0.23c-0.14-0.12-0.31-0.16-0.52-0.13
			c-0.21,0.03-0.56,0.1-1.08,0.23c-0.5,0.11-1,0.22-1.47,0.31c-0.47,0.1-0.89,0.13-1.25,0.1c-0.13-0.02-0.23-0.02-0.29-0.02
			c-0.08,0.01-0.13-0.02-0.17-0.07c-0.05-0.06-0.06-0.16-0.04-0.29C340.83,78.68,340.83,78.63,340.83,78.59z M350.72,72.85
			c-0.1-0.13-0.21-0.22-0.31-0.28c-0.04-0.02-0.09-0.03-0.13-0.05c-0.02,0-0.09,0-0.23,0l-0.43,0.05c-0.42,0.06-0.67,0.1-0.71,0.1
			c-0.06,0-0.22-0.01-0.46-0.02c-0.27-0.01-0.47-0.02-0.61-0.04c-0.16-0.03-0.27-0.04-0.31-0.04c-0.06-0.01-0.18-0.02-0.36-0.02
			c-0.18-0.02-0.36,0-0.5,0.03c-0.16,0.03-0.28,0.05-0.36,0.07c-0.09,0.02-0.16,0.03-0.25,0.05c-0.08,0.03-0.16,0.03-0.23,0.04
			c-0.1,0.02-0.16,0.02-0.17,0.01c-0.04-0.03-0.23-0.08-0.56-0.14c-0.32-0.06-0.53-0.09-0.62-0.09c-0.4,0.02-0.6,0.03-0.61,0.03
			c-0.24,0.03-0.47,0.06-0.67,0.08c-0.37,0.03-0.65,0.04-0.82,0.01c-0.14-0.03-0.28-0.05-0.42-0.09c-0.14-0.03-0.29-0.04-0.46-0.04
			c-0.16-0.01-0.29,0.03-0.39,0.13c-0.1,0.09-0.21,0.21-0.33,0.36c-0.1,0.14-0.17,0.27-0.19,0.37h-6.26l-0.73-1.24h24.36
			c-0.23,0.42-0.48,0.82-0.74,1.22h-6.18C350.95,73.18,350.85,73.01,350.72,72.85z M345.91,72.92c0,0,0.07-0.02,0.21-0.08
			c0.16-0.05,0.26-0.08,0.33-0.1c0.16-0.03,0.3-0.04,0.43-0.03c0.04,0,0.12,0,0.25-0.01c0.12,0,0.25,0.02,0.37,0.03
			c0.49,0.08,0.88,0.12,1.17,0.13c0.19,0,0.63-0.04,1.31-0.13c0.01,0.79,0,1.93-0.02,3.41c-0.02,1.37-0.03,2.06-0.04,2.07
			c-0.01,0.03-0.02,0.06-0.03,0.13c-0.02,0.04-0.06,0.08-0.12,0.1c-0.04,0.02-0.14,0.02-0.28,0.01c-0.72-0.03-1.42-0.1-2.1-0.23
			c-0.53-0.08-0.85-0.11-0.97-0.11c-0.18,0-0.36,0.03-0.5,0.11L345.91,72.92z M345.91,78.37c0.1-0.07,0.23-0.1,0.37-0.12
			c0.11-0.01,0.27-0.01,0.46,0.02c0.35,0.03,0.66,0.08,0.95,0.13c0.29,0.05,0.65,0.11,1.08,0.18c0.36,0.04,0.67,0.07,0.95,0.05
			c0.19-0.01,0.31-0.05,0.37-0.13c0.04-0.06,0.06-0.15,0.05-0.26c0.03-1,0.03-1.91,0.01-2.72c-0.01-0.51-0.02-1.05-0.01-1.61
			c0-0.63,0.01-1.02,0-1.16c0.15,0.07,0.28,0.16,0.38,0.28c0.09,0.1,0.15,0.2,0.21,0.32c0,0.76-0.01,1.57-0.03,2.41
			c-0.02,1.03-0.03,2.02-0.07,2.98c-0.01,0.26-0.16,0.38-0.45,0.36c-0.29-0.03-0.64-0.07-1.05-0.13c-0.41-0.07-0.78-0.13-1.11-0.19
			c-0.27-0.04-0.46-0.08-0.57-0.1c-0.6-0.12-0.93-0.18-0.98-0.19c-0.25-0.03-0.44,0.01-0.57,0.11V78.37z M360.25,67.46
			c0.01-0.05,0.02-0.1,0.03-0.15c0.16-0.91,0.23-1.78,0.23-2.6l-0.01-6.78c0.91,0.75,1.69,1.77,2.35,3.07
			c0.65,1.31,1.05,2.52,1.21,3.63c0.15,1.12,0.14,2.23-0.02,3.34c-0.16,1.11-0.46,2.15-0.88,3.11c-0.42,0.96-1.04,1.92-1.85,2.86
			c-0.81,0.94-1.72,1.71-2.75,2.3c-1.02,0.59-1.86,0.99-2.54,1.18c-0.67,0.19-1.3,0.31-1.88,0.36c0.63-0.58,1.25-1.2,1.82-1.85
			c1.42-1.63,2.56-3.43,3.39-5.43c0.26-0.62,0.48-1.26,0.65-1.92C360.09,68.22,360.18,67.84,360.25,67.46z M362.29,50.07
			c-0.71-0.23-1.31-0.36-1.8-0.41v-1.73C361.26,48.73,361.86,49.44,362.29,50.07z M363.27,51.76l-0.96,0.56
			c-0.55-0.23-1.15-0.42-1.82-0.59v-0.87C361.62,51.15,362.55,51.45,363.27,51.76z M360.49,57.04l-0.01-4.77
			c0.53,0.07,1,0.21,1.42,0.42C361.71,53.9,361.24,55.35,360.49,57.04z M361.9,57.17l-0.93,0.07c0.6-1.5,1.08-3.03,1.47-4.58
			l0.88-0.49C363.02,53.79,362.55,55.46,361.9,57.17z M364.51,60.35c-0.56-1.14-1.27-2.16-2.13-3.04c0.78-1.91,1.3-3.82,1.56-5.72
			c-0.69-0.36-1.34-0.62-1.99-0.8c-0.64-0.16-1.13-0.29-1.47-0.34v-0.25c1.12,0.19,2.1,0.48,2.94,0.87
			c-0.81-1.36-1.79-2.6-2.94-3.74c-0.57-0.56-1.19-1.1-1.86-1.6c-2.03-1.58-4.34-2.77-6.91-3.59c2.27,1.24,4.17,2.98,5.68,5.2h-0.57
			c-0.05-0.08-0.1-0.16-0.15-0.23c-0.07-0.11-0.14-0.22-0.21-0.31c-0.08-0.11-0.16-0.22-0.24-0.33c-0.08-0.1-0.17-0.23-0.29-0.36
			c-0.1-0.13-0.21-0.26-0.34-0.4c-0.12-0.14-0.25-0.29-0.4-0.43c-0.19-0.2-0.39-0.38-0.59-0.56c-0.85-0.77-1.83-1.45-2.91-2.03
			c-0.94-0.49-1.93-0.84-2.99-1.07c-0.53-0.1-0.98-0.18-1.36-0.23c-0.47-0.05-0.96-0.08-1.49-0.07c-0.56,0.01-1.14,0.04-1.73,0.11
			c-0.62,0.07-1.16,0.16-1.63,0.28c-1.01,0.25-1.98,0.63-2.91,1.14c-2.13,1.18-3.75,2.68-4.85,4.49h-0.62
			c1.5-2.21,3.39-3.94,5.66-5.18c-2.57,0.82-4.87,2.02-6.91,3.59c-1.99,1.53-3.58,3.31-4.79,5.34c0.85-0.39,1.84-0.69,2.98-0.88
			l-0.01,0.21c-0.29,0.06-0.75,0.17-1.39,0.34c-0.65,0.17-1.31,0.43-1.99,0.8c0.26,1.91,0.78,3.82,1.56,5.72
			c-0.87,0.88-1.57,1.9-2.13,3.04c-0.53,1.09-0.92,2.25-1.17,3.45c-0.25,1.21-0.31,2.44-0.18,3.69c0.12,1.27,0.43,2.51,0.9,3.74
			c0.49,1.23,1.1,2.34,1.86,3.35c0.75,1.01,1.69,1.89,2.8,2.65s2.38,1.34,3.78,1.77c1.41,0.42,2.94,0.62,4.59,0.56
			c0.1,0.07,0.2,0.13,0.29,0.19h-0.08c-2.73,0.31-5.32-0.18-7.74-1.5c3.72,3.11,8.01,4.77,12.88,5c-0.79-0.46-1.62-1.21-2.51-2.26
			c0.21,0.07,0.43,0.14,0.64,0.2c0.01,0,0.03,0.01,0.03,0.01c0.59,0.82,1.39,1.52,2.4,2.09c0.05,0.03,0.1,0.05,0.16,0.08
			c0.04-0.03,0.1-0.05,0.16-0.08c0.98-0.52,1.78-1.21,2.4-2.08c0.23-0.06,0.45-0.14,0.67-0.21c-0.93,1.11-1.76,1.86-2.51,2.26
			c4.85-0.2,9.15-1.86,12.89-5.01c-2.52,1.35-5.11,1.86-7.75,1.54c0.09-0.06,0.17-0.12,0.26-0.18c1.69,0.04,3.24-0.15,4.66-0.57
			c1.41-0.42,2.67-1.01,3.78-1.77c1.11-0.75,2.05-1.64,2.8-2.65c0.75-1.01,1.37-2.12,1.86-3.35c0.48-1.23,0.78-2.47,0.9-3.74
			c0.13-1.26,0.06-2.49-0.18-3.69C365.43,62.59,365.04,61.44,364.51,60.35z M367.61,55.28l0.13,0.12
			C367.72,55.33,367.67,55.29,367.61,55.28z M366.42,63.18c-0.81-2.59-1.84-4.55-3.09-5.87c0.49-1.46,0.85-2.72,1.08-3.81
			C365.83,56.43,366.5,59.65,366.42,63.18z M366.46,58.47c-0.17-1.12-0.48-2.25-0.91-3.38c-0.36-0.93-0.81-1.9-1.38-2.94
			c-0.11,0.78-0.3,1.63-0.56,2.55c-0.2,0.73-0.48,1.6-0.82,2.61c1.1,1.38,1.95,2.8,2.56,4.26c0.62,1.49,0.95,3.05,1,4.7
			c0.32-1.35,0.47-2.72,0.44-4.12C366.78,61.02,366.67,59.8,366.46,58.47z M348.68,73.65c0.35-0.02,0.54,0.05,0.56,0.2
			c0.02,0.1,0,0.17-0.05,0.23c-0.04,0.04-0.14,0.09-0.27,0.11c-0.11,0.04-0.19,0.03-0.23-0.06V73.65z M348.03,75.24l0.03,0.1
			l0.59-0.08l0.03-0.8c0.03-0.03,0.08-0.03,0.13-0.02c0.04,0.01,0.09,0.03,0.11,0.08c0.02,0.02,0.07,0.14,0.16,0.35
			c0.04,0.06,0.08,0.12,0.12,0.2c0.03,0.05,0.07,0.09,0.1,0.11c0.07,0.05,0.11,0.08,0.12,0.09c0.16,0.03,0.33,0.03,0.5,0.02
			c-0.16-0.1-0.28-0.24-0.36-0.44c-0.03-0.12-0.07-0.21-0.1-0.27c-0.04-0.1-0.09-0.19-0.13-0.27c0.16-0.17,0.24-0.34,0.28-0.49
			c0.03-0.15-0.02-0.27-0.12-0.36c-0.23-0.2-0.72-0.24-1.45-0.11v0.14c0.16,0.01,0.23,0.1,0.23,0.26l-0.03,1.21
			C348.23,75.09,348.17,75.19,348.03,75.24z M354.23,67.66l0.13,0.18l0.62-0.08c-0.01-0.03,0-0.08,0.02-0.11
			c0.03-0.05,0.03-0.09,0.03-0.1l-0.1-0.02c-0.07-0.01-0.1-0.05-0.1-0.1l0.03-1.34c-0.01-0.1,0.05-0.18,0.17-0.23v-0.13l-0.72,0.03
			v0.16c0.08,0.01,0.13,0.06,0.16,0.16v1.37C354.45,67.57,354.38,67.65,354.23,67.66z M347.87,67.69l0.13,0.18l0.62-0.08
			c-0.02-0.03-0.01-0.08,0.01-0.12c0.03-0.04,0.04-0.08,0.04-0.1l-0.1-0.01c-0.07-0.02-0.1-0.05-0.1-0.1l0.03-1.34
			c-0.01-0.11,0.05-0.19,0.18-0.23v-0.13l-0.73,0.03v0.16c0.08,0,0.13,0.05,0.16,0.16v1.36C348.1,67.61,348.02,67.68,347.87,67.69z
			 M353.87,69h-0.31l0.16,0.26l-0.13,0.25h0.29l0.16,0.29l0.16-0.29l0.3,0.03l-0.15-0.28l0.15-0.26h-0.3l-0.16-0.31L353.87,69z
			 M350.63,65.94c-0.09,0.11-0.12,0.25-0.1,0.42c0.01,0.16,0.12,0.29,0.35,0.39c0.21,0.09,0.36,0.2,0.43,0.34
			c0.08,0.14,0.09,0.25,0.03,0.36c-0.17,0.11-0.35,0.1-0.53-0.03l-0.02-0.16l-0.16-0.13l-0.16,0.67l0.37,0.05
			c-0.02-0.03-0.02-0.06,0-0.08c0.52,0.12,0.82,0.02,0.9-0.3c0.03-0.22,0.03-0.38,0.01-0.5c-0.03-0.1-0.08-0.17-0.16-0.23
			c-0.05-0.03-0.14-0.06-0.27-0.1c-0.14-0.04-0.25-0.07-0.32-0.1c-0.07-0.06-0.12-0.14-0.13-0.23c-0.02-0.09,0-0.16,0.03-0.24
			c0.04-0.07,0.1-0.11,0.17-0.11c0.08-0.02,0.16,0.03,0.25,0.11l-0.04,0.18h0.22l0.14-0.52l-0.24,0.03l-0.04,0.07
			c-0.17-0.05-0.33-0.07-0.44-0.07C350.8,65.77,350.71,65.83,350.63,65.94z M349.45,68.33c-0.02-0.1-0.02-0.16,0-0.21h-1.6
			c0.03,0.03,0.03,0.11,0.01,0.22c-0.02,0.1-0.01,0.18,0.02,0.24h0.18c0.01-0.08,0.03-0.14,0.09-0.19c0.03-0.03,0.04-0.04,0.06-0.07
			l0.02-0.03c0.02,0,0.05,0,0.1,0.01c0.06,0.01,0.11,0.02,0.15,0.03l0.03,1.6c-0.02,0.15-0.11,0.23-0.29,0.26v0.08h0.82
			c0-0.03,0-0.08,0.03-0.13c0.02-0.06,0.03-0.1,0.03-0.13c-0.1-0.03-0.16-0.08-0.21-0.15v-1.5c0.15-0.03,0.25-0.03,0.32,0
			c0.09,0.03,0.13,0.1,0.13,0.2l0.16,0.03C349.48,68.52,349.47,68.43,349.45,68.33z M348.96,66.02l0.54,1.73l0.31,0.08l0.05-0.08
			l-0.16-0.16l0.64-1.6c0.07-0.07,0.11-0.11,0.14-0.13c0.05-0.03,0.11-0.06,0.18-0.08l0.03-0.09l-0.61-0.01l0.09,0.12l-0.49,1.21
			l-0.39-1.28h-0.59v0.16C348.84,65.88,348.92,65.92,348.96,66.02z M352.81,65.92c0.02-0.01,0.05,0,0.1,0
			c0.06,0.01,0.1,0.02,0.14,0.03l0.03,1.6c-0.02,0.15-0.11,0.23-0.29,0.25v0.08h0.83c-0.01-0.03,0-0.08,0.02-0.13
			c0.02-0.05,0.03-0.1,0.03-0.12c-0.1-0.03-0.16-0.09-0.2-0.15v-1.51c0.17-0.03,0.29-0.03,0.38,0c0.09,0.03,0.13,0.1,0.13,0.21
			l0.16,0.03c0.01-0.06,0-0.15-0.03-0.25c-0.02-0.1-0.02-0.16,0-0.22h-1.7c0.02,0.04,0.02,0.11,0,0.22
			c-0.02,0.1-0.01,0.19,0.03,0.25h0.18c0-0.08,0.03-0.15,0.09-0.2C352.75,65.97,352.79,65.94,352.81,65.92z M342.23,67.71l0.13,0.18
			l0.62-0.08c-0.01-0.03,0-0.08,0.02-0.12c0.03-0.04,0.03-0.08,0.03-0.1l-0.1-0.01c-0.06-0.02-0.1-0.05-0.1-0.1l0.03-1.34
			c-0.01-0.1,0.05-0.18,0.17-0.23v-0.12l-0.72,0.03v0.15c0.08,0.01,0.13,0.06,0.16,0.16v1.37C342.46,67.62,342.38,67.7,342.23,67.71
			z M341.69,75.38l0.08,0.1l1.21-0.04l0.23-0.7c-0.19,0.3-0.36,0.49-0.51,0.57c-0.08,0.03-0.16,0.03-0.23,0l-0.18-0.16l0.03-1.47
			c-0.01-0.11,0.04-0.18,0.16-0.21l0.05-0.15l-0.77,0.1l0.05,0.17c0.05-0.01,0.08,0.01,0.1,0.05l-0.03,1.42
			C341.88,75.21,341.82,75.32,341.69,75.38z M343.31,73.7v1.36c0,0.14-0.08,0.22-0.23,0.23l0.13,0.18l0.62-0.08
			c-0.01-0.03,0-0.08,0.02-0.12c0.03-0.04,0.03-0.08,0.03-0.1l-0.1-0.01c-0.06-0.02-0.1-0.05-0.1-0.1l0.03-1.34
			c0-0.11,0.06-0.19,0.18-0.23v-0.13l-0.72,0.03v0.16C343.24,73.54,343.29,73.59,343.31,73.7z M344.45,73.72l0.38-0.03
			c0.1,0.04,0.16,0.1,0.2,0.16c0.03,0.06,0.03,0.11-0.01,0.16c-0.08,0.12-0.24,0.18-0.49,0.19
			C344.47,74.2,344.44,74.03,344.45,73.72z M345.2,74.73c0.04,0.19-0.02,0.31-0.18,0.36c-0.21,0.13-0.38,0.11-0.51-0.05l-0.03-0.54
			C344.74,74.46,344.98,74.54,345.2,74.73z M345.15,75.4c0.11-0.03,0.2-0.1,0.27-0.21c0.06-0.1,0.09-0.2,0.09-0.33
			c0-0.12-0.03-0.23-0.09-0.34c-0.06-0.11-0.16-0.19-0.27-0.23c0.39-0.37,0.36-0.69-0.08-0.93l-1.06,0.06
			c0.03,0.05,0.03,0.1,0.03,0.16h0.05c0.08,0,0.11,0.03,0.1,0.1l-0.05,1.34c-0.02,0.12-0.07,0.22-0.18,0.29l0.05,0.08H345.15z
			 M340.32,69.83l-0.03-0.16l-0.18-0.12l-0.17,0.67l0.43,0.05c-0.03-0.03-0.03-0.06,0-0.09c0.61,0.12,0.95,0.03,1.05-0.29
			c0.04-0.22,0.05-0.39,0.01-0.5c-0.03-0.1-0.09-0.18-0.18-0.23c-0.06-0.03-0.16-0.06-0.32-0.1c-0.16-0.03-0.29-0.07-0.37-0.1
			c-0.09-0.05-0.14-0.13-0.16-0.23c-0.02-0.09,0-0.16,0.04-0.23c0.05-0.07,0.11-0.11,0.2-0.12c0.1-0.01,0.19,0.03,0.3,0.12
			l-0.06,0.18h0.26l0.16-0.52l-0.29,0.03l-0.04,0.06c-0.21-0.04-0.38-0.07-0.52-0.06c-0.13,0.01-0.24,0.06-0.34,0.18
			c-0.1,0.1-0.13,0.24-0.12,0.42c0.02,0.16,0.15,0.29,0.41,0.38c0.25,0.1,0.43,0.21,0.51,0.35c0.09,0.13,0.1,0.25,0.03,0.35
			C340.74,69.98,340.53,69.97,340.32,69.83z M342.08,69.34l-0.13,0.26h0.29l0.16,0.28l0.16-0.28l0.31,0.03l-0.16-0.29l0.16-0.26
			h-0.31l-0.16-0.3l-0.16,0.3h-0.31L342.08,69.34z M340.77,66.01c0.35-0.02,0.53,0.05,0.56,0.21c0.01,0.1-0.01,0.16-0.06,0.22
			c-0.04,0.04-0.13,0.08-0.27,0.12c-0.11,0.03-0.19,0.02-0.23-0.07V66.01z M340.12,67.62l0.03,0.1l0.6-0.07l0.03-0.81
			c0.03-0.03,0.07-0.03,0.12-0.02c0.04,0.02,0.09,0.03,0.11,0.08c0.02,0.03,0.07,0.14,0.16,0.36c0.03,0.05,0.08,0.12,0.12,0.19
			c0.03,0.05,0.06,0.1,0.09,0.11c0.07,0.05,0.11,0.09,0.13,0.09c0.16,0.03,0.32,0.03,0.49,0.03c-0.15-0.1-0.27-0.24-0.36-0.45
			c-0.04-0.11-0.08-0.21-0.1-0.27c-0.04-0.1-0.09-0.19-0.13-0.26c0.16-0.18,0.24-0.35,0.28-0.49c0.03-0.15-0.02-0.27-0.12-0.36
			c-0.23-0.21-0.72-0.24-1.45-0.12v0.14c0.16,0.01,0.23,0.1,0.23,0.26l-0.03,1.21C340.32,67.46,340.25,67.56,340.12,67.62z
			 M344.79,76.51c0,0.07-0.03,0.11-0.08,0.13c-0.08,0.02-0.16,0.03-0.26,0.02c-0.04,0-0.08-0.03-0.1-0.1
			c-0.01-0.19,0.03-0.38,0.11-0.56c0.14-0.07,0.23-0.04,0.28,0.07C344.78,76.21,344.81,76.36,344.79,76.51z M345.26,77.46
			c-0.12-0.36-0.23-0.79-0.29-1.28c0-0.19,0.1-0.29,0.3-0.28l0.1-0.23l-1.7,0.05c0,0.08,0.02,0.13,0.05,0.16
			c0.03,0.03,0.09,0.03,0.16,0.03c0.05-0.01,0.09,0.02,0.11,0.06c0.03,0.04,0.03,0.09,0.02,0.15l-0.34,1.29
			c-0.03,0.15-0.1,0.24-0.23,0.29l0.05,0.1l0.55-0.03l0.15-0.6c0.05-0.28,0.26-0.38,0.65-0.3l0.28,0.98l0.36-0.05l0.04-0.17
			C345.39,77.65,345.3,77.6,345.26,77.46z M350.17,69.94h-0.02 M350.15,69.94c-0.03,0.1-0.1,0.18-0.21,0.22l0.02,0.03 M345.66,78.61
			v-0.23 M345.93,82.32l0.02-0.72 M345.59,82.92v-0.4 M345.92,82.92l0.01-0.37 M345.58,82.33l-0.01-0.73 M338.44,77.92l-1.41-1.25
			 M345.91,72.92l0.01,5.32 M335.41,74.89l-0.95-1.26 M370.13,55.19c-0.04-0.08-0.1-0.1-0.15-0.09c-0.06,0.02-0.57-0.02-1.53-0.08
			c-0.48-0.03-0.95-0.07-1.41-0.1c-0.14-0.09-0.26-0.18-0.37-0.29c-0.09-0.03-0.14,0.02-0.15,0.12c0.02,0.16,0.06,0.33,0.11,0.49
			v0.01c0.02,0.03,0.03,0.05,0.03,0.08c0.04,0.13,0.11,0.26,0.18,0.39c0.05,0.03,0.09,0.03,0.13,0.02c0.04-0.03,0.07-0.1,0.07-0.2
			c0,0,0,0,0-0.01c0-0.05,0.01-0.1,0.03-0.14c0.02-0.04,0.04-0.07,0.08-0.09c0.01-0.01,0.02-0.02,0.03-0.02
			c0.1-0.05,0.23-0.05,0.43,0l0.13,0.12c0.12,0.28,0.23,0.64,0.34,1.1c-0.13,0.15-0.29,0.27-0.49,0.36c-0.05,0.02-0.1,0-0.12-0.03
			c-0.06-0.09-0.1-0.14-0.13-0.16c-0.09-0.07-0.16-0.04-0.2,0.1c0.07,0.41,0.18,0.78,0.36,1.12c0.04,0.05,0.1,0.07,0.14,0.06
			c0.05-0.01,0.08-0.05,0.1-0.12c-0.02-0.08-0.02-0.13-0.01-0.15c0.01-0.07,0.04-0.15,0.11-0.23c0.33-0.29,0.79-0.69,1.39-1.2
			c0.61-0.5,0.91-0.79,0.93-0.85C370.18,55.33,370.17,55.26,370.13,55.19z M369.33,55.47l-0.96,0.77l-0.29-0.94l1.23,0.1
			C369.35,55.42,369.35,55.45,369.33,55.47z M360.72,42.32c-0.01-0.03-0.02-0.04-0.02-0.06l-0.09-0.17
			c-0.03-0.1,0.03-0.15,0.18-0.14c0.15,0.09,0.28,0.16,0.4,0.26c0.14,0.1,0.28,0.22,0.41,0.34c0.03,0.07,0.04,0.12,0.03,0.16
			c-0.02,0.03-0.05,0.04-0.11,0.04c-0.05,0-0.12,0-0.2-0.01c-0.06,0-0.1,0.02-0.13,0.05c-0.44,0.51-0.92,1.14-1.43,1.87
			c-0.03,0.05-0.04,0.09-0.04,0.09c-0.01,0.03,0,0.07,0.03,0.1c0.08,0.11,0.1,0.18,0.06,0.24c-0.03,0.04-0.11,0.05-0.22,0.03
			c-0.28-0.16-0.54-0.37-0.77-0.62c-0.01-0.05-0.01-0.1,0.02-0.13c0.03-0.03,0.07-0.05,0.13-0.04l0.17,0.02
			c0.05,0,0.1-0.03,0.12-0.06c0.52-0.58,1.01-1.21,1.46-1.89C360.72,42.37,360.72,42.34,360.72,42.32 M359.09,40.9L359.09,40.9
			c0,0.04-0.02,0.07-0.05,0.09c-0.03,0-0.08,0-0.16-0.02c-0.06-0.01-0.1,0-0.12,0.03c-0.4,0.53-0.82,1.19-1.24,1.99
			c-0.04,0.06-0.04,0.13,0,0.23c0.03,0.06,0.22,0.2,0.6,0.41c0.11,0.02,0.22,0.02,0.3,0l0.42-0.2c0.12-0.03,0.17,0.02,0.16,0.16
			c-0.16,0.27-0.36,0.49-0.6,0.64c-0.05,0.02-0.1-0.01-0.16-0.08c-0.04-0.07-0.1-0.12-0.17-0.16l-1.53-0.93
			c-0.07-0.03-0.09-0.09-0.06-0.16c0.03-0.06,0.11-0.09,0.23-0.08c0.06,0,0.1,0,0.12,0c0.04-0.01,0.07-0.03,0.09-0.07
			c0.41-0.59,0.78-1.21,1.12-1.86c0.03-0.06,0.07-0.12,0.1-0.18c0.05-0.06,0.01-0.16-0.11-0.3c-0.01-0.03,0-0.06,0.02-0.1
			c0.03-0.03,0.05-0.05,0.1-0.05c0.37,0.15,0.68,0.33,0.9,0.55C359.08,40.83,359.09,40.87,359.09,40.9 M367.75,49.78
			c0-0.01-0.01-0.02-0.01-0.03c-0.27-0.49-0.58-1-0.94-1.49c-0.16-0.1-0.23-0.05-0.22,0.15l0.02,0.1c0.01,0.06-0.02,0.1-0.08,0.13
			c-0.44,0.34-0.9,0.63-1.38,0.89c-0.21,0.11-0.42,0.22-0.63,0.32c-0.06,0.03-0.11,0.03-0.16,0.01l-0.17-0.11
			c-0.04,0-0.07,0.01-0.1,0.05c-0.03,0.03-0.03,0.06-0.03,0.09c0.03,0.16,0.1,0.33,0.21,0.5c0.1,0.16,0.23,0.31,0.39,0.44
			c0.08,0,0.13-0.03,0.15-0.1l-0.03-0.2c-0.01-0.05,0.02-0.1,0.07-0.14c0.1-0.07,0.21-0.14,0.31-0.22c0.16-0.1,0.31-0.2,0.47-0.29
			c0.07-0.05,0.12-0.04,0.17,0.02c0.18,0.26,0.26,0.48,0.24,0.68c-0.03,0.13-0.12,0.29-0.31,0.51c-0.14,0.16-0.22,0.24-0.23,0.27
			c-0.09,0.1-0.16,0.2-0.2,0.29c-0.06,0.17-0.06,0.32,0.01,0.47c0.06,0.14,0.16,0.25,0.33,0.34c0.09,0.01,0.15,0,0.18-0.04
			c0.04-0.04,0.04-0.09,0-0.13c-0.09-0.08-0.1-0.17-0.06-0.28c0.05-0.11,0.16-0.25,0.36-0.42c0.09-0.1,0.16-0.17,0.19-0.23
			c0.06-0.09,0.1-0.17,0.12-0.26c0.03-0.08,0.03-0.15,0.03-0.2c-0.01-0.06-0.03-0.11-0.07-0.18c-0.02-0.04,0-0.06,0.04-0.03
			c0.19,0.16,0.39,0.23,0.59,0.24c0.19,0.01,0.36-0.04,0.51-0.16c0.09-0.06,0.16-0.15,0.22-0.24c0.03-0.05,0.05-0.11,0.07-0.18
			C367.86,50.17,367.84,49.98,367.75,49.78z M367.34,49.98c-0.04,0.14-0.1,0.24-0.21,0.33c-0.1,0.09-0.22,0.13-0.37,0.11
			c-0.15-0.02-0.3-0.09-0.44-0.23c-0.12-0.15-0.23-0.32-0.31-0.52l0.88-0.5c0.14-0.1,0.29,0.03,0.43,0.39
			C367.38,49.71,367.38,49.84,367.34,49.98z M364.56,45.77c0-0.2,0.09-0.23,0.28-0.1l1.26,1.52c0.15,0.09,0.21,0.16,0.18,0.23
			c-0.1,0.19-0.22,0.35-0.39,0.49c-0.1,0.03-0.16,0.01-0.18-0.06c-0.02-0.06,0-0.14,0.04-0.25c0.04-0.1,0.04-0.21-0.01-0.35
			l-0.51-0.62c-0.03-0.03-0.05-0.04-0.08-0.06c-0.08-0.04-0.16-0.03-0.24,0.03c-0.19,0.11-0.39,0.25-0.6,0.43
			c-0.07,0.06-0.08,0.11-0.03,0.17l0.32,0.4c0.05,0.09,0.12,0.12,0.21,0.11c0.04-0.01,0.12-0.03,0.23-0.1
			c0.04-0.03,0.09-0.05,0.11-0.06c0.03-0.01,0.05-0.01,0.08,0c0.03,0.02,0.06,0.03,0.08,0.07c0.01,0.03,0.01,0.05-0.02,0.09
			c-0.04,0.05-0.09,0.1-0.14,0.16c-0.23,0.26-0.52,0.47-0.88,0.63c-0.02,0.01-0.03,0-0.06-0.03c-0.02-0.03-0.02-0.07,0-0.1
			l0.19-0.28c0.06-0.07,0.06-0.16,0.01-0.24L364,47.37c-0.03-0.03-0.1-0.02-0.18,0.03L363.18,48c-0.05,0.08-0.06,0.14-0.03,0.2
			c0.18,0.27,0.37,0.51,0.59,0.74c0.08,0.09,0.2,0.12,0.36,0.09l0.29-0.05h0.13c0.1,0.02,0.08,0.1-0.06,0.24
			c-0.22,0.18-0.43,0.29-0.66,0.32c-0.08,0.02-0.13,0-0.15-0.07c-0.01-0.05-0.03-0.1-0.07-0.16c-0.48-0.55-0.83-0.98-1.07-1.28
			c-0.15-0.19-0.23-0.31-0.25-0.36c-0.03-0.1,0-0.15,0.11-0.16c0.07-0.02,0.13,0.01,0.18,0.05c0.04,0.03,0.08,0.03,0.13-0.01
			c0.34-0.19,0.96-0.69,1.87-1.49c0.03-0.05,0.05-0.1,0.03-0.14L364.56,45.77 M363.7,44.62c-0.03-0.09-0.04-0.16-0.07-0.21
			c-0.03-0.07-0.1-0.13-0.17-0.19l-1.3-1.19c-0.2-0.01-0.25,0.08-0.16,0.26c0.03,0.08,0.03,0.15,0,0.22
			c-0.58,0.69-1.1,1.27-1.57,1.73c-0.06,0.07-0.16,0.08-0.27,0.04c-0.11-0.04-0.18-0.03-0.21,0.02c-0.01,0.16,0.09,0.29,0.29,0.41
			l0.93,0.88c0.15,0.17,0.34,0.29,0.56,0.32c0.21,0.03,0.4,0.02,0.59-0.08c0.19-0.08,0.32-0.21,0.41-0.37
			c0.09-0.18,0.1-0.38,0.02-0.6c-0.03-0.11-0.09-0.23-0.17-0.34l-0.1-0.15l0.23,0.08c0.18,0.04,0.31,0.06,0.41,0.05
			c0.15-0.02,0.28-0.08,0.37-0.16c0.1-0.09,0.16-0.19,0.2-0.32C363.73,44.9,363.73,44.76,363.7,44.62z M361.94,46.34
			c-0.14,0.11-0.36,0.1-0.65-0.05l-0.36-0.34c-0.11-0.1-0.11-0.21,0-0.34l0.64-0.69c0.29,0.19,0.5,0.4,0.62,0.64
			C362.36,45.85,362.28,46.11,361.94,46.34z M362.87,45.07c-0.15,0.09-0.29,0.1-0.44,0.05c-0.23-0.08-0.43-0.24-0.62-0.49
			c0.2-0.24,0.42-0.48,0.67-0.69c0.06-0.08,0.14-0.08,0.23-0.03c0.26,0.22,0.4,0.42,0.43,0.59C363.2,44.7,363.11,44.89,362.87,45.07
			z M367.98,57.99c0.02-0.01,0.04-0.02,0.06-0.03c0.1-0.02,0.22-0.03,0.33-0.03c0.11,0.08,0.12,0.16,0.04,0.26l-0.3,0.28
			c-0.13,0.12-0.22,0.25-0.24,0.39c-0.06,0.27-0.03,0.49,0.11,0.65c0.21,0.19,0.38,0.26,0.52,0.19c0.09-0.03,0.16-0.1,0.24-0.2
			c0.08-0.1,0.12-0.21,0.15-0.31l0.25-0.83c0.08-0.22,0.19-0.36,0.34-0.46c0.28-0.17,0.56-0.19,0.84-0.04
			c0.37,0.2,0.56,0.53,0.58,0.99c0,0.29,0.01,0.46,0.02,0.51c0.1,0.1,0.11,0.2,0.02,0.29c-0.09,0.08-0.29,0.17-0.59,0.29
			c-0.1,0.01-0.16-0.03-0.17-0.09c-0.01-0.06,0.04-0.15,0.15-0.27c0.13-0.14,0.21-0.26,0.23-0.37c0.06-0.43-0.03-0.69-0.29-0.8
			c-0.34-0.12-0.57,0.09-0.71,0.61l-0.17,0.64c-0.09,0.32-0.27,0.52-0.56,0.6c-0.32,0.1-0.59,0.07-0.79-0.1
			c-0.17-0.1-0.3-0.27-0.4-0.5c-0.12-0.29-0.16-0.65-0.12-1.08c0.03-0.23,0.09-0.36,0.17-0.43
			C367.77,58.08,367.87,58.02,367.98,57.99 M368.63,51.24c0.03,0.03,0.04,0.05,0.04,0.1c0.2,0.53,0.34,0.88,0.41,1.06
			c0.16,0.39,0.31,0.73,0.46,1.01c0.03,0.05,0.04,0.1,0.03,0.13c0,0.03-0.03,0.08-0.07,0.12c-0.22,0.17-0.43,0.29-0.63,0.33
			c-0.08-0.01-0.12-0.05-0.13-0.14c0.03-0.07,0.11-0.16,0.22-0.27c0.08-0.09,0.12-0.16,0.12-0.21c0.02-0.16-0.03-0.31-0.11-0.46
			c-0.03-0.07-0.1-0.09-0.21-0.04c-0.3,0.12-0.59,0.23-0.88,0.36c-0.1,0.05-0.21,0.1-0.31,0.14c-0.35,0.15-0.69,0.31-1.04,0.47
			l-0.02,0.28c-0.02,0.03-0.03,0.07-0.06,0.08c-0.03,0.02-0.05,0.02-0.07-0.01c-0.11-0.09-0.21-0.23-0.3-0.43
			c-0.09-0.19-0.15-0.38-0.18-0.57c0.03-0.11,0.08-0.15,0.16-0.11l0.19,0.14c0.03,0.03,0.09,0.03,0.15,0l2.17-0.89
			c0.07-0.06,0.1-0.12,0.07-0.17c-0.03-0.13-0.08-0.23-0.14-0.31c-0.12-0.14-0.29-0.19-0.51-0.16c-0.18-0.03-0.24-0.11-0.19-0.23
			c0.19-0.12,0.43-0.2,0.73-0.23C368.57,51.21,368.6,51.21,368.63,51.24 M326.12,46.33c0.03-0.06,0.07-0.09,0.1-0.1
			c0.03-0.02,0.08-0.02,0.14,0c0.27,0.1,0.47,0.22,0.62,0.38 M326.12,46.33c-0.16,0.27-0.38,0.58-0.64,0.91
			c-0.11,0.16-0.35,0.45-0.7,0.89c-0.03,0.02-0.05,0.04-0.06,0.08c0,0.04,0.01,0.09,0.03,0.13c0.17,0.23,0.36,0.41,0.57,0.51
			c0.13-0.02,0.16-0.11,0.1-0.29c-0.14-0.17-0.18-0.35-0.12-0.51c0.03-0.1,0.1-0.19,0.19-0.29c0.04-0.05,0.1-0.06,0.19-0.03
			l1.88,1.41c0.04,0.04,0.08,0.09,0.08,0.13l-0.03,0.23c0.01,0.09,0.07,0.11,0.18,0.08c0.28-0.24,0.49-0.56,0.62-0.93
			c-0.01-0.07-0.05-0.1-0.13-0.08l-0.25,0.12c-0.66-0.45-1.32-0.93-1.97-1.44c-0.09-0.07-0.11-0.14-0.08-0.21
			c0.09-0.15,0.2-0.26,0.34-0.33c0.05-0.03,0.14-0.03,0.25,0c0.15,0.03,0.26,0.05,0.35,0.05c0.06-0.05,0.08-0.11,0.05-0.18
			 M330.22,42.31c-0.39,0.23-0.59,0.56-0.59,0.98c0,0.32,0.15,0.56,0.43,0.72c0.16,0.1,0.35,0.12,0.57,0.08l0.85-0.18
			c0.1-0.03,0.23-0.03,0.35-0.01c0.12,0.02,0.22,0.06,0.29,0.11c0.12,0.1,0.15,0.28,0.08,0.55c-0.09,0.21-0.26,0.34-0.51,0.42
			c-0.14,0.04-0.29,0.03-0.47-0.03l-0.38-0.12c-0.13-0.03-0.19,0.02-0.21,0.16c0.13,0.25,0.3,0.42,0.51,0.51
			c0.1,0.04,0.25,0.03,0.47-0.05c0.39-0.17,0.69-0.38,0.88-0.62c0.16-0.19,0.25-0.39,0.26-0.59c0.05-0.26-0.04-0.51-0.29-0.75
			c-0.21-0.22-0.48-0.29-0.8-0.21l-0.65,0.16c-0.52,0.13-0.82,0.02-0.88-0.34c-0.03-0.28,0.16-0.49,0.57-0.64
			c0.1-0.03,0.25-0.02,0.43,0.03c0.15,0.03,0.25,0.03,0.3,0c0.05-0.03,0.05-0.1,0-0.2c-0.24-0.21-0.43-0.34-0.54-0.37
			c-0.13-0.03-0.21,0.02-0.25,0.16C330.63,42.08,330.48,42.17,330.22,42.31 M324.33,48.91l-0.5,0.88c0.01,0.15,0.07,0.21,0.18,0.16
			l0.16-0.12c0.04-0.02,0.09-0.02,0.13,0c0.72,0.36,1.41,0.76,2.05,1.21c0.04,0.03,0.07,0.06,0.08,0.11v0.17
			c0,0.06,0.02,0.1,0.06,0.13c0.03,0.02,0.08,0.02,0.12,0c0.23-0.27,0.4-0.56,0.53-0.85c0.02-0.11,0-0.18-0.05-0.22
			c-0.06-0.03-0.13,0-0.23,0.1c-0.03,0.03-0.06,0.03-0.09,0.03c-0.01,0-0.04-0.02-0.1-0.03c-0.79-0.42-1.47-0.82-2.04-1.19
			c-0.07-0.06-0.1-0.17-0.08-0.33C324.52,48.85,324.45,48.82,324.33,48.91 M322.51,54.13c-0.21-0.07-0.42-0.09-0.62-0.05
			c-0.07,0.01-0.1,0.1-0.09,0.28l-0.56,1.88c-0.01,0.23,0.07,0.29,0.23,0.18l0.1-0.1c0.03-0.03,0.06-0.05,0.12-0.05
			c1.18,0.31,1.95,0.55,2.3,0.73c0.05,0.02,0.08,0.05,0.08,0.1c-0.01,0.08,0.01,0.14,0.05,0.18c0.07,0.09,0.14,0.1,0.19,0.01
			c0.03-0.05,0.1-0.19,0.16-0.42c0.13-0.36,0.28-0.9,0.47-1.6c0.03-0.07,0.06-0.12,0.1-0.16c0.04-0.04,0.03-0.1-0.03-0.15
			c-0.15-0.17-0.36-0.29-0.63-0.37c-0.2-0.03-0.28-0.01-0.24,0.09l0.08,0.1l0.21,0.22c0.11,0.11,0.16,0.23,0.13,0.35
			c-0.07,0.3-0.16,0.61-0.29,0.9c-0.03,0.05-0.1,0.08-0.18,0.08l-0.85-0.21c-0.1-0.04-0.14-0.09-0.13-0.12l0.16-0.6
			c0.03-0.1,0.1-0.14,0.21-0.13h0.33c0.04,0,0.07-0.02,0.09-0.05s0.02-0.06-0.01-0.08c-0.4-0.23-0.81-0.36-1.22-0.39
			c-0.03-0.01-0.07,0.01-0.08,0.03c-0.03,0.03-0.03,0.06-0.01,0.1c0.01,0.04,0.06,0.08,0.15,0.12c0.11,0.05,0.18,0.1,0.21,0.13
			c0.05,0.07,0.06,0.15,0.03,0.23l-0.16,0.49c-0.02,0.08-0.07,0.1-0.15,0.08c-0.27-0.08-0.5-0.16-0.7-0.26
			c-0.13-0.03-0.17-0.13-0.15-0.29l0.23-0.77c0.09-0.12,0.18-0.19,0.29-0.21c0.11-0.02,0.19-0.05,0.23-0.1
			C322.6,54.25,322.58,54.19,322.51,54.13 M326.41,51.76c-0.03-0.08-0.08-0.12-0.14-0.13c-0.06-0.01-0.1,0.02-0.1,0.08
			c-0.02,0.11-0.09,0.17-0.2,0.2c-0.12,0.02-0.3-0.01-0.55-0.07c-0.13-0.03-0.23-0.04-0.29-0.04c-0.1-0.01-0.19,0.01-0.28,0.03
			s-0.15,0.06-0.19,0.1c-0.03,0.03-0.08,0.09-0.1,0.16c-0.03,0.03-0.05,0.03-0.06-0.03c0.03-0.23-0.01-0.45-0.11-0.62
			c-0.1-0.16-0.23-0.28-0.41-0.34c-0.17-0.07-0.34-0.07-0.51-0.02c-0.19,0.07-0.35,0.19-0.47,0.37c-0.28,0.5-0.53,1.04-0.75,1.62
			c0,0.18,0.09,0.22,0.24,0.1l0.08-0.08c0.04-0.03,0.1-0.03,0.16,0c0.75,0.27,1.45,0.61,2.12,1.03c0.05,0.03,0.09,0.07,0.1,0.13
			v0.21c0.01,0.03,0.04,0.05,0.09,0.06c0.04,0,0.08-0.01,0.1-0.03c0.12-0.11,0.22-0.26,0.3-0.45c0.08-0.18,0.14-0.37,0.16-0.57
			c-0.05-0.06-0.1-0.09-0.16-0.07l-0.16,0.13c-0.04,0.03-0.09,0.04-0.15,0.02c-0.29-0.12-0.58-0.24-0.86-0.38
			c-0.07-0.03-0.1-0.08-0.08-0.16c0.12-0.29,0.27-0.49,0.44-0.56c0.11-0.06,0.32-0.07,0.6-0.03c0.21,0.03,0.33,0.04,0.35,0.04
			c0.14,0.02,0.26,0.02,0.36,0.01c0.17-0.04,0.29-0.12,0.38-0.26C326.39,52.1,326.43,51.94,326.41,51.76z M324.14,52.42
			c-0.06,0.18-0.15,0.36-0.27,0.55l-0.9-0.47c-0.16-0.06-0.14-0.26,0.09-0.57c0.09-0.12,0.2-0.2,0.34-0.24
			c0.13-0.03,0.26-0.04,0.39-0.01c0.12,0.03,0.23,0.11,0.29,0.25C324.16,52.06,324.17,52.23,324.14,52.42z M331.07,45.69
			c-0.03-0.03-0.09-0.05-0.16-0.03c-0.06,0.03-0.1,0.06-0.13,0.07c-0.06,0.03-0.15,0.03-0.24,0.01c-0.42-0.16-0.99-0.38-1.72-0.67
			c-0.74-0.29-1.13-0.43-1.18-0.42c-0.07,0.02-0.12,0.06-0.17,0.13c-0.05,0.08-0.05,0.13,0,0.17c0.03,0.04,0.25,0.51,0.64,1.38
			c0.19,0.44,0.38,0.88,0.57,1.3c-0.02,0.16-0.04,0.32-0.08,0.47c0.03,0.09,0.08,0.11,0.18,0.08c0.13-0.1,0.25-0.22,0.37-0.33
			c0-0.01,0-0.01,0-0.01c0.02-0.02,0.04-0.04,0.06-0.07c0.1-0.1,0.18-0.22,0.26-0.34c0-0.06-0.02-0.1-0.05-0.12
			c-0.04-0.03-0.11-0.03-0.21,0.03c0,0,0,0,0,0.01c-0.05,0.03-0.1,0.03-0.15,0.04c-0.03,0-0.07-0.01-0.1-0.03
			c-0.02-0.01-0.03-0.02-0.03-0.03c-0.09-0.06-0.16-0.19-0.2-0.37c-0.03-0.06-0.01-0.12,0.05-0.18c0.23-0.26,0.5-0.54,0.81-0.81
			c0.2,0.03,0.38,0.12,0.55,0.25c0.03,0.04,0.04,0.09,0.03,0.13c-0.05,0.09-0.08,0.15-0.09,0.19c-0.02,0.11,0.04,0.16,0.18,0.13
			c0.33-0.25,0.6-0.53,0.82-0.85C331.1,45.78,331.1,45.72,331.07,45.69z M328.54,46.54l-0.49-1.13c-0.01-0.04,0.01-0.06,0.05-0.05
			l1.14,0.49L328.54,46.54z M324.03,59.2c0.09-0.04,0.09-0.1,0-0.16c-1.16-0.71-2.03-1.25-2.6-1.61c-0.09-0.05-0.14-0.15-0.16-0.27
			c-0.08-0.19-0.16-0.21-0.26-0.04c-0.08,0.27-0.12,0.56-0.13,0.85c0.01,0.09,0.03,0.15,0.1,0.15c0.05,0.01,0.1-0.02,0.16-0.1
			c0.06-0.09,0.1-0.13,0.13-0.15c0.06-0.03,0.13-0.03,0.2,0l0.03,0.02c0.54,0.27,1.04,0.57,1.49,0.9c0.04,0.03,0.07,0.05,0.08,0.08
			c0,0.03-0.02,0.04-0.06,0.05c-0.7,0.23-1.34,0.38-1.93,0.43c-0.05-0.02-0.09-0.04-0.1-0.09c0,0-0.01-0.04-0.03-0.12
			c-0.02-0.1-0.06-0.14-0.12-0.14c-0.06-0.01-0.1,0.04-0.15,0.14c-0.04,0.12-0.08,0.29-0.1,0.49c-0.01,0.09-0.02,0.26-0.03,0.51
			c0.02,0.1,0.06,0.14,0.11,0.14c0.06-0.01,0.1-0.05,0.14-0.14c0.07-0.1,0.16-0.17,0.29-0.21C322.14,59.73,323.12,59.48,324.03,59.2
			 M320.68,64.95c0.02,0.07,0.08,0.11,0.18,0.14c1.27-0.08,2.11-0.19,2.5-0.34c0.02-0.02,0.03-0.04,0.05-0.06
			c0.02-0.03,0.03-0.08,0.03-0.12c0.04-0.14,0.14-0.15,0.26-0.05c0.08,0.23,0.16,0.91,0.28,2.06c0.07,0.17,0.1,0.28,0.1,0.32
			c-0.16,0.16-0.39,0.24-0.66,0.23h-0.01c-0.11-0.04-0.15-0.11-0.1-0.2c0.03-0.02,0.07-0.04,0.1-0.07c0.12-0.1,0.19-0.23,0.23-0.38
			c-0.01-0.29-0.04-0.56-0.1-0.83c-0.02-0.09-0.06-0.15-0.13-0.2c-0.01-0.01-0.02-0.02-0.03-0.02l-0.96,0.09l0.1,0.72
			c0.03,0.09,0.1,0.13,0.17,0.12c0.19,0,0.31,0.02,0.36,0.06c0.04,0.07,0.02,0.13-0.05,0.18c-0.1,0.06-0.28,0.1-0.53,0.14
			c-0.27,0.04-0.5,0.04-0.71,0.02c-0.1-0.02-0.12-0.08-0.07-0.18l0.3-0.16c0.11-0.05,0.16-0.11,0.15-0.18l-0.04-0.59
			c-0.03-0.08-0.07-0.1-0.13-0.08l-1.03,0.16c-0.07,0.02-0.1,0.06-0.1,0.12c-0.03,0.21-0.13,0.27-0.28,0.18
			c-0.08-0.16-0.13-0.51-0.16-1.06C320.44,64.8,320.54,64.79,320.68,64.95 M324.63,69.64c-0.1,0.16-0.23,0.27-0.4,0.34
			c-0.18,0.06-0.36,0.07-0.54,0.01c-0.1-0.03-0.2-0.08-0.29-0.15c-0.09-0.07-0.16-0.15-0.23-0.25c-0.03-0.03-0.06-0.03-0.05,0.03
			c0.02,0.07,0.03,0.14,0.02,0.19c-0.01,0.06-0.03,0.12-0.08,0.19c-0.04,0.09-0.11,0.16-0.19,0.23c-0.04,0.03-0.13,0.1-0.25,0.16
			c-0.23,0.11-0.38,0.22-0.45,0.31c-0.08,0.1-0.09,0.19-0.03,0.29c0.03,0.05,0.03,0.1-0.03,0.12c-0.04,0.04-0.11,0.03-0.18,0
			c-0.14-0.12-0.22-0.27-0.24-0.43c-0.03-0.16,0.02-0.31,0.12-0.46c0.07-0.07,0.16-0.15,0.27-0.23c0.03-0.02,0.12-0.09,0.3-0.2
			c0.23-0.16,0.38-0.3,0.43-0.43c0.08-0.17,0.07-0.42-0.04-0.72c-0.03-0.08-0.1-0.1-0.16-0.07c-0.3,0.09-0.61,0.18-0.92,0.29
			c-0.05,0.03-0.09,0.06-0.1,0.12l-0.03,0.2c-0.03,0.05-0.1,0.07-0.17,0.05c-0.11-0.16-0.21-0.35-0.26-0.55
			c-0.07-0.19-0.1-0.37-0.08-0.55c0-0.03,0.02-0.05,0.06-0.08c0.03-0.03,0.07-0.03,0.11-0.02l0.14,0.16
			c0.04,0.03,0.1,0.05,0.16,0.03c0.64-0.11,1.27-0.27,1.88-0.49c0.15-0.05,0.29-0.1,0.43-0.16c0.07-0.01,0.1-0.04,0.11-0.1
			l0.01-0.11c0.04-0.19,0.13-0.22,0.25-0.09c0.23,0.6,0.4,1.18,0.53,1.75C324.76,69.26,324.73,69.45,324.63,69.64z M324.37,68.71
			c-0.04-0.38-0.16-0.56-0.33-0.49l-1,0.25c0.03,0.23,0.09,0.42,0.16,0.6c0.06,0.1,0.12,0.17,0.2,0.24c0.05,0.04,0.11,0.08,0.17,0.1
			c0.15,0.05,0.28,0.05,0.4-0.01c0.12-0.05,0.22-0.15,0.29-0.27C324.35,69,324.38,68.86,324.37,68.71z M324.75,70.43
			c0.01,0.04-0.02,0.09-0.06,0.13c-0.49,0.25-0.93,0.46-1.27,0.62c-0.44,0.21-0.76,0.34-0.98,0.4c-0.05,0.02-0.1,0-0.13-0.03
			c-0.04-0.06-0.1-0.1-0.16-0.1c-0.11-0.03-0.16,0.02-0.16,0.12c0.02,0.07,0.06,0.21,0.16,0.43c0.16,0.36,0.41,0.88,0.75,1.54
			c0.03,0.08,0.03,0.14,0.03,0.19c0,0.07,0.04,0.1,0.12,0.1c0.12,0.02,0.25,0.01,0.38-0.02c0.12-0.03,0.24-0.07,0.36-0.13
			c0.17-0.11,0.22-0.19,0.12-0.23l-0.13-0.03l-0.3-0.02c-0.03-0.01-0.03-0.01-0.05-0.01c-0.14-0.02-0.23-0.08-0.29-0.18
			c-0.16-0.28-0.29-0.57-0.4-0.88c-0.01-0.06,0.02-0.12,0.09-0.18l0.79-0.43c0.1-0.03,0.16-0.03,0.19,0.01l0.29,0.56
			c0.03,0.1,0.01,0.17-0.07,0.24l-0.26,0.23c-0.03,0.03-0.03,0.06-0.03,0.1c0.02,0.04,0.03,0.06,0.06,0.05
			c0.39-0.07,0.73-0.21,1.03-0.4c0.05-0.04,0.11-0.09,0.17-0.13c0.03-0.03,0.04-0.05,0.03-0.09c0-0.03-0.03-0.06-0.06-0.08
			c-0.02-0.02-0.04-0.02-0.08-0.02c-0.03,0-0.07,0.01-0.13,0.03c-0.11,0.03-0.2,0.04-0.24,0.03c-0.09-0.01-0.15-0.06-0.18-0.16
			l-0.22-0.49c-0.03-0.07-0.02-0.12,0.07-0.16c0.25-0.12,0.49-0.21,0.71-0.28c0.09-0.04,0.17-0.03,0.25,0.03
			c0.02,0.03,0.03,0.05,0.06,0.08l0.35,0.75c0.02,0.15-0.01,0.27-0.08,0.35c-0.07,0.1-0.11,0.17-0.1,0.24
			c0.01,0.07,0.06,0.1,0.16,0.1c0.2-0.1,0.37-0.22,0.51-0.38c0.04-0.06,0-0.16-0.13-0.28l-0.86-1.83c-0.16-0.18-0.26-0.17-0.3,0.03
			L324.75,70.43 M326.14,73.19c0.01,0.03,0,0.07-0.02,0.1c0,0.01-0.03,0.03-0.07,0.07c-0.76,0.52-1.45,0.95-2.06,1.28
			c-0.1,0.04-0.21,0.02-0.34-0.08c-0.13-0.03-0.19,0.03-0.16,0.17l0.56,0.88c0.14,0.06,0.22,0.03,0.24-0.09l-0.04-0.2
			c0.01-0.05,0.03-0.09,0.06-0.11c0.68-0.49,1.38-0.92,2.1-1.28c0.03-0.03,0.09-0.03,0.14-0.02l0.16,0.09c0.05,0.03,0.1,0.03,0.15,0
			c0.03-0.02,0.05-0.06,0.06-0.11c-0.14-0.33-0.31-0.62-0.52-0.88c-0.1-0.07-0.16-0.09-0.22-0.05
			C326.11,72.98,326.1,73.06,326.14,73.19 M327.37,74.56c-0.19-0.15-0.29-0.12-0.29,0.08l0.02,0.16c0.02,0.04,0.01,0.09-0.03,0.14
			c-0.96,0.8-1.62,1.28-1.98,1.47c-0.05,0.03-0.1,0.03-0.13,0c-0.06-0.04-0.12-0.07-0.18-0.06c-0.12,0.01-0.16,0.06-0.13,0.16
			c0.03,0.06,0.11,0.19,0.25,0.39c0.23,0.32,0.59,0.77,1.06,1.34c0.03,0.07,0.06,0.13,0.07,0.18c0.02,0.07,0.06,0.1,0.14,0.08
			c0.23-0.03,0.47-0.13,0.69-0.31c0.15-0.14,0.17-0.23,0.07-0.25h-0.13l-0.31,0.05c-0.16,0.03-0.29-0.02-0.36-0.11
			c-0.21-0.23-0.4-0.49-0.58-0.77c-0.03-0.06-0.01-0.13,0.04-0.2l0.69-0.59c0.09-0.05,0.16-0.06,0.18-0.03l0.41,0.49
			c0.05,0.09,0.04,0.17-0.02,0.24l-0.21,0.29c-0.02,0.03-0.02,0.06,0,0.1c0.02,0.04,0.04,0.05,0.06,0.04
			c0.37-0.16,0.68-0.36,0.93-0.62c0.04-0.05,0.1-0.1,0.14-0.16c0.03-0.03,0.03-0.07,0.03-0.1c-0.02-0.03-0.04-0.05-0.09-0.07
			c-0.02-0.01-0.04-0.01-0.07,0c-0.03,0.01-0.08,0.03-0.12,0.06c-0.11,0.05-0.19,0.09-0.24,0.09c-0.08,0.01-0.15-0.03-0.21-0.12
			l-0.31-0.42c-0.05-0.07-0.04-0.12,0.03-0.17c0.22-0.18,0.43-0.32,0.63-0.43c0.08-0.06,0.16-0.07,0.24-0.02
			c0.03,0.02,0.05,0.03,0.08,0.06l0.51,0.66c0.04,0.15,0.05,0.27,0,0.36c-0.05,0.1-0.07,0.19-0.05,0.25
			c0.02,0.07,0.08,0.1,0.18,0.07c0.17-0.14,0.31-0.29,0.42-0.49c0.03-0.07-0.03-0.15-0.18-0.24L327.37,74.56 M367.84,64.24
			c0.13-0.1,0.22-0.09,0.26,0.04c-0.02,0.1,0.02,0.17,0.1,0.23c0.94,0.19,1.89,0.35,2.86,0.46c0.03,0.01,0.05,0.03,0.06,0.05
			c0,0.02,0,0.05-0.01,0.1c-0.02,0.1-0.35,0.35-1.01,0.76c-0.41,0.25-1.07,0.64-1.97,1.16l2.06,0.29c0.18-0.03,0.27-0.1,0.27-0.18
			c0.12-0.15,0.22-0.11,0.28,0.1c0.02,0.22-0.01,0.43-0.08,0.64c-0.04,0.11-0.1,0.16-0.16,0.16c-0.06-0.01-0.1-0.05-0.14-0.14
			c-0.02-0.07-0.03-0.11-0.05-0.14c-0.02-0.03-0.04-0.06-0.08-0.07c-0.82-0.16-1.64-0.29-2.45-0.36c-0.06-0.02-0.1,0.03-0.12,0.1
			c-0.14,0.19-0.24,0.19-0.31,0c-0.02-0.23,0.01-0.47,0.08-0.69c0.99-0.54,1.88-1.08,2.68-1.6c-0.63-0.15-1.28-0.23-1.91-0.26
			c-0.06-0.02-0.12,0-0.18,0.05l-0.1,0.19c-0.15,0.02-0.21-0.02-0.2-0.11C367.69,64.77,367.73,64.5,367.84,64.24 M367.21,67.81
			c-0.15,0.33-0.24,0.66-0.29,1c0.02,0.11,0.05,0.17,0.11,0.19c0.07,0.03,0.13-0.03,0.2-0.16c0.02-0.03,0.04-0.05,0.09-0.05
			c0,0,0.03,0,0.1,0.01c0.91,0.19,1.7,0.4,2.38,0.62c0.04,0.02,0.08,0.05,0.1,0.1c0.03,0.09,0.06,0.15,0.08,0.2
			c0.03,0.06,0.05,0.09,0.09,0.09c0.05,0,0.1-0.03,0.15-0.09c0.07-0.18,0.11-0.36,0.16-0.54c0.03-0.15,0.06-0.31,0.09-0.48
			c-0.05-0.16-0.13-0.2-0.21-0.12l-0.14,0.15c-0.01,0.01-0.03,0.03-0.04,0.05c-0.02,0.01-0.03,0.02-0.07,0.01
			c-0.82-0.16-1.63-0.37-2.4-0.64c-0.04-0.01-0.09-0.04-0.11-0.09l-0.04-0.17c-0.02-0.06-0.05-0.1-0.1-0.11
			C367.3,67.76,367.26,67.78,367.21,67.81 M366.41,70.13c-0.17,0.28-0.31,0.62-0.4,1.03c0.02,0.03,0.04,0.06,0.08,0.09
			c0.03,0.01,0.06,0.01,0.1,0c0.13-0.16,0.23-0.21,0.29-0.16c0.08,0.03,0.15,0.04,0.22,0.07c0.73,0.23,1.44,0.51,2.12,0.82
			c0.04,0.02,0.07,0.03,0.09,0.08c0.01,0.03,0.02,0.06,0.02,0.13c0.02,0.12,0.05,0.2,0.13,0.22c0.07,0.03,0.12,0,0.15-0.09
			l0.69-1.73c0.03-0.08,0.07-0.16,0.13-0.22c0.07-0.06,0.09-0.12,0.05-0.17c-0.2-0.22-0.45-0.39-0.77-0.49
			c-0.14,0-0.18,0.06-0.13,0.18l0.29,0.39c0.03,0.1,0.05,0.2,0.05,0.32c-0.16,0.43-0.26,0.66-0.32,0.69
			c-0.09,0.06-0.16,0.08-0.24,0.04c-0.89-0.29-1.65-0.61-2.26-0.93c-0.03-0.01-0.05-0.05-0.05-0.12c0-0.09,0-0.14-0.02-0.16
			 M363.56,75.9l0.51-0.67c0.13-0.09,0.25-0.12,0.36-0.1c0.12,0.03,0.21,0.02,0.27-0.02c0.06-0.03,0.07-0.1,0.02-0.19
			c-0.17-0.15-0.37-0.24-0.59-0.29c-0.07-0.01-0.13,0.07-0.18,0.23l-1.26,1.65c-0.1,0.23-0.04,0.31,0.16,0.26l0.14-0.06
			c0.04-0.03,0.09-0.03,0.15,0c1.04,0.74,1.7,1.27,1.98,1.56c0.04,0.04,0.05,0.09,0.03,0.14c-0.03,0.06-0.03,0.13-0.02,0.19
			c0.03,0.11,0.1,0.14,0.19,0.08c0.05-0.03,0.16-0.16,0.31-0.35c0.26-0.31,0.62-0.77,1.06-1.39c0.05-0.06,0.11-0.1,0.16-0.11
			c0.07-0.03,0.08-0.09,0.03-0.16c-0.08-0.23-0.24-0.43-0.48-0.61c-0.18-0.1-0.28-0.1-0.27,0l0.03,0.13l0.12,0.29
			c0.07,0.16,0.07,0.29-0.01,0.39c-0.17,0.27-0.38,0.53-0.62,0.77c-0.05,0.03-0.12,0.04-0.21,0.01l-0.75-0.52
			c-0.07-0.08-0.1-0.14-0.08-0.17l0.38-0.52c0.07-0.08,0.16-0.1,0.24-0.05l0.33,0.12c0.03,0.02,0.07,0.01,0.1-0.02
			c0.03-0.03,0.03-0.05,0.03-0.08c-0.26-0.31-0.55-0.56-0.86-0.74c-0.06-0.04-0.12-0.08-0.19-0.1c-0.04-0.02-0.07-0.02-0.1,0
			c-0.03,0.03-0.04,0.05-0.05,0.1c0,0.02,0.01,0.04,0.02,0.07c0.02,0.03,0.05,0.07,0.09,0.1c0.09,0.1,0.14,0.16,0.16,0.21
			c0.03,0.08,0.01,0.16-0.06,0.23l-0.34,0.43c-0.05,0.07-0.11,0.08-0.18,0.02c-0.23-0.17-0.42-0.35-0.58-0.51
			c-0.09-0.07-0.11-0.15-0.09-0.24C363.53,75.96,363.54,75.93,363.56,75.9 M368.77,73.02c0,0.19-0.03,0.35-0.13,0.47
			c-0.1,0.13-0.23,0.22-0.41,0.24c-0.1,0.01-0.22,0-0.36-0.03c-0.03,0-0.14-0.03-0.35-0.06c-0.29-0.06-0.49-0.06-0.62-0.01
			c-0.18,0.08-0.34,0.26-0.48,0.55c-0.03,0.08-0.01,0.13,0.07,0.16c0.16,0.1,0.33,0.18,0.5,0.26c0.11,0.06,0.23,0.12,0.36,0.17
			c0.05,0.03,0.1,0.03,0.15-0.01l0.16-0.13c0.07-0.01,0.12,0.02,0.16,0.09c-0.03,0.21-0.1,0.39-0.19,0.57
			c-0.1,0.19-0.21,0.34-0.33,0.44c-0.03,0.02-0.06,0.03-0.1,0.03c-0.04-0.02-0.08-0.03-0.09-0.08l0.01-0.21
			c-0.01-0.06-0.04-0.1-0.1-0.13c-0.2-0.14-0.4-0.28-0.61-0.41c-0.48-0.29-0.97-0.54-1.49-0.76c-0.06-0.03-0.1-0.03-0.16,0
			l-0.09,0.08c-0.16,0.1-0.24,0.06-0.23-0.12c0.25-0.57,0.54-1.1,0.84-1.59c0.01-0.01,0.01-0.02,0.02-0.03
			c0.13-0.18,0.29-0.29,0.49-0.35c0.06-0.02,0.13-0.03,0.19-0.03c0.11,0,0.23,0.02,0.33,0.07c0.17,0.08,0.3,0.2,0.39,0.36
			c0.1,0.19,0.13,0.41,0.09,0.65c0.01,0.05,0.03,0.06,0.06,0.03c0.03-0.07,0.08-0.12,0.12-0.16c0.04-0.03,0.1-0.06,0.19-0.08
			c0.09-0.03,0.19-0.03,0.29-0.03c0.07,0.01,0.16,0.03,0.29,0.05c0.24,0.09,0.42,0.11,0.56,0.1c0.11-0.02,0.19-0.08,0.22-0.19
			c0.01-0.06,0.05-0.09,0.1-0.08C368.7,72.9,368.75,72.94,368.77,73.02z M366.39,73.07c-0.06-0.15-0.16-0.23-0.29-0.28
			c-0.12-0.03-0.26-0.04-0.4-0.01c-0.15,0.03-0.26,0.11-0.36,0.23c-0.24,0.31-0.29,0.5-0.12,0.58l0.89,0.53
			c0.13-0.18,0.23-0.36,0.3-0.55C366.47,73.38,366.46,73.21,366.39,73.07z M364.43,79.32c-0.01,0.05-0.02,0.12-0.03,0.18
			c-0.06,0.23-0.18,0.42-0.37,0.56l-0.98,0.92c-0.15,0.2-0.29,0.29-0.45,0.28c-0.06-0.03-0.06-0.1-0.01-0.23
			c0.04-0.11,0.03-0.21-0.03-0.29c-0.45-0.51-1.02-1.09-1.71-1.75c-0.07-0.04-0.15-0.04-0.23-0.01c-0.07,0.03-0.12,0.04-0.16,0.03
			c-0.08,0-0.11-0.06-0.1-0.17c0-0.01,0-0.03,0.01-0.04l1.32-1.28c0.07-0.08,0.14-0.14,0.22-0.17c0.05-0.03,0.13-0.04,0.22-0.06
			c0.07-0.01,0.14-0.01,0.21-0.01c0.08,0.01,0.15,0.03,0.23,0.05c0.13,0.04,0.23,0.12,0.32,0.23c0.09,0.11,0.13,0.25,0.15,0.41
			c0.01,0.1-0.03,0.23-0.09,0.43l-0.1,0.24l0.16-0.1c0.12-0.08,0.25-0.13,0.37-0.16c0.23-0.07,0.43-0.05,0.62,0.05
			c0.17,0.1,0.29,0.25,0.37,0.45C364.41,79.02,364.44,79.17,364.43,79.32z M362.56,78.66c0.06-0.16,0.05-0.31-0.03-0.46
			c-0.17-0.28-0.37-0.39-0.58-0.34c-0.19,0.03-0.41,0.16-0.65,0.42c-0.06,0.1-0.06,0.18,0.02,0.24c0.21,0.27,0.43,0.51,0.69,0.75
			C362.28,79.09,362.47,78.88,362.56,78.66z M363.79,79.25c-0.21-0.37-0.47-0.48-0.79-0.32c-0.26,0.1-0.5,0.3-0.72,0.61l0.69,0.72
			c0.13,0.12,0.24,0.13,0.35,0.03l0.37-0.36C363.87,79.63,363.91,79.4,363.79,79.25z M346.46,87.5c-0.02-0.06-0.05-0.09-0.12-0.07
			c-0.11,0.03-0.2-0.01-0.27-0.11c-0.07-0.1-0.12-0.29-0.16-0.55c-0.03-0.14-0.06-0.23-0.09-0.29c-0.03-0.1-0.09-0.18-0.15-0.25
			c-0.06-0.07-0.11-0.11-0.16-0.14c-0.05-0.03-0.12-0.03-0.19-0.03c-0.05-0.02-0.06-0.03-0.01-0.06c0.11-0.04,0.22-0.09,0.31-0.15
			c0.1-0.07,0.17-0.15,0.23-0.23c0.11-0.16,0.16-0.33,0.16-0.52c-0.01-0.19-0.08-0.36-0.21-0.49c-0.14-0.16-0.32-0.25-0.54-0.29
			c-0.6-0.05-1.21-0.07-1.86-0.04c-0.17,0.09-0.16,0.17,0,0.28l0.11,0.04c0.05,0.03,0.07,0.08,0.06,0.15
			c0.01,0.16,0.02,0.3,0.03,0.46c0.02,0.66-0.02,1.32-0.12,1.98c0,0.07-0.03,0.12-0.08,0.16l-0.19,0.09
			c-0.03,0.03-0.03,0.06-0.02,0.11c0.01,0.03,0.03,0.07,0.06,0.08c0.16,0.07,0.34,0.1,0.56,0.1c0.2,0,0.41-0.03,0.61-0.08
			c0.04-0.08,0.04-0.14,0-0.19l-0.18-0.1c-0.06-0.02-0.09-0.06-0.09-0.13c-0.01-0.33-0.01-0.65,0-0.97c0-0.09,0.03-0.13,0.12-0.14
			c0.33-0.02,0.56,0.04,0.72,0.18c0.1,0.08,0.19,0.27,0.28,0.56c0.05,0.21,0.1,0.33,0.1,0.36c0.04,0.13,0.09,0.24,0.14,0.33
			c0.1,0.15,0.24,0.23,0.41,0.26c0.16,0.03,0.31-0.01,0.49-0.1C346.45,87.63,346.47,87.56,346.46,87.5z M345.25,85.54
			c-0.04,0.06-0.09,0.1-0.16,0.15c-0.08,0.05-0.17,0.09-0.29,0.11c-0.2,0.03-0.41,0.02-0.63-0.03l0.07-1.05
			c-0.01-0.18,0.19-0.23,0.58-0.16c0.15,0.03,0.27,0.1,0.37,0.23c0.09,0.1,0.15,0.23,0.17,0.36
			C345.39,85.28,345.35,85.41,345.25,85.54z M347.16,85.93c-0.21-0.09-0.36-0.22-0.45-0.37c-0.16-0.3-0.16-0.59,0.02-0.88
			c0.23-0.36,0.57-0.54,1.05-0.53c0.3,0.02,0.48,0.02,0.52,0.02c0.12-0.1,0.22-0.1,0.3-0.01c0.09,0.1,0.17,0.3,0.27,0.62
			c-0.01,0.11-0.03,0.17-0.1,0.17c-0.06,0-0.16-0.05-0.26-0.16c-0.14-0.15-0.26-0.23-0.37-0.26c-0.43-0.1-0.72-0.01-0.85,0.25
			c-0.14,0.34,0.05,0.6,0.58,0.77l0.65,0.22c0.33,0.1,0.53,0.31,0.59,0.62c0.08,0.34,0.03,0.61-0.16,0.81
			c-0.11,0.17-0.29,0.29-0.54,0.38c-0.3,0.1-0.68,0.12-1.11,0.06c-0.23-0.05-0.37-0.12-0.43-0.21c-0.14-0.2-0.19-0.44-0.17-0.73
			c0.09-0.11,0.17-0.12,0.27-0.03l0.26,0.32c0.12,0.15,0.25,0.24,0.4,0.28c0.26,0.08,0.49,0.05,0.68-0.08
			c0.2-0.2,0.28-0.37,0.23-0.52c-0.03-0.09-0.1-0.18-0.2-0.26c-0.1-0.09-0.2-0.15-0.3-0.18L347.16,85.93 M349.17,84.19
			c-0.02-0.06,0.03-0.12,0.12-0.18c0.32-0.1,0.66-0.16,1.01-0.17c0.04,0.02,0.08,0.05,0.09,0.1c0.01,0.04-0.01,0.09-0.05,0.13
			l-0.14,0.12c-0.03,0.04-0.04,0.09-0.03,0.13c0.1,0.81,0.25,1.6,0.47,2.42c0.02,0.03,0.04,0.07,0.08,0.09l0.2,0.03
			c0.11,0.06,0.1,0.15,0,0.25l-1.01,0.22c-0.15-0.03-0.18-0.1-0.1-0.22c0.14-0.09,0.2-0.18,0.2-0.29c-0.1-0.69-0.26-1.48-0.48-2.38
			c-0.02-0.05-0.03-0.09-0.03-0.09c-0.02-0.03-0.05-0.05-0.09-0.05C349.26,84.3,349.18,84.26,349.17,84.19 M351.76,83.84
			c-0.14,0.01-0.25,0.04-0.35,0.1c-0.15,0.11-0.23,0.28-0.22,0.5c-0.05,0.18-0.14,0.24-0.26,0.17c-0.1-0.22-0.15-0.48-0.14-0.77
			c0-0.05,0.02-0.1,0.05-0.12c0.03-0.03,0.06-0.04,0.1-0.03c0.56-0.14,0.95-0.23,1.14-0.29c0.42-0.11,0.78-0.23,1.09-0.34
			c0.06-0.03,0.11-0.03,0.14-0.03c0.03,0.01,0.08,0.03,0.11,0.09c0.16,0.24,0.25,0.48,0.26,0.69c-0.02,0.07-0.07,0.11-0.16,0.11
			c-0.06-0.04-0.15-0.13-0.25-0.25c-0.07-0.1-0.14-0.15-0.19-0.16c-0.16-0.03-0.32-0.01-0.49,0.06c-0.08,0.03-0.1,0.1-0.07,0.22
			c0.08,0.31,0.16,0.62,0.25,0.94c0.03,0.11,0.07,0.23,0.1,0.34c0.1,0.38,0.23,0.75,0.35,1.12l0.28,0.06
			c0.03,0.02,0.06,0.04,0.07,0.07c0.02,0.03,0.01,0.05-0.01,0.07c-0.11,0.1-0.27,0.18-0.49,0.25c-0.21,0.07-0.41,0.1-0.61,0.12
			c-0.11-0.04-0.14-0.1-0.1-0.17l0.16-0.17c0.03-0.04,0.03-0.1,0.02-0.16l-0.64-2.33C351.88,83.84,351.82,83.81,351.76,83.84
			 M337.44,82.71c0.25,0.06,0.42,0.1,0.51,0.13c0.21,0.06,0.36,0.13,0.48,0.2c0.1,0.06,0.13,0.12,0.12,0.18
			c-0.02,0.06-0.07,0.09-0.17,0.1c-0.09,0-0.12,0-0.13,0c-0.04,0.01-0.08,0.04-0.1,0.09c-0.06,0.6-0.04,1.28,0.06,2.04
			c0,0.04,0.02,0.06,0.04,0.06c0.03,0.01,0.06-0.02,0.1-0.06c0.43-0.39,0.82-0.83,1.21-1.33l0.02-0.03c0.04-0.07,0.06-0.13,0.04-0.2
			c-0.01-0.03-0.05-0.09-0.12-0.16c-0.06-0.07-0.09-0.13-0.07-0.18c0.02-0.05,0.08-0.08,0.17-0.06c0.29,0.06,0.57,0.16,0.83,0.29
			c0.14,0.12,0.1,0.21-0.1,0.25c-0.12-0.01-0.22,0.03-0.29,0.1c-0.49,0.51-1.21,1.28-2.15,2.32c-0.08,0.08-0.13,0.06-0.16-0.03
			c-0.1-0.96-0.16-2-0.17-3.11c-0.01-0.14-0.06-0.24-0.16-0.33c-0.08-0.05-0.11-0.11-0.1-0.16C337.3,82.73,337.35,82.7,337.44,82.71
			 M337.18,82.68c0.03,0.05,0.03,0.1,0.02,0.13c-0.02,0.04-0.06,0.07-0.12,0.08l-0.18,0.02c-0.05,0.02-0.09,0.04-0.11,0.09
			c-0.4,0.71-0.75,1.47-1.06,2.25c-0.01,0.03-0.01,0.06,0,0.08c0.02,0.02,0.03,0.03,0.03,0.05l0.12,0.16
			c0.06,0.1,0.01,0.16-0.16,0.18c-0.16-0.05-0.31-0.11-0.45-0.17c-0.17-0.08-0.34-0.16-0.5-0.26c-0.05-0.06-0.07-0.11-0.06-0.16
			c0.01-0.03,0.04-0.06,0.1-0.07c0.06-0.01,0.12-0.03,0.21-0.04c0.06-0.01,0.1-0.03,0.12-0.07c0.34-0.62,0.69-1.37,1.03-2.23
			c0.02-0.06,0.03-0.09,0.03-0.1c0.01-0.04-0.01-0.07-0.03-0.1c-0.11-0.09-0.15-0.16-0.12-0.23c0.03-0.05,0.1-0.08,0.22-0.07
			C336.59,82.33,336.89,82.47,337.18,82.68 M335.17,82.23c0.04-0.05,0.05-0.11,0.02-0.19l-0.13-0.17c0.03-0.14,0.1-0.18,0.18-0.14
			c0.26,0.09,0.5,0.23,0.7,0.43c0.04,0.16,0,0.23-0.13,0.23c-0.09-0.05-0.17-0.05-0.26,0.01c-0.53,0.79-1.02,1.62-1.5,2.47
			c-0.03,0.03-0.04,0.04-0.07,0.03c-0.01,0-0.04-0.02-0.1-0.04c-0.08-0.05-0.19-0.45-0.32-1.21c-0.09-0.48-0.2-1.23-0.35-2.26
			l-1.04,1.81c-0.04,0.17-0.02,0.28,0.07,0.3c0.09,0.17,0.02,0.25-0.21,0.23c-0.2-0.07-0.39-0.17-0.56-0.31
			c-0.09-0.08-0.11-0.16-0.09-0.22c0.03-0.05,0.09-0.08,0.17-0.08c0.08,0.01,0.12,0.01,0.15,0.01c0.04,0,0.08-0.03,0.1-0.05
			c0.47-0.69,0.88-1.41,1.26-2.14c0.03-0.04,0.01-0.1-0.05-0.15c-0.13-0.2-0.1-0.29,0.11-0.29c0.23,0.07,0.43,0.18,0.62,0.33
			c0.12,1.12,0.29,2.14,0.48,3.09C334.59,83.37,334.91,82.81,335.17,82.23 M340.65,84.08c-0.13-0.15-0.08-0.23,0.16-0.25l1.99,0.36
			c0.17-0.03,0.27-0.02,0.29,0.05c0.06,0.21,0.06,0.42,0.02,0.64c-0.05,0.08-0.12,0.1-0.18,0.07c-0.05-0.03-0.1-0.11-0.13-0.23
			c-0.03-0.1-0.1-0.19-0.23-0.27l-0.82-0.15c-0.03,0-0.07,0-0.1,0c-0.1,0.03-0.16,0.09-0.17,0.19c-0.07,0.21-0.13,0.46-0.18,0.74
			c-0.02,0.09,0.02,0.13,0.1,0.15l0.52,0.1c0.1,0.03,0.16,0.01,0.23-0.05c0.04-0.03,0.08-0.11,0.11-0.23
			c0.02-0.05,0.04-0.1,0.06-0.12c0.02-0.03,0.03-0.04,0.05-0.05c0.04-0.02,0.08-0.02,0.1,0c0.03,0.02,0.04,0.03,0.05,0.08
			c0,0.08,0,0.15,0,0.23c-0.02,0.35-0.11,0.7-0.27,1.07c-0.02,0.03-0.04,0.03-0.08,0.02c-0.03-0.02-0.06-0.04-0.07-0.08L342.05,86
			c0-0.1-0.05-0.16-0.15-0.19l-0.63-0.1c-0.04,0-0.08,0.04-0.11,0.15l-0.11,0.88c0.01,0.09,0.04,0.15,0.1,0.18
			c0.32,0.09,0.64,0.16,0.95,0.19c0.11,0.02,0.22-0.03,0.31-0.13c0.01-0.02,0.02-0.03,0.03-0.03l0.2-0.24l0.1-0.09
			c0.1-0.05,0.13,0.03,0.12,0.23c-0.03,0.13-0.06,0.26-0.1,0.36c-0.06,0.12-0.12,0.23-0.21,0.32c-0.04,0.07-0.1,0.09-0.16,0.04
			c-0.03-0.03-0.1-0.06-0.16-0.09c-0.74-0.11-1.3-0.22-1.69-0.29c-0.23-0.05-0.38-0.1-0.43-0.12c-0.1-0.05-0.1-0.12-0.02-0.2
			c0.04-0.05,0.1-0.08,0.17-0.08c0.05-0.01,0.09-0.03,0.1-0.09c0.08-0.21,0.16-0.56,0.25-1.02c0.07-0.38,0.15-0.85,0.23-1.4
			c0-0.07-0.02-0.1-0.06-0.13L340.65,84.08 M331.3,78.92c0.07,0.13,0.04,0.21-0.09,0.24c-0.13-0.1-0.24-0.1-0.34-0.02
			c-0.32,0.29-0.62,0.6-0.88,0.91c-0.01,0.02-0.03,0.04-0.04,0.06c-0.18,0.22-0.36,0.45-0.5,0.68c-0.06,0.09-0.07,0.19-0.05,0.32
			c0.04,0.21,0.15,0.39,0.32,0.55c0.16,0.16,0.35,0.24,0.56,0.28c0.2-0.03,0.37-0.1,0.51-0.23c0.02-0.01,0.03-0.03,0.03-0.03
			c0.01-0.01,0.02-0.02,0.02-0.02c0.45-0.46,0.88-0.94,1.27-1.44c0.03-0.04,0.05-0.09,0.04-0.15c-0.01-0.06-0.04-0.12-0.1-0.19
			c0-0.05,0-0.08,0.01-0.09c0.02-0.03,0.05-0.05,0.11-0.06c0.24,0.1,0.46,0.3,0.67,0.57c0.03,0.1,0.03,0.16-0.03,0.17
			c-0.04,0.02-0.07,0.03-0.08,0.03c-0.02-0.01-0.07-0.03-0.15-0.06c-0.09-0.03-0.16-0.02-0.23,0.05l-1.2,1.36
			c-0.05,0.04-0.1,0.09-0.15,0.13c-0.02,0.02-0.03,0.03-0.05,0.04c-0.11,0.08-0.23,0.14-0.36,0.17c-0.13,0.03-0.22,0.04-0.27,0.04
			c-0.08,0-0.17-0.02-0.3-0.07c-0.16-0.05-0.3-0.12-0.42-0.2c-0.13-0.09-0.24-0.19-0.36-0.32c-0.18-0.23-0.29-0.46-0.34-0.69
			c-0.01-0.32,0.07-0.59,0.23-0.8l1.25-1.46c0.05-0.06,0.07-0.11,0.04-0.16c-0.06-0.09-0.1-0.16-0.1-0.24
			c0.03-0.07,0.08-0.1,0.15-0.08C330.82,78.48,331.09,78.7,331.3,78.92 M358.55,81.02c-0.1-0.07-0.17-0.1-0.23-0.1
			c-0.16,0.01-0.3,0.07-0.45,0.18c-0.06,0.04-0.07,0.12-0.01,0.23c0.16,0.28,0.32,0.56,0.49,0.84c0.07,0.1,0.12,0.21,0.19,0.3
			c0.2,0.34,0.41,0.67,0.62,0.99l0.29-0.02c0.03,0.01,0.07,0.03,0.09,0.05c0.02,0.03,0.02,0.04,0,0.08
			c-0.08,0.12-0.21,0.23-0.4,0.36c-0.18,0.12-0.36,0.21-0.56,0.27c-0.12-0.02-0.16-0.06-0.14-0.15l0.12-0.21
			c0.01-0.04,0-0.1-0.03-0.15l-1.22-2.09c-0.08-0.06-0.14-0.08-0.19-0.04c-0.13,0.05-0.23,0.11-0.29,0.19
			c-0.13,0.14-0.16,0.31-0.09,0.54c-0.01,0.19-0.08,0.27-0.21,0.23c-0.16-0.17-0.27-0.41-0.34-0.7c-0.01-0.05,0-0.1,0.02-0.14
			c0.02-0.03,0.05-0.05,0.09-0.05c0.51-0.28,0.85-0.47,1.02-0.56c0.37-0.22,0.7-0.43,0.97-0.62c0.05-0.04,0.1-0.06,0.13-0.06
			s0.08,0.02,0.13,0.06c0.22,0.19,0.36,0.39,0.43,0.6c-0.01,0.07-0.04,0.12-0.12,0.15C358.78,81.17,358.68,81.11,358.55,81.02
			 M355.24,82.19c0-0.02,0.01-0.03,0.02-0.03l0.38-0.16c0.01,0,0.03,0,0.03,0c0.02,0,0.03,0.02,0.03,0.03l0.2,0.36
			c0.01,0.01,0.01,0.03,0,0.03c0,0.01-0.01,0.02-0.02,0.03l-0.38,0.16c-0.01,0-0.03,0-0.03,0c-0.02-0.01-0.03-0.02-0.03-0.03
			l-0.21-0.36C355.24,82.2,355.24,82.2,355.24,82.19 M354.28,82.68l0.18,0.37c0,0.01,0,0.02,0,0.03c-0.01,0.02-0.02,0.03-0.03,0.03
			l-0.39,0.16c-0.02,0-0.03,0-0.04,0c-0.01-0.01-0.02-0.02-0.03-0.03l-0.16-0.37c-0.01-0.01-0.01-0.02-0.01-0.03
			c0.01-0.01,0.02-0.02,0.03-0.03l0.39-0.15c0.02-0.01,0.03-0.01,0.04,0C354.27,82.66,354.28,82.66,354.28,82.68 M357.71,84.49
			c-0.02-0.05-0.07-0.09-0.14-0.09c-0.08,0.02-0.13,0.03-0.16,0.03c-0.07,0-0.15-0.03-0.23-0.08c-0.35-0.29-0.82-0.71-1.41-1.24
			c-0.6-0.54-0.93-0.81-0.99-0.82c-0.06-0.01-0.13,0.02-0.21,0.08c-0.07,0.05-0.1,0.1-0.06,0.16c0.02,0.06,0.06,0.57,0.13,1.55
			c0.03,0.49,0.07,0.97,0.1,1.45c-0.07,0.15-0.15,0.29-0.23,0.42c-0.01,0.1,0.03,0.14,0.15,0.14c0.16-0.05,0.32-0.11,0.48-0.19
			c0,0,0,0,0-0.01c0.03-0.01,0.05-0.03,0.08-0.03c0.13-0.08,0.25-0.16,0.37-0.24c0.02-0.05,0.02-0.1-0.01-0.13
			c-0.03-0.04-0.1-0.06-0.21-0.04l0,0c-0.06,0.01-0.11,0.01-0.16-0.01c-0.03-0.02-0.07-0.03-0.1-0.07
			c-0.01-0.01-0.02-0.02-0.03-0.03c-0.06-0.1-0.08-0.23-0.05-0.43c-0.02-0.07,0.03-0.11,0.1-0.16c0.32-0.16,0.68-0.33,1.06-0.49
			c0.17,0.11,0.32,0.26,0.43,0.44c0.03,0.05,0.03,0.1-0.01,0.13c-0.08,0.07-0.13,0.12-0.15,0.16c-0.06,0.1-0.02,0.16,0.12,0.18
			c0.41-0.12,0.76-0.29,1.08-0.53C357.71,84.57,357.72,84.53,357.71,84.49z M354.98,84.42l-0.08-1.26c0.01-0.03,0.03-0.05,0.07-0.03
			l0.92,0.87L354.98,84.42z M321.16,62.4l0.56-0.21l-0.06-0.59l0.46,0.36l0.49-0.38l-0.1,0.62l0.56,0.21l-0.56,0.24l0.08,0.61
			l-0.48-0.38l-0.49,0.36l0.1-0.59L321.16,62.4 M369.6,61.96l-0.47-0.36l0.07,0.59l-0.56,0.21l0.56,0.23l-0.1,0.59l0.49-0.36
			l0.48,0.38L370,62.64l0.56-0.24l-0.57-0.21l0.1-0.62L369.6,61.96"/>
	</g>
</g>
</svg>
