<svg xmlns="http://www.w3.org/2000/svg" viewBox="0 0 235.93 314.58"><defs><style>.cls-1{fill:#1f2448;}.cls-2{fill:#08f;}.cls-3{fill:#fff;}</style></defs><g id="Ebene_2" data-name="Ebene 2"><g id="Ebene_1-2" data-name="Ebene 1"><path class="cls-1" d="M235.93,78.64V275.26a39.3,39.3,0,0,1-39.32,39.32H39.32A39.31,39.31,0,0,1,0,275.26V39.32A39.31,39.31,0,0,1,39.32,0h118V39.32a39.3,39.3,0,0,0,39.32,39.32Z"/><path class="cls-2" d="M235.93,78.64H196.61a39.3,39.3,0,0,1-39.32-39.32V0Z"/><path class="cls-3" d="M73,106.25h39.59v39.58q0,35.22-39.59,39.59v-19.7q17.74-2.15,19.89-19.89H73Zm59.47,0H172v39.58q0,35.22-39.58,39.59v-19.7q17.74-2.15,19.89-19.89H132.46Z"/><rect class="cls-3" x="15.48" y="224.33" width="204.98" height="74.77" rx="23.84"/><path class="cls-2" d="M71.37,284.34a1.54,1.54,0,0,1-1.15-.44,1.58,1.58,0,0,1-.45-1.16v-41.6a1.57,1.57,0,0,1,.45-1.15,1.55,1.55,0,0,1,1.15-.45H88.46q8,0,12.64,3.72t4.64,10.62a13.11,13.11,0,0,1-2.24,7.81,13.45,13.45,0,0,1-6,4.67l9,15.94a1.56,1.56,0,0,1,.2.7,1.42,1.42,0,0,1-1.35,1.34H98a2.29,2.29,0,0,1-1.73-.6,5.07,5.07,0,0,1-.83-1.12l-7.68-14.53H80.21v14.65a1.58,1.58,0,0,1-.45,1.16,1.54,1.54,0,0,1-1.15.44Zm8.84-24.57h8.06a7.13,7.13,0,0,0,5.06-1.57A5.76,5.76,0,0,0,95,253.82a6.11,6.11,0,0,0-1.63-4.48q-1.64-1.67-5.09-1.67H80.21Z"/><path class="cls-2" d="M115.15,284.34a1.53,1.53,0,0,1-1.15-.44,1.58,1.58,0,0,1-.45-1.16v-41.6A1.57,1.57,0,0,1,114,240a1.54,1.54,0,0,1,1.15-.45h7.55a1.58,1.58,0,0,1,1.12.45,1.52,1.52,0,0,1,.48,1.15v41.6a1.52,1.52,0,0,1-.48,1.16,1.57,1.57,0,0,1-1.12.44Z"/><path class="cls-2" d="M149.9,285a26.21,26.21,0,0,1-10.37-1.79,14.67,14.67,0,0,1-6.27-4.7,11.13,11.13,0,0,1-2.24-6.18,1.34,1.34,0,0,1,.39-.93,1.25,1.25,0,0,1,1-.41h7.1a2.17,2.17,0,0,1,1.34.35,4.53,4.53,0,0,1,.83.86,7,7,0,0,0,1.44,2.05,7.3,7.3,0,0,0,2.66,1.67,11.85,11.85,0,0,0,4.16.64,11.46,11.46,0,0,0,6.14-1.32,4,4,0,0,0,2.05-3.55,3.29,3.29,0,0,0-1.12-2.59,10.57,10.57,0,0,0-3.48-1.82,59.09,59.09,0,0,0-6.34-1.73,35.68,35.68,0,0,1-8.16-2.66,12.46,12.46,0,0,1-5.09-4.22,12.49,12.49,0,0,1,.42-13.35,14.17,14.17,0,0,1,6-4.7,22.77,22.77,0,0,1,9.19-1.7,23,23,0,0,1,7.64,1.16,17.32,17.32,0,0,1,5.51,3,14.52,14.52,0,0,1,3.39,4,9.15,9.15,0,0,1,1.25,4.13,1.34,1.34,0,0,1-.39.93,1.23,1.23,0,0,1-1,.42h-7.48a2.59,2.59,0,0,1-1.12-.26,1.86,1.86,0,0,1-.87-.9,4.67,4.67,0,0,0-2.21-2.84,8.59,8.59,0,0,0-4.76-1.19,9.21,9.21,0,0,0-4.87,1.12,3.78,3.78,0,0,0-1.79,3.43,3.67,3.67,0,0,0,.93,2.52,7.27,7.27,0,0,0,3.1,1.83c1.45.51,3.39,1.07,5.83,1.66a45.13,45.13,0,0,1,9.18,2.75,11.52,11.52,0,0,1,5.18,4.16,12.92,12.92,0,0,1-.76,13.8,14.94,14.94,0,0,1-6.63,4.73A27,27,0,0,1,149.9,285Z"/></g></g></svg>