<?xml version="1.0" encoding="utf-8"?>
<!-- Generator: Adobe Illustrator 16.0.3, SVG Export Plug-In . SVG Version: 6.00 Build 0)  -->
<svg version="1.2" baseProfile="tiny" id="Ebene_1" xmlns="http://www.w3.org/2000/svg" xmlns:xlink="http://www.w3.org/1999/xlink"
	 x="0px" y="0px" width="595px" height="623px" viewBox="0 0 595 623" xml:space="preserve">
<path fill="#00305D" d="M52.484,221.156c5.688,1.872,11.808-1.224,13.608-6.912c1.872-5.688-1.224-11.808-6.912-13.608
	c-5.688-1.872-11.808,1.224-13.608,6.912C43.7,213.236,46.796,219.356,52.484,221.156z"/>
<path fill="#8B2939" d="M48.452,364.004c11.016-1.8,18.504-12.096,16.776-23.04c-1.8-10.944-12.096-18.432-23.04-16.704
	c-10.944,1.729-18.432,12.024-16.704,23.04C27.212,358.244,37.508,365.66,48.452,364.004z"/>
<path fill="#00305D" d="M102.884,476.396c4.824-3.528,5.904-10.297,2.376-15.12c-3.528-4.824-10.296-5.904-15.12-2.376
	c-4.824,3.527-5.904,10.295-2.376,15.119C91.292,478.844,98.06,479.924,102.884,476.396z"/>
<path fill="#00305D" d="M207.86,559.412c2.664-5.328,0.576-11.88-4.752-14.544c-5.328-2.736-11.808-0.576-14.544,4.752
	c-2.736,5.256-0.576,11.808,4.752,14.544C198.644,566.828,205.124,564.74,207.86,559.412z"/>
<path fill="#00305D" d="M338.973,585.692c0-5.977-4.825-10.8-10.801-10.8c-5.977,0-10.872,4.823-10.872,10.8
	c0,5.976,4.896,10.8,10.872,10.8C334.147,596.492,338.973,591.668,338.973,585.692z"/>
<path fill="#00305D" d="M166.532,65.852l-4.824,4.032l20.592,24.12c5.76,6.768,7.056,13.248,4.248,20.52
	c-1.44,3.672-3.888,7.056-6.984,9.72c-9.144,7.776-21.096,7.488-28.152-0.792l-22.104-25.92l-4.752,4.032l-2.016-2.376l15.12-12.816
	l2.016,2.376l-4.824,4.032l20.448,23.904c6.48,7.704,15.264,8.856,22.32,2.88c7.2-6.12,7.704-15.408,1.224-23.04L158.54,72.692
	l-4.752,4.032l-2.016-2.376l12.744-10.8L166.532,65.852z"/>
<path fill="#00305D" d="M240.26,84.716L223.7,93.5l-1.44-2.664l5.472-2.952l-11.376-21.528c-2.088-3.888-5.328-5.256-8.568-3.6
	c-3.168,1.728-4.248,4.032-6.768,14.832l10.08,19.08l5.616-2.952l1.44,2.736l-16.704,8.856l-1.44-2.736l5.616-2.952l-14.04-26.496
	l-6.408,3.384l-1.008-1.944l9.072-8.496l1.296-0.72l4.392,8.28c2.088-9.36,4.248-13.032,8.928-15.48
	c5.4-2.88,10.656-1.152,13.68,4.536l11.808,22.248l5.472-2.952L240.26,84.716z"/>
<path fill="#00305D" d="M234.86,26.9c2.304-0.792,4.752,0.432,5.544,2.664c0.792,2.376-0.36,4.824-2.736,5.616
	c-2.304,0.792-4.752-0.432-5.544-2.735C231.332,30.14,232.556,27.692,234.86,26.9L234.86,26.9z M262.652,77.804l-17.856,6.121
	l-1.008-2.88l5.976-2.088l-9.72-28.296l-6.84,2.304l-0.72-2.088l10.296-6.984l1.368-0.504l11.52,33.552l5.976-2.016L262.652,77.804z
	"/>
<polygon fill="#00305D" points="293.18,35.612 289.796,36.332 283.604,73.988 281.948,74.348 260.564,42.308 257.18,42.956 
	256.532,39.932 272.372,36.692 272.948,39.716 267.26,40.868 281.876,62.972 286.124,37.052 280.652,38.204 280.004,35.18 
	292.604,32.588 "/>
<path fill="#00305D" d="M332.204,61.676c-4.536,3.168-6.769,4.104-10.08,4.249c-1.656,0.072-3.168-0.216-4.608-0.72v4.536
	c0.864,0.072,1.729,0.072,2.592,0.072c4.824-0.216,7.705-1.296,13.753-5.112L332.204,61.676L332.204,61.676z M317.516,47.492
	l16.632-0.648l-0.071-2.231c-0.433-9-6.841-14.904-15.768-14.544c-0.289,0-0.504,0.072-0.793,0.072v3.528
	c0.36-0.072,0.648-0.072,1.008-0.072c4.824-0.216,8.353,3.24,8.568,8.208l0.072,2.017l-9.648,0.359V47.492z M317.516,65.204
	c-5.472-2.016-9.216-8.136-9.504-16.344l-0.072-0.936l9.576-0.432V44.18l-9.647,0.433c0.504-6.192,4.176-10.296,9.647-10.944V30.14
	c-9.287,0.72-15.912,8.496-16.271,18.864v1.656c0,0.072,0,0.216,0,0.288c0.432,10.512,7.056,18,16.271,18.792V65.204z"/>
<path fill="#00305D" d="M359.492,70.604l-20.448-2.088l0.359-3.096l6.265,0.648l3.097-29.808l-7.272-0.72l0.287-2.232l12.24-2.016
	l1.44,0.144l-0.937,9.288c6.769-6.984,9.072-8.568,12.097-8.28c1.008,0.072,1.8,0.432,2.232,1.008l2.304,2.448l-5.4,5.328
	c-1.44-1.728-2.521-2.592-3.384-2.736c-1.512-0.144-3.097,1.152-8.208,6.192l-2.304,22.032l7.992,0.792L359.492,70.604z"/>
<path fill="#00305D" d="M372.956,73.484l-3.24-0.72l2.808-11.52l3.672,0.936l-0.504,2.16c-0.863,3.456,2.952,7.632,7.992,8.856
	c4.393,1.08,8.28-0.432,9.072-3.672c0.792-3.24-1.008-5.544-8.712-10.944c-7.056-4.896-9.071-8.568-7.849-13.608
	c1.513-6.336,7.705-9.36,15.12-7.56c3.528,0.864,6.12,2.376,7.92,4.824l1.153-2.809l3.455,0.792l-4.752,11.232l-3.456-0.864
	c0.504-0.792,0.937-1.8,1.152-2.52c0.72-3.168-2.231-6.624-6.624-7.704c-4.176-1.008-7.488,0.576-8.352,4.032
	c-0.864,3.528-0.36,4.032,8.423,10.368c7.2,5.112,9.072,8.352,7.776,13.536c-1.584,6.48-7.704,9.792-14.832,8.064
	c-4.536-1.152-7.703-3.024-9.504-5.76L372.956,73.484z"/>
<path fill="#00305D" d="M429.836,29.996c2.304,0.864,3.456,3.312,2.592,5.544c-0.863,2.376-3.312,3.456-5.688,2.592
	c-2.232-0.864-3.384-3.312-2.448-5.616C425.084,30.212,427.604,29.132,429.836,29.996L429.836,29.996z M418.819,86.876l-17.64-6.624
	l1.08-2.88l5.904,2.232l10.584-28.008l-6.768-2.592l0.792-2.088l12.312,1.224l1.439,0.504l-12.527,33.12l5.904,2.232L418.819,86.876
	z"/>
<path fill="#00305D" d="M443.731,95.228c-5.472,1.152-7.343,1.08-10.079-0.288c-4.32-2.16-5.545-6.12-3.313-10.656l11.521-23.04
	l-6.48-3.168l1.009-2.016l7.271,1.584l5.112-10.296l5.399,2.664l-5.256,10.512l9.216,4.608l-1.729,3.456l-9.215-4.608L436.027,86.3
	c-1.367,2.808-0.936,4.32,1.513,5.544c1.584,0.792,2.664,1.008,5.903,0.72L443.731,95.228z"/>
<path fill="#00305D" d="M467.061,104.876c-1.369,0.144-2.593,0.288-3.601,0.288v2.88c0.576-0.144,1.151-0.288,1.8-0.432
	c-0.216,0.216-0.359,0.432-0.504,0.648c-1.729,2.521-1.512,4.896,0.647,6.336c0.505,0.432,1.657,0.864,2.736,1.224l5.544,1.656
	l1.297-1.872l-5.257-3.672l14.545-21.096c3.096-4.536,1.151-10.296-4.896-14.4c-6.192-4.32-12.815-4.536-15.553-0.504
	c-0.144,0.144-0.287,0.36-0.359,0.504v1.872l6.912,2.304l2.232-3.313c2.664,0.432,3.671,0.792,5.039,1.729
	c2.809,1.944,3.456,5.328,1.585,8.063l-5.328,7.776l-10.44-4.176v3.528l8.567,3.384L467.061,104.876L467.061,104.876z M482.54,66.14
	c1.296-1.944,0.863-4.536-1.08-5.832c-1.872-1.368-4.464-0.792-5.76,1.152c-1.297,1.8-0.864,4.464,1.008,5.76
	C478.652,68.516,481.244,68.012,482.54,66.14L482.54,66.14z M494.636,74.492c-1.224,1.872-3.816,2.376-5.76,1.08
	c-1.944-1.368-2.376-3.959-1.08-5.832s3.96-2.448,5.832-1.08C495.572,69.956,496.004,72.548,494.636,74.492z M463.46,105.164
	c-2.664,0.072-4.32-0.36-5.903-1.44c-2.881-2.016-3.457-5.112-1.513-7.992l2.376-3.456l5.04,1.944v-3.528l-3.096-1.224
	c-3.816-1.512-8.064-0.216-10.44,3.313c-3.168,4.608-1.943,10.296,2.808,13.536c3.169,2.232,6.337,2.736,10.729,1.728V105.164
	L463.46,105.164z M463.46,76.436v1.872l-0.433-0.072C463.1,77.372,463.172,76.94,463.46,76.436z"/>
<path fill="#00305D" d="M493.269,132.884c-5.616-0.36-7.345-0.864-9.648-2.952c-3.601-3.24-3.744-7.416-0.36-11.16l17.137-19.152
	l-5.4-4.824l1.439-1.728l6.625,3.456l7.704-8.568l4.464,4.032l-7.849,8.712l7.704,6.912l-2.52,2.808l-7.704-6.84l-16.632,18.648
	c-2.16,2.304-2.089,3.888-0.072,5.76c1.296,1.152,2.376,1.656,5.544,2.232L493.269,132.884z"/>
<path fill="#00305D" d="M102.02,345.212l-3.96-20.16l3.024-0.575l1.224,6.12l47.808-9.433l-1.152-6.12l2.952-0.647l4.608,23.399
	c1.872,9.432-3.168,17.208-12.312,19.009c-9.144,1.799-17.784-4.536-19.8-14.617c-0.288-1.584-0.36-2.52-0.36-4.68l2.808-0.576
	c0,1.08,0.072,1.512,0.216,2.232c1.368,7.057,8.352,11.664,15.624,10.225c6.552-1.297,10.944-6.624,9.864-12.024l-1.728-8.929
	l-47.088,9.289l1.368,6.983L102.02,345.212z"/>
<path fill="#00305D" d="M134.564,403.893c2.448-0.145,4.968-0.792,7.416-1.873c10.008-4.463,14.832-15.552,10.728-24.695
	c-3.096-6.984-10.44-10.872-18.144-10.368v6.84c6.768-1.584,12.816,0.216,14.904,4.896c2.592,5.76-1.944,13.104-10.368,16.848
	c-1.512,0.72-3.096,1.225-4.536,1.584V403.893z M116.348,393.523c3.096,6.912,10.44,10.801,18.216,10.369v-6.769
	c-6.84,1.512-12.888-0.359-14.976-5.04c-2.592-5.688,2.088-13.032,10.44-16.775c1.512-0.721,3.024-1.225,4.536-1.513v-6.84
	c-2.52,0.145-5.04,0.72-7.488,1.8C117.068,373.22,112.244,384.309,116.348,393.523z"/>
<path fill="#00305D" d="M148.028,438.235c-5.4-1.655-6.912-2.592-8.712-5.111c-2.664-3.96-1.872-8.063,2.304-10.943l21.168-14.616
	l-4.104-5.977l1.8-1.224l5.616,4.896l9.504-6.479l3.384,4.896l-9.648,6.696l5.832,8.496l-3.168,2.159l-5.832-8.495l-20.52,14.184
	c-2.664,1.728-2.952,3.312-1.44,5.544c1.008,1.44,1.872,2.16,4.896,3.528L148.028,438.235z"/>
<path fill="#00305D" d="M154.94,453.068l-2.304-2.448l8.496-8.208l2.664,2.735l-1.584,1.584c-2.592,2.521-1.656,8.064,1.944,11.736
	c3.168,3.313,7.272,4.104,9.72,1.801c2.376-2.376,2.088-5.257-1.584-13.969c-3.312-7.848-3.024-12.023,0.72-15.696
	c4.68-4.464,11.448-3.815,16.776,1.729c2.52,2.592,3.888,5.256,4.104,8.279l2.52-1.728l2.448,2.593l-10.008,6.912l-2.448-2.593
	c0.864-0.432,1.8-1.008,2.304-1.584c2.376-2.231,1.656-6.769-1.44-10.008c-3.024-3.097-6.696-3.528-9.216-1.009
	c-2.592,2.448-2.52,3.169,1.584,13.248c3.312,8.137,3.168,11.881-0.72,15.625c-4.752,4.607-11.664,4.104-16.848-1.225
	c-3.24-3.312-4.896-6.624-4.968-9.863L154.94,453.068z"/>
<path fill="#00305D" d="M219.236,498.428l-5.976-4.031l31.752-46.944l-1.296-0.864l-11.736-4.031l-1.296,1.871l6.048,4.032
	l-10.8,15.912c-1.656-3.096-2.664-4.32-5.04-5.904c-3.456-2.376-7.488-3.384-11.448-3.24v4.753
	c3.456-0.864,6.984-0.288,10.224,1.872c4.104,2.808,4.464,5.184,1.584,9.432l-10.8,15.984c-0.36,0-0.648,0.071-1.008,0.071v10.08
	l8.496,2.952L219.236,498.428z M209.444,455.228c-6.264,0.216-12.528,3.528-16.488,9.36c-2.304,3.385-3.6,7.128-3.888,10.656v2.88
	c0.36,4.464,2.376,8.424,6.048,10.872c3.456,2.447,6.768,2.809,13.104,1.584l-3.312,4.823l1.368,0.865l3.168,1.151v-10.08
	c-0.864,0.072-1.584,0.145-2.088,0.145c-3.672,0.216-4.968,0-7.128-1.512c-5.616-3.816-5.904-10.729-0.648-18.433
	c2.808-4.104,6.264-6.624,9.864-7.56V455.228z"/>
<path fill="#00305D" d="M260.348,516.356l-5.976-2.376l9.504-23.833c0.288-0.791,0.504-1.655,0.576-2.447v-1.224
	c-0.288-3.745-3.312-7.272-8.496-9.289c-4.032-1.584-7.848-1.872-10.728-1.007v6.768l2.88,0.287l1.44-3.671
	c2.664-0.217,3.816,0,5.328,0.575c3.096,1.225,4.536,4.393,3.312,7.488l-3.528,8.712l-9.432-1.439v3.312l8.208,1.224l-3.24,8.208
	c-2.016,0.721-3.6,1.225-4.968,1.368v3.456c1.152-0.432,2.448-1.008,3.816-1.8c-0.144,0.359-0.216,0.576-0.288,0.792
	c-1.152,2.88-0.432,5.112,1.944,6.12c0.648,0.216,1.8,0.432,2.952,0.504l5.832,0.432L260.348,516.356z M245.228,476.181
	c-2.16,0.72-3.816,2.015-4.608,3.959c-0.288,0.792-0.36,1.225-0.216,2.376l4.824,0.433V476.181L245.228,476.181z M245.228,494.9
	l-4.968-0.793c-4.032-0.647-7.92,1.585-9.432,5.545c-2.088,5.184,0.36,10.439,5.688,12.6c2.952,1.151,5.616,1.225,8.712,0.216
	v-3.456c-1.8,0.288-3.168,0.145-4.536-0.432c-3.24-1.296-4.536-4.177-3.24-7.416l1.512-3.888l6.264,0.936V494.9z"/>
<path fill="#00305D" d="M340.195,532.195l-18.719-1.871l0.288-3.024l6.335,0.576l2.304-24.265c0.433-4.464-1.511-7.271-5.184-7.56
	c-2.735-0.287-4.968,0.721-8.928,4.176l-4.824,4.32l-2.088,21.528l6.192,0.576l-0.288,3.096l-18.648-1.8l0.288-3.096l6.12,0.575
	l2.376-24.264c0.433-4.392-1.512-7.345-5.185-7.632c-3.456-0.36-5.688,1.008-13.751,8.568l-2.088,21.527l6.336,0.648l-0.36,3.023
	l-18.72-1.8l0.288-3.097l6.264,0.648l2.88-29.808l-7.2-0.721l0.216-2.231l12.24-2.088l1.512,0.144l-0.936,9.288
	c6.912-6.624,10.728-8.496,15.984-7.992c5.831,0.576,8.783,3.96,9,10.44c6.912-6.624,10.656-8.496,15.912-7.992
	c6.119,0.576,9.503,4.969,8.928,11.232l-2.448,25.199l6.192,0.577L340.195,532.195z"/>
<path fill="#00305D" d="M553.244,398.996v-51.84h5.472v-68.184h-5.472v-15.696h16.92v135.72H553.244L553.244,398.996z
	 M553.244,257.012v-8.928h13.968c-0.433-1.224-0.647-2.88-0.647-4.752c0-3.6,0.936-6.48,2.159-6.48c1.225,0,2.16,2.88,2.16,6.48
	c0,1.872-0.288,3.528-0.72,4.68v9H553.244z M553.244,248.084v8.928h-22.32v-8.928h16.416c-0.432-1.224-0.648-2.88-0.648-4.752
	c0-3.6,0.937-6.48,2.161-6.48c1.224,0,2.159,2.88,2.159,6.48c0,1.872-0.288,3.528-0.72,4.752H553.244L553.244,248.084z
	 M553.244,263.276v15.696h-5.472v68.184h5.472v51.84h-5.472c-2.089,5.4-8.064,10.368-16.849,14.615v-22.247
	c9.792-4.536,16.416-10.225,16.488-16.849c0.072-6.264-6.048-12.168-16.488-16.992v-10.367h5.4v-68.184h-5.4v-15.696H553.244
	L553.244,263.276z M530.924,247.076c0.216-1.08,0.36-2.376,0.36-3.744s-0.145-2.664-0.36-3.744V247.076z M530.924,239.588v7.488
	c-0.145,0.36-0.216,0.648-0.359,1.008h0.359v8.928h-23.256v-8.928h0.288c-0.144-0.288-0.216-0.504-0.288-0.792v-7.92
	c0.432-1.512,1.008-2.52,1.729-2.52c1.224,0,2.16,2.88,2.16,6.48c0,1.872-0.217,3.528-0.648,4.752h16.703
	c-0.432-1.224-0.647-2.88-0.647-4.752c0-3.6,0.937-6.48,2.16-6.48C529.844,236.852,530.492,237.932,530.924,239.588L530.924,239.588
	z M530.924,263.276v15.696h-5.472v68.184h5.472v10.367c-6.336-2.951-14.184-5.472-23.256-7.56v-2.808h6.408v-68.184h-6.408v-15.696
	H530.924L530.924,263.276z M530.924,391.364v22.247c-6.408,3.024-14.256,5.688-23.256,7.849v-22.68
	C516.235,396.908,524.3,394.389,530.924,391.364L530.924,391.364z M507.668,388.34v-27.432c9.288,3.456,15.696,8.136,15.696,13.68
	C523.364,379.772,517.46,384.597,507.668,388.34z M435.452,347.084v-68.04H424.58v68.04H435.452L435.452,347.084z M507.668,239.372
	v7.92c-0.288-1.08-0.433-2.448-0.433-3.96S507.38,240.452,507.668,239.372L507.668,239.372z M507.668,248.084h-15.695v-23.976h-5.4
	c-0.648-1.656-1.584-4.608-1.44-7.992c0.504-17.28-8.856-31.608-29.304-32.328c0.36-1.152,0.575-2.736,0.575-4.464
	c0-3.6-1.007-6.48-2.231-6.48c-1.152,0-2.16,2.88-2.16,6.48c0,1.728,0.217,3.312,0.576,4.464
	c-20.448,0.72-29.809,15.048-29.304,32.328c0.144,3.384-0.864,6.336-1.44,7.992h-5.4v23.976h-15.695v8.928h15.695l37.729-20.232
	l37.801,20.232h-75.529v6.192h75.529v-6.192h15.695V248.084L507.668,248.084z M507.668,263.276v15.696h-4.536v68.184h4.536v2.808
	c-4.896-1.08-10.152-2.016-15.695-2.808v-83.88H507.668L507.668,263.276z M507.668,360.908v27.432
	c-4.464,1.656-9.792,3.168-15.695,4.392v-36.288C497.588,357.597,502.988,359.107,507.668,360.908L507.668,360.908z M507.668,398.78
	v22.68c-4.896,1.151-10.152,2.088-15.695,2.952V401.66C497.229,400.939,502.557,399.932,507.668,398.78L507.668,398.78z
	 M400.748,421.46v-22.68c5.112,1.151,10.44,2.159,15.695,2.88v22.752C410.9,423.548,405.644,422.611,400.748,421.46L400.748,421.46z
	 M400.748,388.34v-27.432c4.68-1.801,10.08-3.312,15.695-4.465v36.288C410.54,391.508,405.212,389.996,400.748,388.34
	L400.748,388.34z M400.748,349.964v-2.808h4.464v-68.184h-4.464v-15.696h15.695v83.88
	C410.9,347.948,405.644,348.884,400.748,349.964L400.748,349.964z M400.748,247.292v-7.92c0.288,1.08,0.432,2.448,0.432,3.96
	S401.036,246.14,400.748,247.292L400.748,247.292z M464.611,347.084v-68.04h-20.807v68.04H464.611L464.611,347.084z
	 M423.068,392.731h62.352V356.3h-62.352V392.731L423.068,392.731z M483.836,347.084v-68.04h-10.872v68.04H483.836z M400.748,239.372
	v7.92c-0.072,0.288-0.145,0.504-0.288,0.792h0.288v8.928h-23.256v-8.928h0.287c-0.071-0.288-0.144-0.648-0.287-1.008v-7.416
	c0.432-1.656,1.08-2.808,1.8-2.808c1.224,0,2.16,2.88,2.16,6.48c0,1.872-0.217,3.528-0.647,4.752h16.703
	c-0.432-1.224-0.647-2.88-0.647-4.752c0-3.6,0.936-6.48,2.159-6.48C399.74,236.852,400.315,237.86,400.748,239.372L400.748,239.372z
	 M400.748,263.276v15.696h-6.408v68.184h6.408v2.808c-9.072,2.088-16.92,4.608-23.256,7.56v-10.367h5.472v-68.184h-5.472v-15.696
	H400.748L400.748,263.276z M400.748,360.908v27.432c-9.792-3.743-15.696-8.567-15.696-13.752
	C385.052,369.044,391.46,364.364,400.748,360.908L400.748,360.908z M400.748,398.78v22.68c-9-2.16-16.848-4.824-23.256-7.849
	v-22.247C384.116,394.389,392.18,396.908,400.748,398.78z M377.492,239.66v7.416c-0.217-1.08-0.36-2.376-0.36-3.744
	S377.275,240.74,377.492,239.66L377.492,239.66z M377.492,248.084h-16.416c0.359-1.224,0.647-2.88,0.647-4.752
	c0-3.6-0.936-6.48-2.159-6.48c-1.225,0-2.161,2.88-2.161,6.48c0,1.872,0.288,3.528,0.648,4.752h-2.88v8.928h22.32V248.084
	L377.492,248.084z M377.492,263.276v15.696h-5.4v68.184h5.4v10.367c-10.44,4.824-16.561,10.729-16.488,16.992
	c0.072,6.624,6.696,12.313,16.488,16.849v22.247c-8.784-4.247-14.761-9.215-16.92-14.615h-5.4v-51.84h5.4v-68.184h-5.4v-15.696
	H377.492z M355.172,248.084v8.928h-16.92v-9c-0.433-1.152-0.72-2.808-0.72-4.68c0-3.6,0.936-6.48,2.159-6.48
	c1.225,0,2.161,2.88,2.161,6.48c0,1.872-0.288,3.528-0.721,4.752H355.172L355.172,248.084z M355.172,263.276v15.696H349.7v68.184
	h5.472v51.84h-16.92v-135.72H355.172z"/>
</svg>
