<svg xmlns="http://www.w3.org/2000/svg" viewBox="0 0 512 512"><defs><style>.cls-1{fill:#1f2447;}.cls-2{fill:#fff;}</style></defs><title>DraCor-Symbol-Square-White-Blue-BG</title><g id="Layer_2" data-name="Layer 2"><g id="Layer_1-2" data-name="Layer 1"><rect class="cls-1" width="512" height="512"/><path class="cls-2" d="M441.72,207A192.18,192.18,0,0,0,256,64H64V448H256A192.25,192.25,0,0,0,441.72,207ZM221.67,290.33a48.52,48.52,0,0,0,68.66,0c.69-.69,1.35-1.39,2-2.11A48.3,48.3,0,0,0,302,271.45H416.37a165.21,165.21,0,0,1-2.5,16.77A159.33,159.33,0,0,1,409.49,305C388.71,370,327.76,417.1,256,417.1H94.9V271.45h38.41A123.75,123.75,0,0,0,369.66,305H327.48a86.5,86.5,0,1,1,0-98h42.18a123.7,123.7,0,0,0-236.35,33.54H94.9V94.9H256c71.76,0,132.71,47.15,153.49,112.11a159.33,159.33,0,0,1,4.38,16.77,165.21,165.21,0,0,1,2.5,16.77H302a48.3,48.3,0,0,0-9.72-16.77c-.64-.72-1.3-1.42-2-2.11a48.55,48.55,0,0,0-68.66,68.66Z"/></g></g></svg>