<svg xmlns="http://www.w3.org/2000/svg" viewBox="0 0 575.67 664.73"><defs><style>.cls-1{fill:#dce1e8;}.cls-2{fill:#1f2548;}</style></defs><title>DraCor-Symbol-Hexagon-Blue-Silver-BG-Stroke</title><g id="Layer_2" data-name="Layer 2"><g id="Layer_1-2" data-name="Layer 1"><polygon class="cls-1" points="14.5 490.17 14.5 174.55 287.84 16.74 561.17 174.55 561.17 490.17 287.83 647.98 14.5 490.17"/><path class="cls-2" d="M287.84,33.49,546.67,182.93V481.8L287.84,631.24,29,481.8V182.92L287.84,33.49m0-33.49L0,166.18V498.55L287.83,664.73,575.67,498.55V166.18L287.84,0Z"/><path class="cls-2" d="M444.1,296A151.79,151.79,0,0,0,296.84,180.72H145.2V484H296.84A151.77,151.77,0,0,0,444.1,368.73a153.49,153.49,0,0,0,0-72.73ZM296.84,455.18H174V346.77h27.73a96.23,96.23,0,0,0,184.17,22H353.55A67.36,67.36,0,1,1,296.84,265a66.86,66.86,0,0,1,47.61,19.72A68,68,0,0,1,353.54,296h32.37A96.21,96.21,0,0,0,201.74,318H174V209.54H296.84A123,123,0,0,1,414.16,296q1.68,5.38,2.86,11,1.14,5.4,1.79,11h-83.4a41.48,41.48,0,0,0-1.88-4.28c-.38-.74-.79-1.47-1.21-2.19a40.72,40.72,0,0,0-3.08-4.5h0a39.62,39.62,0,0,0-3.29-3.72A41.13,41.13,0,0,0,277.53,296c-.9.47-1.79,1-2.65,1.53a40.67,40.67,0,0,0-7.15,5.73,41.16,41.16,0,0,0,7.15,63.93l2.63,1.54A41.31,41.31,0,0,0,332,353.82c.55-.91,1.06-1.83,1.54-2.76a40.71,40.71,0,0,0,1.88-4.29h83.4c-.43,3.71-1,7.38-1.79,11s-1.74,7.38-2.86,11A123,123,0,0,1,296.84,455.18Z"/></g></g></svg>